<svg id="Capa_1" enable-background="new 0 0 512 512" height="512" viewBox="0 0 512 512" width="512" xmlns="http://www.w3.org/2000/svg" xmlns:xlink="http://www.w3.org/1999/xlink"><linearGradient id="SVGID_1_" gradientUnits="userSpaceOnUse" x1="256" x2="256" y1="512" y2="0"><stop offset="0" stop-color="#c3ffe8"/><stop offset=".9973" stop-color="#f0fff4"/></linearGradient><linearGradient id="SVGID_2_" gradientUnits="userSpaceOnUse" x1="256" x2="256" y1="389.5" y2="122.5"><stop offset="0" stop-color="#9cffac"/><stop offset="1" stop-color="#00b59c"/></linearGradient><g><g><circle cx="256" cy="256" fill="url(#SVGID_1_)" r="256"/></g><g><g><path d="m407 256c0-24.536-19.916-44.5-44.412-44.5h-44.412v-8.9c0-4.919-3.973-8.9-8.882-8.9h-106.588c-4.909 0-8.882 3.98-8.882 8.9v8.9h-22.969l-15.162-15.192c-3.47-3.477-9.091-3.477-12.56 0-3.47 3.477-3.47 9.108 0 12.585l2.189 2.193c-12.745-1.99-22.556-12.966-22.556-26.286 0-14.723 11.953-26.7 26.647-26.7h44.412v8.9c0 4.919 3.973 8.9 8.882 8.9h106.588c4.909 0 8.882-3.98 8.882-8.9v-35.6c0-4.919-3.973-8.9-8.882-8.9h-106.589c-4.909 0-8.882 3.98-8.882 8.9v8.9h-44.412c-24.496 0-44.412 19.964-44.412 44.5 0 23.39 18.159 42.417 41.072 44.161l-2.941 2.946c-3.47 3.477-3.47 9.109 0 12.585 3.47 3.477 9.091 3.477 12.56 0l15.162-15.193h22.969v8.9c0 4.919 3.973 8.9 8.882 8.9h106.588c4.909 0 8.882-3.981 8.882-8.9v-8.9h44.412c14.694 0 26.647 11.977 26.647 26.7 0 13.319-9.812 24.296-22.556 26.286l2.189-2.193c3.47-3.477 3.47-9.109 0-12.585-3.47-3.477-9.091-3.477-12.56 0l-15.16 15.193h-22.969v-8.9c0-4.919-3.973-8.9-8.882-8.9h-106.589c-4.909 0-8.882 3.981-8.882 8.9v8.9h-44.412c-24.496 0-44.412 19.964-44.412 44.5 0 23.39 18.159 42.416 41.072 44.161l-2.941 2.947c-3.47 3.477-3.47 9.108 0 12.585s9.091 3.477 12.56 0l15.162-15.192h22.969v8.9c0 4.919 3.973 8.9 8.882 8.9h106.588c4.909 0 8.882-3.98 8.882-8.9v-35.601c0-4.919-3.973-8.9-8.882-8.9h-106.586c-4.909 0-8.882 3.98-8.882 8.9v8.9h-22.969l-15.162-15.192c-3.47-3.477-9.091-3.477-12.56 0-3.47 3.477-3.47 9.108 0 12.585l2.189 2.194c-12.745-1.991-22.556-12.967-22.556-26.286 0-14.724 11.953-26.7 26.647-26.7h44.412v8.9c0 4.919 3.973 8.9 8.882 8.9h106.588c4.909 0 8.882-3.98 8.882-8.9v-8.9h22.969l15.162 15.192c3.47 3.477 9.09 3.477 12.56 0s3.47-9.108 0-12.585l-2.941-2.946c22.914-1.746 41.073-20.772 41.073-44.162z" fill="url(#SVGID_2_)"/></g></g></g></svg>