<svg id="Layer_1" data-name="Layer 1" xmlns="http://www.w3.org/2000/svg" viewBox="0 0 226.06 180.08"><defs><style>.cls-1{fill:#7755a3;fill-rule:evenodd;}</style></defs><title>bootstrap</title><path class="cls-1" d="M23.92,0C11,0,1.48,11.29,1.91,23.53c.4,11.76-.14,27-4,39.42S-12.4,83.31-23,84.32V95.76c10.63,1,17.11,8.91,21,21.37s4.36,27.65,4,39.42c-.43,12.24,9.11,23.53,22,23.53H156.08c12.9,0,22.44-11.29,22-23.53-.4-11.77.14-27,4-39.42s10.35-20.36,21-21.37V84.32c-10.63-1-17.11-8.91-21-21.37s-4.36-27.66-4-39.42C178.52,11.29,169,0,156.08,0Zm106.3,110.85c0,16.86-12.57,27.08-33.44,27.08H61.25a3.84,3.84,0,0,1-3.82-3.83V46a3.84,3.84,0,0,1,3.82-3.83H96.58c17.4,0,28.82,9.42,28.82,23.89,0,10.16-7.69,19.25-17.47,20.84v.54C121.24,88.88,130.22,98.1,130.22,110.85ZM92.92,54.29H72.66V82.9h17c13.2,0,20.45-5.31,20.45-14.8C110.16,59.2,103.92,54.29,92.92,54.29Zm-20.26,40v31.53h21c13.72,0,21-5.51,21-15.86s-7.48-15.67-21.9-15.67Z" transform="translate(23.03 0)"/></svg>