<svg id="Layer_1" data-name="Layer 1" xmlns="http://www.w3.org/2000/svg" viewBox="0 0 158.71 180"><defs><style>.cls-1{fill:#435ba9;}.cls-2{fill:#4667b0;}.cls-3{fill:#ebebeb;}.cls-4{fill:#fff;}</style></defs><title>css</title><path class="cls-1" d="M169.34,0,154.88,162l-65,18L25.07,162,10.63,0Z" transform="translate(-10.63)"/><path class="cls-2" d="M142.5,151.67,154.87,13.25H90v153Z" transform="translate(-10.63)"/><path class="cls-3" d="M43.73,73.33,45.52,93.2H90V73.33Z" transform="translate(-10.63)"/><path class="cls-3" d="M90,33.12H40.15L42,53H90Z" transform="translate(-10.63)"/><path class="cls-3" d="M90,145.61V124.93l-.08,0-22.14-6-1.4-15.84H46.42l2.77,31.19,40.7,11.3Z" transform="translate(-10.63)"/><path class="cls-4" d="M114.38,93.2,112.08,119l-22.16,6v20.67l40.74-11.29.28-3.35,4.68-52.31.49-5.34,3.58-40.21H89.92V53h28l-1.8,20.35H89.92V93.2Z" transform="translate(-10.63)"/></svg>