<svg id="Layer_1" data-name="Layer 1" xmlns="http://www.w3.org/2000/svg" viewBox="0 0 120 180"><defs><style>.cls-1{fill:#47ba7e;}.cls-2{fill:#8062aa;}.cls-3{fill:#f04f23;}.cls-4{fill:#f37264;}.cls-5{fill:#46b8e9;}</style></defs><title>figma</title><path class="cls-1" d="M60,180a30,30,0,0,0,30-30V120H60a30,30,0,0,0,0,60Z" transform="translate(-30)"/><path class="cls-2" d="M30,90A30,30,0,0,1,60,60H90v60H60A30,30,0,0,1,30,90Z" transform="translate(-30)"/><path class="cls-3" d="M30,30A30,30,0,0,1,60,0H90V60H60A30,30,0,0,1,30,30Z" transform="translate(-30)"/><path class="cls-4" d="M90,0h30a30,30,0,0,1,0,60H90Z" transform="translate(-30)"/><path class="cls-5" d="M150,90a30,30,0,1,1-30-30A30,30,0,0,1,150,90Z" transform="translate(-30)"/></svg>