<svg id="Capa_1" enable-background="new 0 0 512 512" height="512" viewBox="0 0 512 512" width="512" xmlns="http://www.w3.org/2000/svg" xmlns:xlink="http://www.w3.org/1999/xlink"><linearGradient id="SVGID_1_" gradientUnits="userSpaceOnUse" x1="256" x2="256" y1="512" y2="0"><stop offset="0" stop-color="#ffe59a"/><stop offset="1" stop-color="#ffffd5"/></linearGradient><linearGradient id="SVGID_2_" gradientUnits="userSpaceOnUse" x1="256" x2="256" y1="407" y2="105"><stop offset="0" stop-color="#ffde00"/><stop offset="1" stop-color="#fd5900"/></linearGradient><g><g><circle cx="256" cy="256" fill="url(#SVGID_1_)" r="256"/></g><g><g><path d="m335.962 362.588v-248.706c0-4.91-3.974-8.882-8.885-8.882h-115.5v62.176c0 4.91-3.974 8.882-8.885 8.882h-62.192v186.53c0 4.91 3.974 8.882 8.885 8.882h177.692c4.911.001 8.885-3.972 8.885-8.882zm-124.385-88.823v17.765c0 4.901 3.991 8.882 8.885 8.882 4.911 0 8.885 3.973 8.885 8.882 0 4.91-3.974 8.882-8.885 8.882-14.698 0-26.654-11.953-26.654-26.647v-17.765c0-4.901-3.991-8.882-8.885-8.882-4.911 0-8.885-3.973-8.885-8.882s3.974-8.882 8.885-8.882c4.893 0 8.885-3.981 8.885-8.882v-17.765c0-14.694 11.956-26.647 26.654-26.647 4.911 0 8.885 3.973 8.885 8.883 0 4.909-3.974 8.882-8.885 8.882-4.893 0-8.885 3.981-8.885 8.882v17.765c0 6.849-2.67 13.04-6.932 17.765 4.262 4.724 6.932 10.915 6.932 17.764zm79.961-8.883c-4.893 0-8.885 3.981-8.885 8.882v17.765c0 14.694-11.956 26.647-26.654 26.647-4.911 0-8.885-3.973-8.885-8.882s3.974-8.882 8.885-8.882c4.893 0 8.885-3.981 8.885-8.882v-17.765c0-6.849 2.67-13.04 6.932-17.765-4.262-4.725-6.932-10.916-6.932-17.765v-17.765c0-4.901-3.991-8.882-8.885-8.882-4.911 0-8.885-3.973-8.885-8.882 0-4.91 3.974-8.883 8.885-8.883 14.698 0 26.654 11.953 26.654 26.647v17.765c0 4.901 3.991 8.882 8.885 8.882 4.911 0 8.885 3.973 8.885 8.882s-3.974 8.883-8.885 8.883zm-97.73-154.677-48.102 48.089h48.102zm168.807 30.324h-8.885v222.059c0 14.694-11.956 26.647-26.654 26.647h-151.038v8.882c0 4.91 3.974 8.882 8.885 8.882h177.692c4.911 0 8.885-3.973 8.885-8.882v-248.705c0-4.91-3.974-8.883-8.885-8.883z" fill="url(#SVGID_2_)"/></g></g></g></svg>