<svg id="Layer_1" data-name="Layer 1" xmlns="http://www.w3.org/2000/svg" viewBox="0 0 180 180"><defs><style>.cls-1{fill:#de4c35;}</style></defs><title>git</title><path class="cls-1" d="M176.6,82,98,3.39a11.6,11.6,0,0,0-16.39,0L65.3,19.71,86,40.41A13.76,13.76,0,0,1,103.44,58l20,20a13.77,13.77,0,1,1-8.26,7.78L96.52,67.09v49a13.78,13.78,0,1,1-11.34-.4V66.22a13.59,13.59,0,0,1-4.52-3,13.79,13.79,0,0,1-3-15.08L57.28,27.74,3.4,81.61A11.59,11.59,0,0,0,3.4,98L82,176.6a11.58,11.58,0,0,0,16.39,0L176.6,98.37a11.59,11.59,0,0,0,0-16.4" transform="translate(0 0)"/></svg>