<svg id="Layer_1" data-name="Layer 1" xmlns="http://www.w3.org/2000/svg" viewBox="0 0 184.46 179.91"><defs><style>.cls-1{fill:#171715;}</style></defs><title>github</title><path class="cls-1" d="M90,.09A92.25,92.25,0,0,0,60.84,179.85c4.61.85,6.31-2,6.31-4.45,0-2.19-.09-9.46-.13-17.17C41.36,163.82,36,147.35,36,147.35c-4.2-10.67-10.24-13.49-10.24-13.49-8.37-5.74.63-5.61.63-5.61,9.26.65,14.13,9.5,14.13,9.5,8.23,14.11,21.58,10,26.84,7.68.83-6,3.22-10,5.86-12.34-20.49-2.33-42-10.24-42-45.58a35.68,35.68,0,0,1,9.5-24.76c-1-2.32-4.11-11.69.9-24.4,0,0,7.74-2.49,25.36,9.44a87.62,87.62,0,0,1,46.2,0c17.6-11.93,25.33-9.44,25.33-9.44,5,12.71,1.87,22.08.91,24.4a35.63,35.63,0,0,1,9.49,24.76c0,35.43-21.58,43.22-42.11,45.5,3.3,2.86,6.25,8.49,6.25,17.08,0,12.34-.1,22.29-.1,25.31,0,2.46,1.66,5.33,6.33,4.43A92.25,92.25,0,0,0,90,.09Z" transform="translate(2.23 -0.09)"/><path class="cls-1" d="M32.31,131.48c-.2.46-.92.59-1.58.28s-1-.92-.83-1.38.92-.61,1.59-.3S32.55,131,32.31,131.48Zm4.54,4c-.44.41-1.3.22-1.88-.42s-.72-1.5-.27-1.92,1.28-.2,1.89.42.72,1.52.26,1.92ZM40,140.7c-.56.39-1.49,0-2.06-.79s-.56-1.81,0-2.19,1.49,0,2.07.77.56,1.81,0,2.21Zm5.27,6c-.51.57-1.59.41-2.37-.35a1.77,1.77,0,0,1-.53-2.36c.51-.56,1.6-.39,2.39.37s1,1.79.51,2.34Zm6.8,2c-.22.72-1.26,1.05-2.31.74s-1.72-1.17-1.51-1.88,1.26-1.07,2.31-.74S52.25,148,52,148.73Zm7.74.87c0,.75-.86,1.38-2,1.4s-2-.59-2-1.35.86-1.38,2-1.4S59.77,148.84,59.77,149.6Zm7.61-.3c.13.74-.63,1.49-1.72,1.7s-2.07-.26-2.2-1,.64-1.51,1.71-1.71S67.24,148.54,67.38,149.3Z" transform="translate(2.23 -0.09)"/></svg>