<svg id="Layer_1" data-name="Layer 1" xmlns="http://www.w3.org/2000/svg" xmlns:xlink="http://www.w3.org/1999/xlink" viewBox="0 0 183.83 180"><defs><style>.cls-1{fill:url(#linear-gradient);}.cls-2{fill:url(#linear-gradient-2);}</style><linearGradient id="linear-gradient" x1="396.96" y1="-123.04" x2="216.8" y2="-303.2" gradientTransform="matrix(1, 0, 0, -1, -216, -124)" gradientUnits="userSpaceOnUse"><stop offset="0" stop-color="#fba92c"/><stop offset="1" stop-color="#fdc06c"/></linearGradient><linearGradient id="linear-gradient-2" x1="306" y1="-137.84" x2="306" y2="-289.23" gradientTransform="matrix(1, 0, 0, -1, -216, -124)" gradientUnits="userSpaceOnUse"><stop offset="0" stop-color="#26180c"/><stop offset="1"/></linearGradient></defs><title>illustrator</title><path class="cls-1" d="M-1.91,0H181.91V180H-1.91Z" transform="translate(1.91)"/><path class="cls-2" d="M65,91.64H81.32L73.18,60ZM11.88,14.09V166H168.12V14.09ZM90.27,126.28l-6-20.54h-22l-6,20.54H41.18l21.27-72.6v-8H82.71L107,126.28Zm40.14,0h-16.3V65h16.3Zm-8-68.63a8.35,8.35,0,1,1,8.44-8.34A8.4,8.4,0,0,1,122.36,57.65Z" transform="translate(1.91)"/></svg>