<svg id="Capa_1" enable-background="new 0 0 512 512" height="512" viewBox="0 0 512 512" width="512" xmlns="http://www.w3.org/2000/svg" xmlns:xlink="http://www.w3.org/1999/xlink"><linearGradient id="SVGID_1_" gradientUnits="userSpaceOnUse" x1="256" x2="256" y1="512" y2="0"><stop offset="0" stop-color="#addcff"/><stop offset=".5028" stop-color="#eaf6ff"/><stop offset="1" stop-color="#eaf6ff"/></linearGradient><linearGradient id="SVGID_2_" gradientUnits="userSpaceOnUse" x1="256" x2="256" y1="407" y2="105"><stop offset="0" stop-color="#00c0ff"/><stop offset="1" stop-color="#5558ff"/></linearGradient><g><g><circle cx="256" cy="256" fill="url(#SVGID_1_)" r="256"/></g><g><g><path d="m353.625 247.118h-8.875v-26.647c0-24.487-19.899-44.412-44.375-44.412h-106.5c-24.476 0-44.375 19.925-44.375 44.412v71.059c0 24.487 19.899 44.412 44.375 44.412h106.5c24.476 0 44.375-19.925 44.375-44.412v-26.647h8.875c4.906 0 8.875-3.973 8.875-8.882s-3.969-8.883-8.875-8.883zm-135.725 20.367c3.467 3.47 3.467 9.091 0 12.56s-9.083 3.47-12.55 0l-17.75-17.765c-3.467-3.469-3.467-9.091 0-12.56l17.75-17.765c3.467-3.469 9.083-3.469 12.55 0 3.467 3.47 3.467 9.091 0 12.56l-11.475 11.485zm42.277-27.099-8.875 35.53c-1.187 4.771-6.018 7.65-10.764 6.462-4.767-1.188-7.644-6.011-6.466-10.765l8.875-35.53c1.179-4.771 5.963-7.668 10.764-6.462 4.768 1.189 7.645 6.012 6.466 10.765zm46.473 21.894-17.75 17.765c-3.467 3.469-9.083 3.47-12.55 0s-3.467-9.091 0-12.56l11.475-11.485-11.475-11.485c-3.467-3.47-3.467-9.091 0-12.56s9.083-3.469 12.55 0l17.75 17.765c3.467 3.469 3.467 9.091 0 12.56zm2.6-148.398c0-4.91-3.969-8.882-8.875-8.882h-106.5c-4.906 0-8.875 3.973-8.875 8.882v44.412h124.25zm-124.25 284.236c0 4.91 3.969 8.882 8.875 8.882h106.5c4.906 0 8.875-3.973 8.875-8.882v-44.412h-124.25z" fill="url(#SVGID_2_)"/></g></g></g></svg>