<svg id="Layer_1" data-name="Layer 1" xmlns="http://www.w3.org/2000/svg" viewBox="0 0 187.46 179.65"><defs><style>.cls-1{fill:#1167aa;}</style></defs><title>jquery</title><path class="cls-1" d="M7.24,124.12c.19.41.39.78.6,1.16a6.11,6.11,0,0,0,.38.65c.2.4.43.79.63,1.18l1.22,2.06c.23.39.45.76.71,1.14.43.73.94,1.45,1.39,2.18.19.31.38.61.6.92.86,1.33,1.65,2.44,2.49,3.52.58.81,1.18,1.59,1.82,2.38.21.3.45.6.66.89l1.74,2.1c.21.24.41.52.64.77.77.92,1.57,1.81,2.4,2.72,0,0,0,0,0,.05a22,22,0,0,0,3.28,3.39v0c.64.65,1.26,1.28,1.92,1.9l.8.76c.87.81,1.73,1.62,2.65,2.4l0,0,.45.39c.79.7,1.6,1.38,2.42,2l1,.81c.65.54,1.35,1,2,1.56l1.07.81c.73.55,1.5,1.08,2.23,1.61l.84.57.23.18,2.19,1.44.94.62c1.14.74,2.29,1.42,3.43,2.11.32.17.66.35,1,.53.84.49,1.72,1,2.56,1.42.47.27,1,.5,1.45.74s1.18.65,1.82,1a3.57,3.57,0,0,1,.45.19l0,0,.75.37c.94.47,1.91.91,2.93,1.35l.6.26c1.12.5,2.25,1,3.41,1.42.26.08.54.21.8.31,1.07.4,2.16.81,3.23,1.19l.39.14c1.2.41,2.38.79,3.6,1.16.28.08.56.18.86.26a33,33,0,0,0,3.7,1.05c80.25,14.56,103.57-48,103.57-48-19.59,25.38-54.37,32.08-87.28,24.63-1.22-.28-2.44-.67-3.68-1-1.74-.5-3.47-1-5.17-1.64l.73.23-.49-.19c-1-.36-2.08-.75-3.11-1.15-.26-.11-.52-.21-.79-.3l-.07,0c-1.14-.46-2.27-.93-3.38-1.43a6.65,6.65,0,0,1-.69-.28c-1.31-.57-2.6-1.17-3.9-1.79l1.07.47c-.28-.12-.54-.26-.82-.4-.74-.35-1.47-.74-2.2-1.1-.54-.26-1.09-.54-1.61-.83l.17.08c-.9-.47-1.78-1-2.66-1.46-.27-.18-.58-.34-.88-.51q-2-1.16-3.92-2.39L61,141c-.32-.2-.66-.42-1-.64l0,0c-.85-.52-1.67-1.06-2.48-1.63-.26-.17-.5-.36-.77-.54-.84-.58-1.66-1.17-2.49-1.78l.19.13c-.32-.27-.68-.52-1-.78-.68-.53-1.37-1.05-2.07-1.61l-.91-.74c-1-.78-2-1.58-2.89-2.41h0l-2.7-2.46-.79-.73c-.63-.65-1.29-1.27-2-1.91l-.76-.78q-1.22-1.2-2.37-2.46l0,0-.15-.11c-.83-.91-1.63-1.83-2.44-2.76-.21-.24-.41-.5-.62-.76L34,116.83c-.81-1-1.57-2-2.34-3l-.32-.44c-18.26-24.8-24.86-59-10.26-87.13L8.18,42.53C-8.41,66.27-6.37,97.13,6.32,122.34,6.62,123,6.94,123.54,7.24,124.12Z" transform="translate(3.73 -0.35)"/><path d="M63.16,89.93l-.1-.13L63,89.71Z" transform="translate(3.73 -0.35)"/><path class="cls-1" d="M71.88,100.17l.71.71c.88.85,1.8,1.69,2.73,2.53l.12.1c.93.83,2,1.69,3.07,2.54l.17.12c.26.18.49.39.75.57,1.09.85,2.19,1.65,3.34,2.46l.11.06c.49.36,1,.68,1.55,1,.23.14.47.33.7.47.84.53,1.65,1,2.49,1.53l.38.18c.69.43,1.46.84,2.19,1.22.26.16.51.27.77.42.52.26,1.05.53,1.54.8l.26.11c1,.51,2.12,1,3.18,1.47.27.1.49.19.72.3.86.37,1.74.73,2.62,1.06.38.13.75.29,1.13.41.78.29,1.63.57,2.41.84l1.09.35a24.71,24.71,0,0,0,3.51,1c62,10.2,76.31-37.26,76.31-37.26-12.92,18.49-37.9,27.3-64.52,20.41-1.33-.33-2.66-.71-4-1.13l.43.13-1.05-.33c-.82-.28-1.65-.56-2.43-.84l-1.13-.43c-.88-.35-1.76-.68-2.62-1-.26-.12-.51-.2-.71-.31-1.09-.5-2.2-1-3.27-1.49l-1.61-.84-.92-.47c-.73-.37-1.38-.77-2.08-1.16l-.5-.28h0c-.83-.51-1.69-1-2.48-1.54-.26-.14-.51-.32-.75-.48l-1.63-1.05c-1.12-.78-2.23-1.62-3.34-2.43-.26-.23-.5-.42-.75-.62-11.69-9.16-20.94-21.68-25.3-35.86C60.5,38.67,61.51,22.14,69.49,8.73l-9.8,13.81c-12,17.19-11.36,40.17-2,58.36a70.88,70.88,0,0,0,5.36,8.89c1.79,2.55,3.75,5.53,6.13,7.58C70,98.33,70.94,99.24,71.88,100.17Z" transform="translate(3.73 -0.35)"/><path d="M15.3,137l0,0,0-.07Zm32.47-5.81.07.05,0,0Z" transform="translate(3.73 -0.35)"/><path class="cls-1" d="M103,7.59c-7.1,10.37-7.78,23.24-2.88,34.67,5.19,12.13,15.8,21.66,28.17,26.18l1.52.54.69.22c.71.22,1.45.49,2.19.65,34.22,6.57,43.48-17.48,46-21-8.14,11.64-21.8,14.44-38.56,10.38a34.07,34.07,0,0,1-4.31-1.33l.26.09a48.35,48.35,0,0,1-5.12-2.11l.3.14a50.7,50.7,0,0,1-8.51-5.19c-15-11.33-24.24-32.89-14.47-50.46Z" transform="translate(3.73 -0.35)"/></svg>