<svg id="Layer_1" data-name="Layer 1" xmlns="http://www.w3.org/2000/svg" viewBox="0 0 180 180"><defs><style>.cls-1{fill:#f6df18;}</style></defs><title>js</title><path class="cls-1" d="M180,0H0V180H180Z"/><path d="M120.91,140.63c3.63,5.92,8.35,10.27,16.69,10.27,7,0,11.49-3.51,11.49-8.35,0-5.8-4.6-7.85-12.32-11.22l-4.23-1.82c-12.2-5.2-20.31-11.71-20.31-25.48,0-12.69,9.66-22.35,24.77-22.35,10.75,0,18.49,3.75,24.06,13.55l-13.17,8.45c-2.9-5.2-6-7.25-10.89-7.25s-8.09,3.15-8.09,7.25c0,5.08,3.14,7.13,10.4,10.27l4.22,1.82c14.38,6.16,22.49,12.44,22.49,26.57,0,15.23-12,23.57-28,23.57-15.71,0-25.86-7.49-30.82-17.3Zm-59.75,1.46c2.66,4.72,5.08,8.7,10.89,8.7,5.56,0,9.06-2.17,9.06-10.63V82.65H98v57.74c0,17.52-10.27,25.49-25.26,25.49-13.54,0-21.39-7-25.38-15.45Z"/></svg>