<svg id="Layer_1" data-name="Layer 1" xmlns="http://www.w3.org/2000/svg" viewBox="0 0 175.42 180.59"><defs><style>.cls-1{fill:#ef372c;}</style></defs><title>laravel</title><path class="cls-1" d="M175.33,40.86a3,3,0,0,1,.09.73V80.36a2.85,2.85,0,0,1-.38,1.42,3,3,0,0,1-1,1l-32.53,18.73v37.12a2.83,2.83,0,0,1-1.41,2.45l-67.92,39.1a2.65,2.65,0,0,1-.49.2l-.19.08a3,3,0,0,1-1.45,0,1.45,1.45,0,0,1-.22-.09,3.85,3.85,0,0,1-.47-.19l-67.9-39.1a2.85,2.85,0,0,1-1-1A2.88,2.88,0,0,1,0,138.67V22.38a3.07,3.07,0,0,1,.1-.74,1.73,1.73,0,0,1,.1-.24A2.05,2.05,0,0,1,.38,21c0-.09.13-.17.19-.26a2.72,2.72,0,0,1,.25-.32,1.93,1.93,0,0,1,.28-.22,1.72,1.72,0,0,1,.31-.24h0L35.37.38a2.81,2.81,0,0,1,2.82,0l34,19.55h0a1.83,1.83,0,0,1,.31.24,1.51,1.51,0,0,1,.28.22,2,2,0,0,1,.25.32c.06.09.14.17.2.26a2.77,2.77,0,0,1,.18.43,1.73,1.73,0,0,1,.1.24,3.66,3.66,0,0,1,.1.74V95l28.29-16.28V41.59a2.57,2.57,0,0,1,.1-.73c0-.09.07-.16.09-.25a4.17,4.17,0,0,1,.19-.44c.05-.09.13-.16.19-.25a3.75,3.75,0,0,1,.26-.33c.08-.07.18-.13.27-.2a3.4,3.4,0,0,1,.31-.25h0l34-19.55a2.89,2.89,0,0,1,2.83,0L174,39.14a1.89,1.89,0,0,1,.31.25l.28.2a3.59,3.59,0,0,1,.25.33c.06.09.14.16.19.25a4.17,4.17,0,0,1,.19.44C175.26,40.7,175.3,40.77,175.33,40.86Zm-5.57,37.87V46.5l-11.88,6.83-16.41,9.45V95l28.3-16.28ZM135.81,137V104.78L119.67,114,73.56,140.31v32.55ZM5.66,27.27V137L67.9,172.86V140.32l-32.51-18.4v0h0a3.5,3.5,0,0,1-.3-.24,2.69,2.69,0,0,1-.27-.2v0a3.25,3.25,0,0,1-.23-.29,2.47,2.47,0,0,1-.21-.27v0c-.06-.11-.1-.23-.15-.34s-.1-.22-.13-.33h0c0-.13,0-.27-.06-.42s0-.2,0-.31V43.57L17.54,34.1,5.66,27.27ZM36.78,6.09,8.5,22.38,36.78,38.66,65.06,22.37,36.78,6.09ZM51.5,107.71l16.41-9.45v-71L56,34.1,39.61,43.57v71Zm87.14-82.4L110.36,41.59l28.28,16.28,28.28-16.28Zm-2.83,37.47L119.4,53.33,107.52,46.5V78.73l16.41,9.45L135.81,95ZM70.73,135.42l41.49-23.7L133,99.9,104.69,83.62,72.15,102.37,42.49,119.43Z"/></svg>