<svg id="Capa_1" enable-background="new 0 0 512 512" height="512" viewBox="0 0 512 512" width="512" xmlns="http://www.w3.org/2000/svg" xmlns:xlink="http://www.w3.org/1999/xlink"><linearGradient id="SVGID_1_" gradientUnits="userSpaceOnUse" x1="256" x2="256" y1="512" y2="0"><stop offset="0" stop-color="#addcff"/><stop offset=".5028" stop-color="#eaf6ff"/><stop offset="1" stop-color="#eaf6ff"/></linearGradient><linearGradient id="SVGID_2_" gradientUnits="userSpaceOnUse" x1="256" x2="256" y1="407" y2="105"><stop offset="0" stop-color="#00c0ff"/><stop offset="1" stop-color="#5558ff"/></linearGradient><g><g><circle cx="256" cy="256" fill="url(#SVGID_1_)" r="256"/></g><g><g><path d="m371.267 113.882c0-4.91-3.966-8.882-8.867-8.882h-212.8c-4.901 0-8.867 3.973-8.867 8.882v26.647h230.533v-26.647zm8.866 168.765h-115.266v-17.765h97.533c4.901 0 8.867-3.973 8.867-8.882v-97.706h-230.534v97.706c0 4.91 3.966 8.882 8.867 8.882h97.533v17.765h-115.266c-4.901 0-8.867 3.973-8.867 8.882v106.588c0 4.91 3.966 8.882 8.867 8.882h248.267c4.901 0 8.867-3.973 8.867-8.882v-106.588c-.001-4.909-3.967-8.882-8.868-8.882zm-106.4 35.529c4.896 0 8.867 3.976 8.867 8.882 0 4.905-3.97 8.883-8.867 8.883s-8.867-3.978-8.867-8.883c.001-4.906 3.971-8.882 8.867-8.882zm11.465-118.072c-3.464-3.469-3.464-9.09 0-12.56 3.463-3.47 9.074-3.47 12.538 0l17.733 17.765c3.464 3.47 3.464 9.091 0 12.56l-17.733 17.765c-3.463 3.469-9.074 3.47-12.538 0s-3.464-9.091 0-12.56l11.464-11.485zm-58.396 22.969c3.464 3.47 3.464 9.091 0 12.56-3.463 3.469-9.074 3.47-12.538 0l-17.733-17.765c-3.464-3.47-3.464-9.091 0-12.56l17.733-17.765c3.463-3.47 9.074-3.47 12.538 0s3.464 9.091 0 12.56l-11.464 11.485zm16.158 4.129 8.867-35.529c1.177-4.762 5.957-7.677 10.754-6.462 4.762 1.188 7.637 6.011 6.459 10.765l-8.867 35.53c-1.186 4.771-6.012 7.65-10.754 6.462-4.762-1.19-7.637-6.013-6.459-10.766zm-4.693 90.974c4.897 0 8.867 3.976 8.867 8.882 0 4.905-3.97 8.883-8.867 8.883-4.896 0-8.867-3.978-8.867-8.883 0-4.906 3.97-8.882 8.867-8.882zm-35.467 0c4.896 0 8.867 3.976 8.867 8.882 0 4.905-3.97 8.883-8.867 8.883s-8.867-3.978-8.867-8.883c0-4.906 3.97-8.882 8.867-8.882zm-35.467 53.295c-4.896 0-8.866-3.977-8.866-8.882 0-4.907 3.97-8.882 8.866-8.882 4.897 0 8.867 3.976 8.867 8.882 0 4.905-3.97 8.882-8.867 8.882zm0-35.53c-4.896 0-8.866-3.978-8.866-8.883 0-4.906 3.97-8.882 8.866-8.882 4.897 0 8.867 3.976 8.867 8.882s-3.97 8.883-8.867 8.883zm141.867 35.53h-106.4c-4.901 0-8.867-3.973-8.867-8.882s3.966-8.882 8.867-8.882h106.4c4.901 0 8.867 3.973 8.867 8.882s-3.966 8.882-8.867 8.882zm0-35.53c-4.896 0-8.867-3.978-8.867-8.883 0-4.906 3.97-8.882 8.867-8.882s8.867 3.976 8.867 8.882-3.97 8.883-8.867 8.883zm35.467 35.53c-4.897 0-8.867-3.977-8.867-8.882 0-4.907 3.97-8.882 8.867-8.882 4.896 0 8.866 3.976 8.866 8.882 0 4.905-3.97 8.882-8.866 8.882zm0-35.53c-4.897 0-8.867-3.978-8.867-8.883 0-4.906 3.97-8.882 8.867-8.882 4.896 0 8.866 3.976 8.866 8.882s-3.97 8.883-8.866 8.883z" fill="url(#SVGID_2_)"/></g></g></g></svg>