<svg id="Capa_1" enable-background="new 0 0 512 512" height="512" viewBox="0 0 512 512" width="512" xmlns="http://www.w3.org/2000/svg" xmlns:xlink="http://www.w3.org/1999/xlink"><linearGradient id="SVGID_1_" gradientUnits="userSpaceOnUse" x1="256" x2="256" y1="512" y2="0"><stop offset="0" stop-color="#ffc2cc"/><stop offset="1" stop-color="#fff2f4"/></linearGradient><linearGradient id="SVGID_2_" gradientUnits="userSpaceOnUse" x1="256" x2="256" y1="407" y2="105"><stop offset="0" stop-color="#ffa68d"/><stop offset="1" stop-color="#fd3a84"/></linearGradient><g><g><circle cx="256" cy="256" fill="url(#SVGID_1_)" r="256"/></g><g><g><path d="m326.909 105h-141.818c-14.663 0-26.591 11.953-26.591 26.647v248.706c0 14.694 11.928 26.647 26.591 26.647h141.818c14.663 0 26.591-11.953 26.591-26.647v-248.706c0-14.694-11.928-26.647-26.591-26.647zm-70.909 35.529c4.895 0 8.864 3.976 8.864 8.882 0 4.905-3.969 8.883-8.864 8.883s-8.864-3.977-8.864-8.883 3.969-8.882 8.864-8.882zm-13.036 131.085 8.864-35.53c1.177-4.771 5.921-7.65 10.751-6.462 4.761 1.188 7.634 6.011 6.457 10.765l-8.864 35.53c-1.185 4.771-6.01 7.65-10.751 6.462-4.76-1.189-7.634-6.012-6.457-10.765zm-16.152-4.129c3.462 3.47 3.462 9.091 0 12.56s-9.071 3.47-12.534 0l-17.727-17.765c-3.462-3.469-3.462-9.091 0-12.56l17.727-17.765c3.462-3.469 9.071-3.469 12.534 0 3.462 3.47 3.462 9.091 0 12.56l-11.46 11.485zm46.915 103.986h-35.455c-4.899 0-8.864-3.973-8.864-8.882s3.964-8.882 8.864-8.882h35.455c4.899 0 8.864 3.973 8.864 8.882s-3.964 8.882-8.864 8.882zm41.722-109.191-17.727 17.765c-3.462 3.469-9.071 3.47-12.534 0-3.462-3.47-3.462-9.091 0-12.56l11.46-11.485-11.46-11.485c-3.462-3.47-3.462-9.091 0-12.56s9.071-3.469 12.534 0l17.727 17.765c3.462 3.469 3.462 9.091 0 12.56z" fill="url(#SVGID_2_)"/></g></g></g></svg>