<svg id="Layer_1" data-name="Layer 1" xmlns="http://www.w3.org/2000/svg" viewBox="0 0 80.85 180"><defs><style>.cls-1{fill:#599642;}.cls-2{fill:#6cac46;}.cls-3{fill:#c2bfbf;}</style></defs><title>mongodb</title><path class="cls-1" d="M89.44.49l4.81,9A27,27,0,0,0,97.87,14a122.65,122.65,0,0,1,11.26,12.75c8.16,10.69,13.65,22.55,17.55,35.39a86.47,86.47,0,0,1,3.73,24c.4,24.31-7.94,45.19-24.75,62.54a72.79,72.79,0,0,1-8.82,7.55c-1.67,0-2.47-1.28-3.15-2.45a20.61,20.61,0,0,1-2.45-7.06,34.6,34.6,0,0,1-.79-8.92v-1.37C90.32,136.17,88.85,1.18,89.44.49Z" transform="translate(-49.58 0)"/><path class="cls-2" d="M89.44.19c-.2-.39-.39-.09-.59.1a9.08,9.08,0,0,1-1.68,5.4A25.41,25.41,0,0,1,82.87,10,93.69,93.69,0,0,0,61.79,36.87,108.09,108.09,0,0,0,49.64,80.78c-.48,5.59,1.77,25.3,3.53,31,4.81,15.1,13.43,27.75,24.61,38.73a109.2,109.2,0,0,0,8.71,7.45c.88,0,1-.79,1.19-1.37a27.62,27.62,0,0,0,.88-3.83l2-14.7Z" transform="translate(-49.58 0)"/><path class="cls-3" d="M94.25,162.24a13.47,13.47,0,0,1,2.45-6,6.24,6.24,0,0,1-2.76-2.55,19.68,19.68,0,0,1-1.46-3.24c-1.36-4.11-1.65-8.43-2-12.64v-2.55c-.48.39-.59,3.72-.59,4.22a98.23,98.23,0,0,1-1.77,13.23,11.44,11.44,0,0,1-1.58,5.1,1.74,1.74,0,0,0,.11.69c1.76,5.19,2.25,10.49,2.54,15.88v2c0,2.35-.09,1.85,1.85,2.64a8.6,8.6,0,0,1,2.47,1c.57,0,.68-.49.68-.88l-.31-3.24v-9a24,24,0,0,1,.4-4.61Z" transform="translate(-49.58 0)"/></svg>