<svg id="Layer_1" data-name="Layer 1" xmlns="http://www.w3.org/2000/svg" viewBox="0 0 180.34 179.69"><defs><style>.cls-1{fill:#02556c;}</style></defs><title>mysql</title><path class="cls-1" d="M162,139.3c-9.81-.26-17.42.74-23.8,3.48-1.84.75-4.78.75-5,3.12,1,1,1.11,2.61,2,4a28.9,28.9,0,0,0,6.37,7.59c2.58,2,5.16,4,7.85,5.72,4.79,3,10.18,4.75,14.85,7.72,2.7,1.75,5.39,4,8.09,5.86,1.35,1,2.21,2.62,3.93,3.23v-.36c-.86-1.12-1.11-2.74-2-4-1.22-1.24-2.45-2.36-3.68-3.6a58.54,58.54,0,0,0-12.75-12.59c-3.93-2.74-12.51-6.48-14.11-11.07l-.24-.26a50,50,0,0,0,8.46-2c4.17-1.14,8-.88,12.27-2,2-.49,3.92-1.12,5.88-1.75v-1.12c-2.2-2.24-3.8-5.23-6.13-7.34a161.62,161.62,0,0,0-20.24-15.31c-3.8-2.49-8.71-4.11-12.75-6.22-1.48-.76-3.93-1.12-4.79-2.38-2.21-2.73-3.43-6.35-5-9.58-3.55-6.85-7-14.45-10.05-21.66-2.21-4.87-3.56-9.72-6.26-14.19C92.21,43.42,78.47,30.6,57.37,18c-4.54-2.61-9.93-3.75-15.7-5.1-3.06-.13-6.13-.38-9.2-.51-2-.86-3.92-3.24-5.64-4.36-7-4.47-25-14.19-30.17-1.37-3.32,8.1,4.9,16.07,7.72,20.18,2.09,2.87,4.79,6.09,6.26,9.34.86,2.11,1.1,4.35,2,6.58,2,5.49,3.8,11.58,6.38,16.7a60.77,60.77,0,0,0,4.54,7.72c1,1.35,2.7,2,3.06,4.22-1.71,2.49-1.84,6.24-2.82,9.34-4.41,14.07-2.69,31.51,3.56,41.84,2,3.11,6.62,10,12.88,7.34,5.52-2.23,4.29-9.34,5.89-15.56.37-1.5.12-2.49.85-3.48v.25c1.72,3.48,3.44,6.84,5,10.34,3.81,6.09,10.43,12.44,16,16.68,2.94,2.23,5.27,6.09,9,7.46v-.37h-.24c-.74-1.12-1.84-1.61-2.82-2.49a60.23,60.23,0,0,1-6.38-7.47,161.38,161.38,0,0,1-13.74-22.67c-2-3.86-3.68-8.08-5.27-11.94-.74-1.49-.74-3.73-2-4.49-1.84,2.74-4.53,5.11-5.88,8.48C38.24,110,38,116.63,37.13,123.48c-.49.13-.24,0-.49.25-3.92-1-5.27-5.1-6.74-8.58-3.68-8.86-4.3-23.05-1.11-33.26.86-2.61,4.54-10.82,3.07-13.31-.74-2.38-3.19-3.75-4.54-5.61a50.82,50.82,0,0,1-4.42-8C20,48,18.49,40.3,15.3,33.34c-1.47-3.24-4.05-6.6-6.13-9.59C6.84,20.39,4.26,18,2.42,14.05,1.81,12.68,1,10.42,1.93,8.94A2,2,0,0,1,3.65,7.32C5.24,6,9.78,7.7,11.37,8.44a61.44,61.44,0,0,1,12.15,6.22c1.71,1.24,3.55,3.61,5.76,4.24h2.58c3.92.86,8.34.25,12,1.37a78,78,0,0,1,17.66,8.58A109.9,109.9,0,0,1,99.81,71.43c1.47,2.87,2.09,5.48,3.43,8.48,2.58,6.09,5.77,12.32,8.35,18.3s5,11.82,8.7,16.69c1.84,2.61,9.2,4,12.52,5.35,2.45,1.12,6.25,2.11,8.46,3.48,4.17,2.62,8.34,5.61,12.26,8.46C155.5,133.69,161.63,136.81,162,139.3Z" transform="translate(4.12 -0.31)"/><path class="cls-1" d="M36.89,31.09a18.82,18.82,0,0,0-5,.63V32h.24c1,2,2.7,3.36,3.93,5.11,1,2,1.84,4,2.82,6l.24-.26c1.72-1.24,2.58-3.22,2.58-6.22A24.32,24.32,0,0,1,40.2,34C39.46,32.71,37.87,32.1,36.89,31.09Z" transform="translate(4.12 -0.31)"/></svg>