<svg xmlns="http://www.w3.org/2000/svg" xmlns:xlink="http://www.w3.org/1999/xlink" viewBox="0 0 2803.76 2800"><defs><style>.cls-1{opacity:0.3;fill:url(#linear-gradient);}.cls-2{opacity:0.74;fill:url(#linear-gradient-2);}.cls-3,.cls-6,.cls-8,.cls-9{fill:#fff;}.cls-3{opacity:0.43;}.cls-4{fill:url(#linear-gradient-3);}.cls-5{fill:url(#linear-gradient-4);}.cls-6{opacity:0.6;}.cls-7{fill:url(#linear-gradient-5);}.cls-8{opacity:0.61;}.cls-10{fill:url(#New_Gradient_Swatch_1);}.cls-11{fill:url(#New_Gradient_Swatch_19);}.cls-12{fill:url(#linear-gradient-6);}.cls-13{fill:url(#linear-gradient-7);}.cls-14{fill:url(#New_Gradient_Swatch_1-2);}.cls-15{fill:url(#linear-gradient-8);}.cls-16{fill:url(#New_Gradient_Swatch_1-3);}.cls-17{fill:url(#linear-gradient-9);}.cls-18{fill:url(#linear-gradient-10);}.cls-19{fill:url(#New_Gradient_Swatch_1-4);}.cls-20{fill:url(#linear-gradient-11);}.cls-21{fill:url(#linear-gradient-12);}.cls-22{fill:url(#New_Gradient_Swatch_14);}.cls-23{fill:url(#New_Gradient_Swatch_14-2);}.cls-24{fill:url(#linear-gradient-13);}.cls-25{fill:url(#linear-gradient-14);}.cls-26{fill:url(#New_Gradient_Swatch_1-5);}.cls-27{fill:url(#linear-gradient-15);}.cls-28{fill:url(#New_Gradient_Swatch_1-6);}.cls-29{fill:url(#New_Gradient_Swatch_1-7);}.cls-30{fill:url(#linear-gradient-16);}.cls-31{fill:url(#linear-gradient-17);}.cls-32{fill:url(#linear-gradient-18);}.cls-33{fill:url(#linear-gradient-19);}.cls-34{fill:url(#linear-gradient-20);}</style><linearGradient id="linear-gradient" x1="3598.59" y1="4076.81" x2="1110.28" y2="986.48" gradientUnits="userSpaceOnUse"><stop offset="0" stop-color="#b37cff"/><stop offset="1" stop-color="#f895e7"/></linearGradient><linearGradient id="linear-gradient-2" x1="3087.22" y1="2272.19" x2="1622.44" y2="4123.15" gradientTransform="matrix(1, -0.22, 0.35, 0.82, -788.1, 90.49)" xlink:href="#linear-gradient"/><linearGradient id="linear-gradient-3" x1="1958.96" y1="2206.72" x2="3207.44" y2="1029.28" gradientUnits="userSpaceOnUse"><stop offset="0" stop-color="#a737d5"/><stop offset="1" stop-color="#ef497a"/></linearGradient><linearGradient id="linear-gradient-4" x1="508.91" y1="3044.19" x2="4576.87" y2="-1620.4" gradientUnits="userSpaceOnUse"><stop offset="0" stop-color="#53d8ff"/><stop offset="1" stop-color="#3840f7"/></linearGradient><linearGradient id="linear-gradient-5" x1="1603.41" y1="-1026.02" x2="952.9" y2="966.83" xlink:href="#linear-gradient-4"/><linearGradient id="New_Gradient_Swatch_1" x1="2626.2" y1="1056.81" x2="2466.44" y2="1443.03" gradientTransform="translate(126.98 357.24) rotate(9.25)" gradientUnits="userSpaceOnUse"><stop offset="0" stop-color="#2b3582"/><stop offset="1" stop-color="#150e42"/></linearGradient><linearGradient id="New_Gradient_Swatch_19" x1="2449.01" y1="2225.53" x2="2521.76" y2="4426.26" gradientUnits="userSpaceOnUse"><stop offset="0" stop-color="#fdf53f"/><stop offset="1" stop-color="#d93c65"/></linearGradient><linearGradient id="linear-gradient-6" x1="2027.98" y1="2430.67" x2="2510" y2="3595.03" gradientUnits="userSpaceOnUse"><stop offset="0" stop-color="#f9b776"/><stop offset="1" stop-color="#f47960"/></linearGradient><linearGradient id="linear-gradient-7" x1="-7049.56" y1="2428.17" x2="-6567.54" y2="3592.53" gradientTransform="matrix(-1, 0, 0, 1, -4167.07, 0)" xlink:href="#linear-gradient-6"/><linearGradient id="New_Gradient_Swatch_1-2" x1="2003.03" y1="2125.8" x2="1977.94" y2="3141.98" gradientTransform="matrix(1, 0, 0, 1, 0, 0)" xlink:href="#New_Gradient_Swatch_1"/><linearGradient id="linear-gradient-8" x1="2506.44" y1="2369.93" x2="2331.81" y2="3532.1" xlink:href="#linear-gradient-4"/><linearGradient id="New_Gradient_Swatch_1-3" x1="2760.2" y1="3153.69" x2="3023.61" y2="3153.69" gradientTransform="translate(9.52 16.81) rotate(0.44)" xlink:href="#New_Gradient_Swatch_1"/><linearGradient id="linear-gradient-9" x1="3387.43" y1="2845.64" x2="2771.86" y2="3370.21" xlink:href="#linear-gradient-4"/><linearGradient id="linear-gradient-10" x1="2919.3" y1="2716.82" x2="2641.26" y2="3469.93" xlink:href="#linear-gradient-6"/><linearGradient id="New_Gradient_Swatch_1-4" x1="-6983.61" y1="3102.24" x2="-6720.09" y2="3102.24" gradientTransform="matrix(-1, -0.02, -0.02, 1, -4814, -50.84)" xlink:href="#New_Gradient_Swatch_1"/><linearGradient id="linear-gradient-11" x1="1499.82" y1="2295.06" x2="2002.99" y2="3515.51" xlink:href="#linear-gradient-4"/><linearGradient id="linear-gradient-12" x1="2362.24" y1="2489.87" x2="2084.05" y2="3243.38" xlink:href="#linear-gradient-6"/><linearGradient id="New_Gradient_Swatch_14" x1="3037.15" y1="2702.29" x2="2314.34" y2="3245.26" gradientUnits="userSpaceOnUse"><stop offset="0" stop-color="#7c27dd"/><stop offset="1" stop-color="#2b41d9"/></linearGradient><linearGradient id="New_Gradient_Swatch_14-2" x1="2383.86" y1="3189.14" x2="2194.42" y2="2706.07" xlink:href="#New_Gradient_Swatch_14"/><linearGradient id="linear-gradient-13" x1="2451.12" y1="2526.81" x2="2444.71" y2="1968.79" xlink:href="#linear-gradient-6"/><linearGradient id="linear-gradient-14" x1="2560.99" y1="1432.31" x2="2579.55" y2="981.14" gradientTransform="translate(126.98 357.24) rotate(9.25)" xlink:href="#linear-gradient-6"/><linearGradient id="New_Gradient_Swatch_1-5" x1="2616.41" y1="1052.5" x2="2458.06" y2="1435.33" xlink:href="#New_Gradient_Swatch_1"/><linearGradient id="linear-gradient-15" x1="2367.18" y1="2099.91" x2="2396.28" y2="1392.87" gradientTransform="translate(31.26 60.87) rotate(1.75)" xlink:href="#linear-gradient-6"/><linearGradient id="New_Gradient_Swatch_1-6" x1="1720.87" y1="884.45" x2="2182.64" y2="2462.58" gradientTransform="matrix(1, 0, 0, 1, 0, 0)" xlink:href="#New_Gradient_Swatch_1"/><linearGradient id="New_Gradient_Swatch_1-7" x1="1420.86" y1="384.65" x2="1882.62" y2="1962.78" gradientTransform="matrix(1, 0, 0, 1, 0, 0)" xlink:href="#New_Gradient_Swatch_1"/><linearGradient id="linear-gradient-16" x1="406.73" y1="4090.68" x2="922.53" y2="2075.48" gradientUnits="userSpaceOnUse"><stop offset="0" stop-color="#7a2ddb"/><stop offset="1" stop-color="#7077ff"/></linearGradient><linearGradient id="linear-gradient-17" x1="716.26" y1="2458.38" x2="937.52" y2="2458.38" gradientTransform="matrix(1, 0, 0, 1, 0, 0)" xlink:href="#New_Gradient_Swatch_1"/><linearGradient id="linear-gradient-18" x1="2972.01" y1="172.69" x2="1484.61" y2="1588.12" xlink:href="#linear-gradient-16"/><linearGradient id="linear-gradient-19" x1="1545.61" y1="3241.87" x2="1661.89" y2="2350.38" gradientTransform="matrix(0.97, 0.23, -0.23, 0.97, 198.94, -279.69)" xlink:href="#linear-gradient-3"/><linearGradient id="linear-gradient-20" x1="1529.02" y1="2615.56" x2="1715.94" y2="2615.56" gradientTransform="matrix(0.97, 0.23, -0.23, 0.97, 198.94, -279.69)" xlink:href="#New_Gradient_Swatch_1"/></defs><title>new-image</title><g id="Illustration"><path class="cls-1" d="M2914,2858.09c-57.15,60.17-111.23,99-154,129.63-502.25,360.38-1096.55,255.33-1222.86,229.68-186.51-37.88-547-111.11-807.69-417.63C335.18,2336,396.58,1605.4,702.47,1123.11c55.95-88.22,351.5-577.85,952.2-656.38,363.53-47.52,787.3,48.33,1094.18,305.43C3393,1311.85,3347.17,2402.11,2914,2858.09Z" transform="translate(-453.12 -455)"/><path class="cls-2" d="M3239.9,1142.58c-1.54-13.45-24.67-17.49-31.16-5.43C3146,1253.81,2969,1555,2746.41,1695.71c-362.48,229.15-644.5,646.68-475.37,909.66C2271,2605.37,3408.1,2608.8,3239.9,1142.58Z" transform="translate(-453.12 -455)"/><path class="cls-3" d="M3180.89,1313.58c-1.08,4.1-2.4,7.37-3.61,11l-3.87,10.54c-2.65,7-5.28,14-8,20.94-5.46,13.92-11.14,27.75-16.87,41.55-11.46,27.62-23.54,55-35.74,82.25q-37.09,81.66-78.44,161.31c-54.71,106.37-115.74,209.47-181.65,309.33-33.09,49.85-68.15,98.39-104.38,146l-27.66,35.35c-4.56,5.93-9.32,11.7-14.09,17.47l-14.27,17.32L2678,2184c-4.81,5.73-9.79,11.32-14.68,17-9.85,11.26-19.54,22.67-29.59,33.75q-60.36,66.49-126.38,127.5c-22.54,19.7-44.7,39.82-68.27,58.28-22.89,19.28-47.36,36.56-71.34,54.4a1.69,1.69,0,0,1-2-2.7l.05,0a1756.66,1756.66,0,0,0,136.84-115.09q64.88-61.55,124.36-128.41c39.29-44.82,77.37-90.71,113.45-138.18s70.45-96.2,103.75-145.67q49.57-74.44,95.23-151.44l22.58-38.62,22-39c14.49-26.07,28.9-52.18,42.82-78.57q41.94-79.07,80-160.13c12.62-27,25.13-54.13,37-81.5q8.92-20.52,17.53-41.17c2.89-6.88,5.67-13.8,8.47-20.71l4.08-10.4c1.26-3.43,2.71-7.1,3.66-10.2l.14-.45a1.67,1.67,0,0,1,3.21.92Z" transform="translate(-453.12 -455)"/><path class="cls-4" d="M3019.85,568c-2.78-15.38-24.38-16.81-29.1-1.9-45.59,144.07-177,518.09-366.57,712.62-308.72,316.74-524.48,840.47-342.68,1121.41C2281.5,2400.09,3323.64,2243.65,3019.85,568Z" transform="translate(-453.12 -455)"/><path class="cls-3" d="M2983.38,774.48c-.54,4.52-1.38,8.47-2.1,12.63l-2.39,12.31-5,24.55c-3.46,16.34-7.08,32.64-10.75,48.94q-11.16,48.84-23.43,97.43c-16.38,64.77-34.44,129.11-53.51,193.15s-39.67,127.62-61.64,190.73l-8.2,23.69-8.5,23.57c-5.74,15.69-11.2,31.49-17.2,47.08l-17.69,46.91-18.39,46.63c-49.7,124.09-105.92,245.7-170.56,362.81-3.93,7.37-8.11,14.62-12.33,21.83l-12.59,21.7-12.58,21.69c-4.29,7.17-8.76,14.24-13.13,21.37-8.87,14.17-17.4,28.55-26.54,42.55l-27.65,41.85c-37.91,55.09-78.25,108.54-122.14,159a1.69,1.69,0,0,1-2.58-2.19v0A1898.14,1898.14,0,0,0,2473.34,2072l27.12-42c9-14,17.32-28.47,26-42.68,4.28-7.15,8.66-14.23,12.86-21.43l12.31-21.75,12.32-21.75c4.13-7.23,8.22-14.49,12.07-21.88l23.59-44.07c7.78-14.73,15.15-29.68,22.74-44.51,3.74-7.45,7.59-14.84,11.25-22.32l10.83-22.53,10.82-22.53c3.64-7.5,7.22-15,10.62-22.63,28.2-60.41,54-121.92,79.17-183.64,49.9-123.68,93.44-249.88,133-377.28q29.5-95.61,55.29-192.34,13-48.31,24.93-96.91c3.93-16.22,7.81-32.44,11.52-48.7l5.42-24.41,2.57-12.23c.78-4,1.69-8.27,2.23-12l.06-.37a1.68,1.68,0,0,1,3.33.44Z" transform="translate(-453.12 -455)"/><path class="cls-5" d="M580.72,462.36H2700.26c57.79,0,104.34,66.26,103.29,147l-29.82,2298.5c-1.4,108.17-65.05,194.45-195.32,193.1L525.56,3065c-3.7-1-49.17-65.41-49.14-144.49l1-2313.81C477.44,527,523.69,462.36,580.72,462.36Z" transform="translate(-453.12 -455)"/><path class="cls-6" d="M627.46,524.6H2662.71c55.5,0,100.2,63,99.19,139.7l-28.63,2183.91c-1.35,102.78-62.46,184.76-136.78,183.47L625.27,2997.46c-54.32-.94-98-62.14-98-137.28l1-2198.45C528.29,586,572.7,524.6,627.46,524.6Z" transform="translate(-453.12 -455)"/><path class="cls-7" d="M100.1,62.76H2281.25a24.45,24.45,0,0,1,24.45,24.45V396.76a0,0,0,0,1,0,0H74.19a0,0,0,0,1,0,0V88.67A25.91,25.91,0,0,1,100.1,62.76Z"/><path class="cls-8" d="M2510.22,709.38l-1157.7-11c-27.29-.26-49.25-18.29-49.26-40.43v-38.6c0-17.09,17.06-31,38.12-31H2518.52c20.76,0,37.14,14.32,35.62,31.12l-5.56,61.25C2547.1,697.05,2530.3,709.57,2510.22,709.38Z" transform="translate(-453.12 -455)"/><path class="cls-6" d="M2656.27,1051.37H629.74a24.3,24.3,0,0,1-24.34-24.25V962.25A24.3,24.3,0,0,1,630,938l2026.53,17.85a24.3,24.3,0,0,1,24.13,24.25v47A24.3,24.3,0,0,1,2656.27,1051.37Z" transform="translate(-453.12 -455)"/><path class="cls-9" d="M1114.05,699.41a59.33,59.33,0,1,1,59.32-59.32A59.39,59.39,0,0,1,1114.05,699.41Zm0-111.88a52.56,52.56,0,1,0,52.56,52.56A52.62,52.62,0,0,0,1114.05,587.53Z" transform="translate(-453.12 -455)"/><path class="cls-9" d="M920.43,704a59.33,59.33,0,1,1,59.32-59.33A59.4,59.4,0,0,1,920.43,704Zm0-111.88A52.56,52.56,0,1,0,973,644.62,52.61,52.61,0,0,0,920.43,592.07Z" transform="translate(-453.12 -455)"/><path class="cls-9" d="M734.38,704a59.33,59.33,0,1,1,59.33-59.33A59.39,59.39,0,0,1,734.38,704Zm0-111.88a52.56,52.56,0,1,0,52.56,52.55A52.61,52.61,0,0,0,734.38,592.07Z" transform="translate(-453.12 -455)"/><path class="cls-6" d="M1855.19,1247l-379-3.15a21.5,21.5,0,0,1-21.32-21.68l.08-10.57a21.51,21.51,0,0,1,21-21.32l379.12-9.38a21.51,21.51,0,0,1,22,21.67l-.19,23.1A21.51,21.51,0,0,1,1855.19,1247Z" transform="translate(-453.12 -455)"/><path class="cls-6" d="M1936.87,1935.67l-558-4.64a34.13,34.13,0,0,1-33.85-34.42l4.64-558.89a34.16,34.16,0,0,1,33.55-33.86l551,10.46a42.57,42.57,0,0,1,41.76,42.93l-4.69,544.56A34.14,34.14,0,0,1,1936.87,1935.67Z" transform="translate(-453.12 -455)"/><path class="cls-6" d="M1150.09,1247l-379-3.15a21.5,21.5,0,0,1-21.32-21.68l.09-10.57a21.5,21.5,0,0,1,21-21.32l379.13-9.38a21.5,21.5,0,0,1,22,21.67l-.19,23.1A21.51,21.51,0,0,1,1150.09,1247Z" transform="translate(-453.12 -455)"/><path class="cls-6" d="M1231.77,1935.67l-558-4.64a34.13,34.13,0,0,1-33.86-34.42l4.64-558.89a34.16,34.16,0,0,1,33.55-33.86l551,10.46a42.57,42.57,0,0,1,41.76,42.93l-4.69,544.56A34.14,34.14,0,0,1,1231.77,1935.67Z" transform="translate(-453.12 -455)"/><path class="cls-6" d="M2562.37,1260.17l-379-3.15a21.5,21.5,0,0,1-21.33-21.67l.09-10.57a21.51,21.51,0,0,1,21-21.32l379.12-9.38a21.51,21.51,0,0,1,22,21.67l-.2,23.1A21.49,21.49,0,0,1,2562.37,1260.17Z" transform="translate(-453.12 -455)"/><path class="cls-6" d="M2644.06,1948.89l-558-4.64a34.16,34.16,0,0,1-33.86-34.43l4.65-558.88a34.14,34.14,0,0,1,33.54-33.86l551,10.46a42.57,42.57,0,0,1,41.77,42.93L2678.49,1915A34.15,34.15,0,0,1,2644.06,1948.89Z" transform="translate(-453.12 -455)"/><rect class="cls-6" x="210.78" y="1579.16" width="2009.61" height="98.67" rx="8.99"/><rect class="cls-6" x="215.17" y="1734.88" width="2009.61" height="98.67" rx="8.99"/><rect class="cls-6" x="200.38" y="1910.11" width="2009.61" height="98.67" rx="8.99"/><rect class="cls-6" x="204.76" y="2065.83" width="2009.61" height="98.67" rx="8.99"/><rect class="cls-6" x="200.38" y="2230.19" width="2009.61" height="98.67" rx="8.99"/><path class="cls-10" d="M2359.5,1882.34c-1.14,2.16-35.69,26.51-35.69,26.51s-24,132.25,20,197.36S2538,2055.39,2538,2055.39s84.42-13.2,126.83-179.2c9.73-38.08-51.11-9.14-118.89-2.13C2458.51,1883.11,2359.5,1882.34,2359.5,1882.34Z" transform="translate(-453.12 -455)"/><path class="cls-11" d="M2209.66,2296.92a310.06,310.06,0,0,1,94.25-43.84c12.66-3.45,81,16.42,123.27,15.45,58-1.34,117.05-27.73,164.86-15.82,47.49,11.84,86.36,27.29,108.81,43.26,67.18,47.78,106.62,136.87,130.66,225.12-45.52,46.73-102.79,67.49-102.79,67.49l-10.59,429-253.65,129.78L2175,3002l10.37-419.21s-91.94-42.81-98.69-58.39S2128.55,2352.69,2209.66,2296.92Z" transform="translate(-453.12 -455)"/><path class="cls-12" d="M2090.93,2522.51s-123.2,341.56,157.74,481.94c58.33-7.75,35.9-104.63,35.9-104.63s-122.07-27-85.41-311.94C2165.4,2560.11,2090.93,2522.51,2090.93,2522.51Z" transform="translate(-453.12 -455)"/><path class="cls-13" d="M2825.58,2522.51s84.78,356.54-157.74,481.94c-58.33-7.75-35.9-104.63-35.9-104.63s98.39-48.45,85.41-311.94C2751.11,2560.11,2825.58,2522.51,2825.58,2522.51Z" transform="translate(-453.12 -455)"/><rect class="cls-14" x="1718.5" y="2197.79" width="556.24" height="375.65" rx="5.05"/><path class="cls-15" d="M2482.55,2754.52c2.94,19.93-7.73,38-27.66,41a36.49,36.49,0,0,1-41.43-30.75c-2.95-19.93,6.18-39.72,26.1-42.67S2479.6,2734.59,2482.55,2754.52Z" transform="translate(-453.12 -455)"/><path class="cls-16" d="M2971.83,3139.81c-63.66-14.62-210.78-6.76-210.78-6.76l-6,16.21-9.91,80.55s140.11,25.25,209.18,25.19a64.9,64.9,0,0,0,19.38-2.9c2.1-1.89,4.16-3.85,6.11-6C3009.12,3214.13,3000.66,3167.12,2971.83,3139.81Z" transform="translate(-453.12 -455)"/><path class="cls-17" d="M2978.14,3141.4c-2-.56-4.11-1.09-6.31-1.59,28.83,27.31,37.29,74.32,8,106.32-2,2.12-4,4.08-6.11,6C3025.52,3236,3031.65,3156.46,2978.14,3141.4Z" transform="translate(-453.12 -455)"/><path class="cls-18" d="M2718.77,3128.51l24.92,1.07c13.38.57,26,7.09,35,18.09a59.11,59.11,0,0,1,12.85,40.39,46.46,46.46,0,0,1-13.49,30.73,37.72,37.72,0,0,1-29.15,11.07l-38.12-2.71Z" transform="translate(-453.12 -455)"/><path class="cls-19" d="M1881.06,3132.06c64-12.66,210.87-.29,210.87-.29l5.58,16.38,7.89,80.83s-140.69,20.94-209.72,18.76a64.85,64.85,0,0,1-19.3-3.49,84.77,84.77,0,0,1-6-6.16C1841.93,3205.21,1851.56,3158.48,1881.06,3132.06Z" transform="translate(-453.12 -455)"/><path class="cls-20" d="M1874.71,3133.46c2-.5,4.13-1,6.35-1.4-29.5,26.42-39.13,73.15-10.64,106a84.77,84.77,0,0,0,6,6.16C1825,3226.55,1820.84,3146.87,1874.71,3133.46Z" transform="translate(-453.12 -455)"/><path class="cls-21" d="M2134.3,3128.53l-24.93.3c-13.39.16-26.17,6.3-35.44,17a58.74,58.74,0,0,0-13.84,40A46.78,46.78,0,0,0,2072.8,3217a37.94,37.94,0,0,0,28.86,12l38.17-1.54Z" transform="translate(-453.12 -455)"/><path class="cls-22" d="M2989.63,2887.28c-28.87-66.44-99.47-77.22-159.57-46.16-1,1.38-381.63,196.43-717.27,281.92,9.61,30.81,14.55,63.58,15.63,95.8q.28,10.77-.35,21.24c257.38-13.22,536.72-99.06,776.76-174.49C2979.26,3041.59,3021.63,2960.92,2989.63,2887.28Z" transform="translate(-453.12 -455)"/><path class="cls-23" d="M2720.6,3223.89q-1.5-55.71,21.66-103.71c.44-1.47,1-2.87,1.44-4.32-19.17-5.94-43.93-14-76.46-25-238.33-81.56-420.15-163.92-593.68-258.72-67.41-36.83-144.06-12.15-165.64,67.62-19.27,71.21,24.45,128.14,87.24,153.37C2211,3139.81,2528.11,3219,2721,3232,2720.86,3229.28,2720.69,3226.58,2720.6,3223.89Z" transform="translate(-453.12 -455)"/><path class="cls-24" d="M2303.91,2253.08s25.63,111.07,150.08,108.77c126.75-2.31,138.05-109.14,138.05-109.14l-82.8-17.72-6.92-92.25L2377.78,2152l-2.31,87.65Z" transform="translate(-453.12 -455)"/><path class="cls-25" d="M2389.74,1870.81S2257.12,2127.7,2414.43,2190c111,44,180.54-170.59,159.79-228.7-32.09-89.85-53.22-79.19-53.22-79.19Z" transform="translate(-453.12 -455)"/><path class="cls-9" d="M2574.22,1961.32c-.38-1-.7-2-1-2.85.51,4.74.78,9.68.84,14.77.2-3.62.37-7.25.49-10.88C2574.44,1962,2574.34,1961.65,2574.22,1961.32Z" transform="translate(-453.12 -455)"/><path class="cls-9" d="M2573.22,1958.47c-.19-1.75-.39-3.49-.65-5.2C2579.4,1964.64,2566.27,1938.15,2573.22,1958.47Z" transform="translate(-453.12 -455)"/><path class="cls-26" d="M2635.61,1801.84c71.06-16.16,21.74,203.65-84.05,167.61s-155.08-58.17-171.56-29.12-44,147.87-53.09,86.26c-8.53-57.58-16.79-163.11,38.8-186.14,31.56-13.08,59.31,15.26,81.07,8.17,33.49-10.93,65.75-11.29,85.65.18C2570.07,1870.5,2590.45,1812.12,2635.61,1801.84Z" transform="translate(-453.12 -455)"/><path class="cls-27" d="M2368.17,1983.07s-22.94-34.64-33.4.81-3.81,84.42,17.21,61.65S2368.17,1983.07,2368.17,1983.07Z" transform="translate(-453.12 -455)"/><path class="cls-28" d="M2375.37,1702.43H1381.21a79.51,79.51,0,0,1-79.51-79.51V1190.11a79.51,79.51,0,0,1,82-79.47l994.16,31.8a79.51,79.51,0,0,1,77,79.47v401A79.51,79.51,0,0,1,2375.37,1702.43Z" transform="translate(-453.12 -455)"/><polygon class="cls-29" points="1580.78 1244.16 1712.88 1403.79 1763.93 1244.16 1580.78 1244.16"/><path class="cls-9" d="M1756.36,1537.93,1534,1422.78v-36.51l222.32-115.89V1330l-151.83,74,151.83,74.53Z" transform="translate(-453.12 -455)"/><path class="cls-9" d="M1973.92,1236.9l-114,352.36-59.24-.51,115.72-355Z" transform="translate(-453.12 -455)"/><path class="cls-9" d="M2015,1484.35l137.11-63.3L2015,1340.57v-57.7l197.48,125.76v33.51L2015,1541.81Z" transform="translate(-453.12 -455)"/><path class="cls-30" d="M923.43,2268.07c-17.31-36.06-29.68-73.8-32.57-114.89-7.28-103.55,52.91-198.9,97.13-288,40.64-81.94,70.85-204-66.28-193.16C812.46,1680.63,684,1789.51,669.36,1903c-17.34,134.37,48.08,303.81-29.48,425.87-108.5,170.75-186.76,131.62-186.76,419.76,0,123.12,68.2,191,146.31,228.45A326.9,326.9,0,0,0,968,2917.23c86.78-84,138.38-204.72,120.93-325.93C1071.28,2468.88,975.26,2376,923.43,2268.07Z" transform="translate(-453.12 -455)"/><path class="cls-31" d="M831.76,3195.73a5.07,5.07,0,0,1-4.92-3.84c-68-271.38-105-517.39-110-731.2-4-171.27,12.4-322.42,48.76-449.26,62.16-216.87,159.82-286.63,163.94-289.5a5.08,5.08,0,0,1,5.79,8.34c-1,.69-99.34,71.28-160.36,285.3-56.43,197.9-91.53,562.2,61.71,1173.85a5.08,5.08,0,0,1-3.69,6.16A5.26,5.26,0,0,1,831.76,3195.73Z" transform="translate(-453.12 -455)"/><path class="cls-32" d="M1032.29,1964.3a45.85,45.85,0,0,0-17.27-1.17c-34.17,3.93-48.21,40-58.25,68.15-8.6,24.14-18.73,53.43-13.65,79.57,5.49,28.27,35.51,51.32,57.29,22.62,24.75-32.62,61.9-82.7,62.13-125.93C1062.65,1986.06,1050.59,1969.27,1032.29,1964.3Z" transform="translate(-453.12 -455)"/><path class="cls-33" d="M1409.61,2728.91C1425.09,2627,1388,2510,1369.55,2402.18c-9.77-57-14.3-113.55-5.14-171,9.1-57.08,35.92-118.82,11.19-175.7-49.83-114.58-168.3-62.43-236.16,23.82C1060.7,2179.44,1039.17,2343,1009.26,2469c-18,75.92-45.19,153.81-54.7,231.18-15.76,128.18,13.22,217.16,74.54,277.26a185.57,185.57,0,0,0,220.32,29.53C1314.41,2970.73,1384.65,2893.34,1409.61,2728.91Z" transform="translate(-453.12 -455)"/><path class="cls-34" d="M1138.6,3203a5.09,5.09,0,0,1-5-4.24c-.26-1.54-26-157.06-26.71-371.65-.62-198.14,20.63-488.68,125.38-747.69a5.07,5.07,0,0,1,9.41,3.8c-104.11,257.42-125.24,546.49-124.64,743.66.66,213.81,26.31,368.66,26.57,370.2a5.09,5.09,0,0,1-4.16,5.85A6.22,6.22,0,0,1,1138.6,3203Z" transform="translate(-453.12 -455)"/></g></svg>