<svg id="Layer_1" data-name="Layer 1" xmlns="http://www.w3.org/2000/svg" xmlns:xlink="http://www.w3.org/1999/xlink" viewBox="0 0 183.05 180"><defs><style>.cls-1{fill:url(#linear-gradient);}.cls-2{fill:url(#linear-gradient-2);}.cls-3{fill:url(#linear-gradient-3);}.cls-4{fill:url(#linear-gradient-4);}</style><linearGradient id="linear-gradient" x1="258.96" y1="-114.6" x2="329.13" y2="-262.87" gradientTransform="matrix(1, 0, 0, -1, -216, -124)" gradientUnits="userSpaceOnUse"><stop offset="0" stop-color="#a5c8ea"/><stop offset="0.39" stop-color="#a5c8ea"/><stop offset="0.58" stop-color="#95bfe6"/><stop offset="0.78" stop-color="#8bb9e3"/><stop offset="1" stop-color="#88b7e2"/></linearGradient><linearGradient id="linear-gradient-2" x1="283.87" y1="-140.45" x2="323.53" y2="-272.25" gradientTransform="matrix(1, 0, 0, -1, -216, -124)" gradientUnits="userSpaceOnUse"><stop offset="0" stop-color="#1e1854"/><stop offset="1" stop-color="#120f31"/></linearGradient><linearGradient id="linear-gradient-3" x1="237.13" y1="-122.49" x2="307.3" y2="-270.76" xlink:href="#linear-gradient"/><linearGradient id="linear-gradient-4" x1="277.1" y1="-103.13" x2="347.55" y2="-251.99" xlink:href="#linear-gradient"/></defs><title>photoshop</title><path class="cls-1" d="M-1.53,0H181.53V180H-1.53Z" transform="translate(1.53)"/><path class="cls-2" d="M13,14.31H167V165.69H13Z" transform="translate(1.53)"/><path class="cls-3" d="M42.71,50.73s11.57-.3,21.1-.3,16.49,2.26,21.1,6.24c4.41,3.76,7.38,10.17,7.38,17.47S90,87.41,85.93,91.61c-5.32,5.42-11.53,8.63-22.12,9.07-2.92.13-5.63.16-5.63.16v23.72H42.71Zm15.47,37a42.86,42.86,0,0,0,5.22.06c8.3-.1,13.42-5.15,13.42-12.78,0-6.85-4.22-12.48-12.19-12.77-3.17-.12-6.45,0-6.45,0Z" transform="translate(1.53)"/><path class="cls-4" d="M98.19,108c3.12,1.92,10.47,4.78,15.49,4.78s7.24-1.8,7.24-4.62-1.67-5.78-8-7.92c-11.26-3.83-15.6-8.42-15.49-14.83,0-10.37,8.69-18.15,22.17-18.15a32.44,32.44,0,0,1,14.76,3.77V83.5c-2.45-1.35-9.53-4.37-14.2-4.37-4.13,0-6.47,1.69-6.47,4.5,0,2.59,2.12,4,8.81,6.31,10.35,3.61,14.7,8.9,14.81,17,0,10.26-7.91,18.41-23.62,17.92a37.14,37.14,0,0,1-15.48-4.56Z" transform="translate(1.53)"/></svg>