<svg id="Layer_1" data-name="Layer 1" xmlns="http://www.w3.org/2000/svg" viewBox="0 0 358.03 181.44"><defs><style>.cls-1{fill:#6e81b6;}.cls-1,.cls-2,.cls-3{fill-rule:evenodd;}.cls-2{fill:#fff;}</style></defs><title>php</title><path class="cls-1" d="M90,181.73c98.89,0,179-40.62,179-90.72S188.89.29,90,.29-89,40.9-89,91-8.85,181.73,90,181.73Z" transform="translate(89.02 -0.29)"/><path class="cls-2" d="M126.28,120.33l8.88-45.7c2-10.32.33-18-5-22.87-5.12-4.7-13.82-7-26.57-7H88.23l4.4-22.64a2.52,2.52,0,0,0,0-1.28A2.63,2.63,0,0,0,92,19.72a2.57,2.57,0,0,0-1-.78,2.89,2.89,0,0,0-1.25-.28H68.57A2.89,2.89,0,0,0,65.71,21L56.25,69.53a27.5,27.5,0,0,0-6.33-14c-6.23-7.12-16.08-10.73-29.29-10.73H-20.51a2.9,2.9,0,0,0-2.83,2.35l-19.08,98.21a2.79,2.79,0,0,0,.61,2.4,2.83,2.83,0,0,0,2.22,1.07h21.41a2.92,2.92,0,0,0,2.86-2.36l4.62-23.76H5.2c8.38,0,15.39-.9,20.87-2.69a41,41,0,0,0,15.33-9.17,47.19,47.19,0,0,0,9-11.23l-3.8,19.63a2.79,2.79,0,0,0,.61,2.4,2.86,2.86,0,0,0,2.22,1.06H70.68a2.91,2.91,0,0,0,2.87-2.35L84,66.42H98.57c6.23,0,8.06,1.23,8.52,1.76s1.4,2.2.36,7.58L99,119.21a3,3,0,0,0,0,1.27,2.73,2.73,0,0,0,.57,1.14,3,3,0,0,0,1,.78,3.08,3.08,0,0,0,1.26.28h21.55a2.94,2.94,0,0,0,1.86-.66A3.09,3.09,0,0,0,126.28,120.33ZM27.86,82.57C26.54,89.42,24,94.3,20.41,97.09s-9.55,4.28-17.5,4.28H-6.58L.29,66.09H12.54c9,0,12.64,1.92,14.1,3.54C28.65,71.86,29.08,76.34,27.86,82.57ZM215.68,55.5c-6.22-7.12-16.07-10.73-29.28-10.73H145.26a2.87,2.87,0,0,0-2.83,2.35l-19.08,98.21a2.76,2.76,0,0,0,.61,2.4,2.82,2.82,0,0,0,2.22,1.07h21.41a2.93,2.93,0,0,0,2.86-2.36l4.62-23.76H171c8.38,0,15.39-.9,20.87-2.69a40.5,40.5,0,0,0,15.29-9.17,47.14,47.14,0,0,0,9.31-11.62,47.78,47.78,0,0,0,5.05-14C223.88,72.67,222,62.68,215.68,55.5ZM194.85,82.57c-1.33,6.85-3.83,11.73-7.45,14.52s-9.59,4.28-17.51,4.28h-9.48l6.87-35.28h12.24c9,0,12.64,1.92,14.11,3.54C195.64,71.86,196.06,76.34,194.85,82.57Z" transform="translate(89.02 -0.29)"/><path class="cls-3" d="M11.93,63.18q12.2,0,16.26,4.5t1.93,15.45Q27.92,94.52,21.57,99.4T2.3,104.28h-13l8-41.1Zm-52.13,82.7h21.41l5.09-26.1H4.59q12.15,0,20-2.55a37.93,37.93,0,0,0,14.25-8.55,43.86,43.86,0,0,0,8.7-10.9,44,44,0,0,0,4.73-13.15q3.38-17.47-5.12-27.21T20,47.68H-21.11ZM68,21.57H89.16l-5,26.11H103q17.82,0,24.59,6.22c4.55,4.15,5.88,10.88,4.09,20.18l-8.88,45.7H101.26l8.45-43.46q1.4-7.41-1.07-10.11T98,63.51H81l-11,56.27H48.85Zm111,41.61c8.13,0,13.53,1.5,16.25,4.5s3.33,8.15,1.94,15.45q-2.21,11.39-8.56,16.27t-19.26,4.88h-13l8-41.1Zm-52.13,82.7H148.2l5.05-26.1h18.33q12.13,0,20-2.55a37.86,37.86,0,0,0,14.21-8.55,43.86,43.86,0,0,0,8.7-10.9,44.9,44.9,0,0,0,4.76-13.15q3.39-17.47-5.12-27.21T187,47.68H145.87Z" transform="translate(89.02 -0.29)"/></svg>