<svg id="Layer_1" data-name="Layer 1" xmlns="http://www.w3.org/2000/svg" viewBox="0 0 178.01 178"><defs><style>.cls-1{fill:#f36c3d;}.cls-2{fill:#fff;}</style></defs><title>postman</title><path class="cls-1" d="M160.44,35.6a89,89,0,1,0-16,124.84,89,89,0,0,0,16-124.84Z" transform="translate(-0.99 -1)"/><path class="cls-2" d="M120,57.71,82.49,95.53,71.88,84.64C108.82,47.7,112.53,51,120,57.71Z" transform="translate(-0.99 -1)"/><path class="cls-1" d="M82.49,96.57a1.31,1.31,0,0,1-.89-.38L70.92,85.51a1.29,1.29,0,0,1-.38-.93,1.36,1.36,0,0,1,.38-.92c36.42-36.4,41.39-34.71,50-26.92a1.3,1.3,0,0,1,.34.43,1.24,1.24,0,0,1,.1.54,1,1,0,0,1-.37,1L83.45,96.21a1.4,1.4,0,0,1-1,.36ZM73.74,84.62l8.75,8.76,35.6-35.6A8,8,0,0,0,107.56,56C101.11,58.9,90.72,67.71,73.74,84.62Z" transform="translate(-0.99 -1)"/><path class="cls-2" d="M93.25,106,83,95.53l37.53-37.08c10.09,9.86-4.9,26.33-27.29,47.53Z" transform="translate(-0.99 -1)"/><path class="cls-1" d="M93.25,107.33a1.67,1.67,0,0,1-.9-.37L81.9,96.73a1.56,1.56,0,0,1,0-1.2,1.44,1.44,0,0,1,0-1l37.53-37.52a1.35,1.35,0,0,1,1.92,0,11.2,11.2,0,0,1,2.82,4,11.49,11.49,0,0,1,.89,4.81c0,10-11.42,22.62-30.85,41a1.58,1.58,0,0,1-1,.44Zm-8.31-11.8,8.38,8.39c14.83-14,29-28.48,29.07-38.28a8.41,8.41,0,0,0-1.93-5.71Z" transform="translate(-0.99 -1)"/><path class="cls-2" d="M72.18,84.85l7.42,7.42a.58.58,0,0,1,.11.15.65.65,0,0,1,0,.19.41.41,0,0,1-.15.32L64,96.28a1.39,1.39,0,0,1-.94-.11,1.49,1.49,0,0,1-.84-1.58,1.53,1.53,0,0,1,.44-.84l9.12-9A.78.78,0,0,1,72.18,84.85Z" transform="translate(-0.99 -1)"/><path class="cls-1" d="M63.58,97.76a2.8,2.8,0,0,1-1.41-.39,2.75,2.75,0,0,1-1-1A2.8,2.8,0,0,1,61.65,93l9.05-9.12a1.83,1.83,0,0,1,1.18-.46,1.86,1.86,0,0,1,1.19.46l7.42,7.42a1.61,1.61,0,0,1,.44,1.62,1.74,1.74,0,0,1-1.26,1.2L64,97.47Zm8.3-11.27L63.5,94.87l13.88-3Z" transform="translate(-0.99 -1)"/><path class="cls-2" d="M140,36.86a14.39,14.39,0,1,0-2.59,22.7L127.29,49.48Z" transform="translate(-0.99 -1)"/><path class="cls-1" d="M130,63A15.74,15.74,0,0,1,119,36.2a15.85,15.85,0,0,1,22.25,0,1.25,1.25,0,0,1,.44,1,1.49,1.49,0,0,1-.11.54,1.34,1.34,0,0,1-.33.42l-12,11.36,9.13,9a1.46,1.46,0,0,1,.32.52,1.3,1.3,0,0,1,.05.59,1.5,1.5,0,0,1-.19.55,1.3,1.3,0,0,1-.41.43A16.13,16.13,0,0,1,129.94,63Zm0-28.78A13,13,0,0,0,127.54,60a12.83,12.83,0,0,0,7.61-.86l-8.75-8.74a1.27,1.27,0,0,1-.33-.43,1.13,1.13,0,0,1-.12-.51,1.08,1.08,0,0,1,.12-.5,1.5,1.5,0,0,1,.33-.43L138,36.93a13.32,13.32,0,0,0-8-2.74Z" transform="translate(-0.99 -1)"/><path class="cls-2" d="M140.2,37.09l-12.69,12.6,10.09,10.1a15.55,15.55,0,0,0,2.82-2.08,14.83,14.83,0,0,0-.22-20.62Z" transform="translate(-0.99 -1)"/><path class="cls-1" d="M137.38,60.89a1.15,1.15,0,0,1-.49-.07,1.2,1.2,0,0,1-.4-.3L126.4,50.44a1.3,1.3,0,0,1-.33-.41,1.17,1.17,0,0,1,0-1,1.2,1.2,0,0,1,.33-.41L139,36.2a1.29,1.29,0,0,1,.49-.44,1.33,1.33,0,0,1,1.74.44,15.33,15.33,0,0,1,3.46,5.09,15.57,15.57,0,0,1-3.46,17.16,13.07,13.07,0,0,1-3,2.37,1.19,1.19,0,0,1-.89.07Zm-8.16-11.41,8.38,8.37a11.49,11.49,0,0,0,1.63-1.34,13.12,13.12,0,0,0,3.86-9.25,12.76,12.76,0,0,0-3.19-8.46Z" transform="translate(-0.99 -1)"/><path class="cls-2" d="M121.58,59.27a5.39,5.39,0,0,0-7.42,0L80.56,92.79l5.56,5.63,35.53-31.16a5.3,5.3,0,0,0,1.26-1.83,5.36,5.36,0,0,0,.44-2.17,5.46,5.46,0,0,0-.48-2.19,5.36,5.36,0,0,0-1.29-1.8Z" transform="translate(-0.99 -1)"/><path class="cls-1" d="M85.83,99.77a1.38,1.38,0,0,1-.89-.37L79.3,93.75a1.34,1.34,0,0,1-.38-.92,1.36,1.36,0,0,1,.38-.93l33.6-33.45a6.76,6.76,0,0,1,3.55-1.88,6.82,6.82,0,0,1,7,3.06,6.71,6.71,0,0,1,1.05,3.86,7,7,0,0,1-.65,2.69,7.28,7.28,0,0,1-1.64,2.21L86.72,99.54a1.23,1.23,0,0,1-.89.21Zm-3.93-7,3.7,3.78,34.86-30.34a4,4,0,0,0,1.41-3,3.9,3.9,0,0,0-1.26-3,4.15,4.15,0,0,0-5.86,0Z" transform="translate(-0.99 -1)"/><path class="cls-2" d="M54.53,131a.74.74,0,0,0,0,.89L56,138.33a1.91,1.91,0,0,1-.92,1.95,2,2,0,0,1-1.1.24,1.83,1.83,0,0,1-1-.45l-10.16-9.79L74.48,98.35h11l7.41,7.42A168.74,168.74,0,0,1,54.53,131Z" transform="translate(-0.99 -1)"/><path class="cls-1" d="M53.86,141.89a3.13,3.13,0,0,1-2.22-1l-9.72-9.72a1.2,1.2,0,0,1-.33-.41,1.19,1.19,0,0,1,0-1,1.08,1.08,0,0,1,.33-.4l31.89-32a1.39,1.39,0,0,1,.67-.37h11a1.5,1.5,0,0,1,.89,0l7.42,7.42a1.24,1.24,0,0,1,.31.48,1.2,1.2,0,0,1,.06.56,1.17,1.17,0,0,1-.11.53,1.14,1.14,0,0,1-.34.44l-.59.52a182.89,182.89,0,0,1-38.05,24.41l1.41,6a3.15,3.15,0,0,1,0,1.4,3.07,3.07,0,0,1-.59,1.28,3.18,3.18,0,0,1-1.09.91,3.42,3.42,0,0,1-1.37.34Zm-9-11.64,8.75,8.82a.41.41,0,0,0,.3.11.43.43,0,0,0,.3-.11.5.5,0,0,0,.08-.26.44.44,0,0,0-.08-.25l-1.49-6.46a2.08,2.08,0,0,1,.14-1.39,2,2,0,0,1,1-1,183.34,183.34,0,0,0,37.08-23.89l-6.08-6.09H74.85Z" transform="translate(-0.99 -1)"/><path class="cls-2" d="M35.17,137.88l7.42-7.42L54,141.89l-18.17-1.27a1.42,1.42,0,0,1-.85-.34,1.63,1.63,0,0,1-.48-.78,1.5,1.5,0,0,1,.07-.91,1.58,1.58,0,0,1,.59-.71Z" transform="translate(-0.99 -1)"/><path class="cls-1" d="M54.23,143l-18.1-1.27A2.82,2.82,0,0,1,34.35,137l7.42-7.42a1.39,1.39,0,0,1,.93-.38,1.41,1.41,0,0,1,.93.38L55,140.93a1.23,1.23,0,0,1,.24.74,1.18,1.18,0,0,1-.24.73,1.39,1.39,0,0,1-.74.61Zm-18.1-4.17,14.84,1-8.16-7.65Z" transform="translate(-0.99 -1)"/><path class="cls-2" d="M86.49,99.25l-15,2.3L80.19,93Z" transform="translate(-0.99 -1)"/><path class="cls-1" d="M71.51,103a1.42,1.42,0,0,1-.7-.2,1.3,1.3,0,0,1-.49-.55,1.34,1.34,0,0,1-.24-.75,1.25,1.25,0,0,1,.24-.73L78.93,92a1.43,1.43,0,0,1,1.92,0l6.31,6.31a1.17,1.17,0,0,1,.19.67,1.21,1.21,0,0,1-.19.66,1.28,1.28,0,0,1-.38.64,1.11,1.11,0,0,1-.66.32L71.29,103Zm8.68-8.1-4.82,4.82,8.31-1.26Z" transform="translate(-0.99 -1)"/><path class="cls-2" d="M86.49,99.24,76,100.57a1.34,1.34,0,0,1-.84-.07,1.43,1.43,0,0,1-.62-.57,1.3,1.3,0,0,1-.16-.82,1.32,1.32,0,0,1,.36-.76l5.41-5.42Z" transform="translate(-0.99 -1)"/><path class="cls-1" d="M75.74,102a2.82,2.82,0,0,1-1.38-.39,2.72,2.72,0,0,1-1-1,2.6,2.6,0,0,1-.32-1.66,2.75,2.75,0,0,1,.76-1.53L79.23,92a1.43,1.43,0,0,1,1.92,0l6.31,6.3a1.35,1.35,0,0,1,.34,1.43,1.38,1.38,0,0,1-.45.6,1.29,1.29,0,0,1-.7.27l-10.39,1.34Zm0-2.75,7.86-1-3.48-3.48-4.45,4.45Zm64.53-53.62a1.18,1.18,0,0,0-.62-.5,1.26,1.26,0,0,0-.79.05,1.11,1.11,0,0,0-.32.25,1,1,0,0,0-.13,1.16,3.21,3.21,0,0,1-.37,3.35.81.81,0,0,0-.21.32,1,1,0,0,0-.07.37,1.12,1.12,0,0,0,.28.71.88.88,0,0,0,.6,0,.92.92,0,0,0,.52,0,1.07,1.07,0,0,0,.44-.28,5.1,5.1,0,0,0,.67-5.41Z" transform="translate(-0.99 -1)"/></svg>