<svg id="Layer_1" data-name="Layer 1" xmlns="http://www.w3.org/2000/svg" viewBox="0 0 180 134.99"><defs><style>.cls-1{fill:#cd6799;}</style></defs><title>sass</title><path class="cls-1" d="M155,104.26a37.28,37.28,0,0,0-16.31,3.79c-1.68-3.33-3.35-6.28-3.64-8.46a22.16,22.16,0,0,1-.34-7.1c.39-3,2.18-7.33,2.14-7.66s-.4-1.87-4-1.9-6.74.69-7.1,1.64a38.19,38.19,0,0,0-1.51,5.36c-.63,3.29-7.23,15-11,21.17a20.31,20.31,0,0,1-2.83-13.28c.4-3,2.16-7.33,2.12-7.66s-.39-1.88-4-1.91-6.75.69-7.11,1.65-.76,3.19-1.51,5.35S90.36,117,88.05,122.08c-1.17,2.6-2.2,4.67-2.92,6.09a1.44,1.44,0,0,1-.12.26c-.63,1.22-1,1.87-1,1.87v0c-.51.88-1,1.71-1.3,1.71s-.56-2.37.07-5.59c1.32-6.81,4.45-17.4,4.42-17.76,0-.2.59-2-2-3a3.3,3.3,0,0,0-3.73.63c-.23,0-.39.55-.39.55S83.91,95,75.59,95c-5.18,0-12.36,5.69-15.91,10.82-2.23,1.21-7,3.81-12.09,6.61-2,1.08-4,2.17-5.82,3.19-.14-.13-.27-.3-.39-.43C31.31,104.43,12.7,96.83,13.49,82.4c.29-5.26,2.11-19.07,35.73-35.84,27.69-13.64,49.72-9.86,53.54-1.48,5.45,12-11.81,34.19-40.41,37.42-10.91,1.21-16.64-3-18.09-4.57S42.53,76.19,42,76.51c-.94.5-.34,2,0,2.83.85,2.24,4.37,6.18,10.31,8.12,5.26,1.71,18.06,2.67,33.54-3.32,17.33-6.7,30.87-25.35,26.89-41-4-15.84-30.28-21.07-55.17-12.23C42.74,36.2,26.7,44.49,15.17,55.27,1.45,68.1-.71,79.24.17,83.91c3.19,16.57,26.05,27.36,35.17,35.35L34.1,120c-4.57,2.27-22,11.37-26.33,21-4.93,10.91.79,18.74,4.57,19.79,11.74,3.25,23.8-2.6,30.28-12.26s5.69-22.23,2.7-28a.86.86,0,0,0-.13-.2c1.17-.69,2.4-1.42,3.58-2.1,2.33-1.39,4.63-2.67,6.61-3.72a43.47,43.47,0,0,0-2.34,12c-.49,6.18,2,14.2,5.36,17.36a5.93,5.93,0,0,0,4.34,1.41c3.87,0,5.62-3.22,7.56-7,2.38-4.66,4.5-10.09,4.5-10.09s-2.66,14.67,4.57,14.67c2.63,0,5.3-3.42,6.48-5.17v0a2.24,2.24,0,0,0,.2-.33l.43-.69v-.07c1-1.84,3.43-6,6.94-13,4.53-8.95,8.91-20.12,8.91-20.12a56.55,56.55,0,0,0,1.74,7.26,68.26,68.26,0,0,0,3.75,8.42c-1,1.48-1.71,2.3-1.71,2.3l0,0c-.84,1.12-1.78,2.34-2.79,3.52-3.58,4.27-7.86,9.17-8.46,10.59-.68,1.67-.52,2.89.79,3.88,1,.72,2.67.82,4.41.72a20.3,20.3,0,0,0,6.61-1.51,22.39,22.39,0,0,0,5.69-3,12.75,12.75,0,0,0,5.45-11.22,22.56,22.56,0,0,0-2.07-7.92c.33-.46.63-.92,1-1.38a149.59,149.59,0,0,0,9.86-17,57.52,57.52,0,0,0,1.75,7.26,46.22,46.22,0,0,0,3.18,7.24c-5.22,4.24-8.44,9.17-9.59,12.39-2.07,6-.47,8.68,2.59,9.31,1.39.29,3.35-.36,4.81-1a22,22,0,0,0,6.08-3.12c3.51-2.6,6.9-6.22,6.7-11.12a20.59,20.59,0,0,0-1.52-6.57,34.57,34.57,0,0,1,17.47-2c15.66,1.85,18.73,11.61,18.14,15.72s-3.87,6.35-4.95,7-1.46.92-1.35,1.41c.13.72.65.69,1.57.56,1.29-.23,8.22-3.32,8.51-10.88C180.48,114.72,171.27,104.16,155,104.26ZM34.26,145c-5.18,5.65-12.42,7.79-15.55,6-3.35-1.94-2-10.29,4.34-16.27a82.8,82.8,0,0,1,12.2-9.11l3.23-1.94.36-.2.79-.49A22.44,22.44,0,0,1,34.26,145Zm37.82-25.71c-1.81,4.4-5.59,15.68-7.9,15.06-2-.53-3.18-9.08-.39-17.53a40.17,40.17,0,0,1,6.15-11.28c2.83-3.15,6-4.21,6.72-2.92C77.61,104.26,73.2,116.49,72.08,119.26Zm31.2,14.92c-.76.4-1.48.66-1.8.46s.32-.65.32-.65,3.91-4.21,5.46-6.12c.88-1.12,1.94-2.43,3.06-3.91v.43C110.32,129.42,105.46,132.8,103.28,134.18Zm24.07-5.49c-.56-.39-.45-1.71,1.42-5.82a22,22,0,0,1,5.34-6.9,9.1,9.1,0,0,1,.54,3C134.62,125.34,130.08,127.71,127.35,128.69Z" transform="translate(0 -26.66)"/></svg>