<svg id="Layer_1" data-name="Layer 1" xmlns="http://www.w3.org/2000/svg" viewBox="0 0 300.05 180"><defs><style>.cls-1{fill:#00b6d3;}</style></defs><title>tailwind</title><path class="cls-1" d="M90,0Q30,0,15,60q22.5-30,52.51-22.5c11.41,2.85,19.57,11.13,28.6,20.28C110.81,72.73,127.83,90,165,90q60,0,75-60-22.5,30-52.51,22.5C176.11,49.66,168,41.38,158.92,32.2,144.21,17.28,127.19,0,90,0ZM15,90q-60,0-75,60,22.52-30,52.52-22.5c11.4,2.85,19.56,11.13,28.59,20.28C35.79,162.72,52.82,180,90,180q60,0,75-60-22.52,30-52.51,22.5c-11.42-2.85-19.58-11.13-28.61-20.28C69.2,107.27,52.17,90,15,90Z" transform="translate(60.03)"/></svg>