<svg id="Capa_1" enable-background="new 0 0 512 512" height="512" viewBox="0 0 512 512" width="512" xmlns="http://www.w3.org/2000/svg" xmlns:xlink="http://www.w3.org/1999/xlink"><linearGradient id="SVGID_1_" gradientUnits="userSpaceOnUse" x1="256" x2="256" y1="512" y2="0"><stop offset="0" stop-color="#ffbef9"/><stop offset="1" stop-color="#fff1ff"/></linearGradient><linearGradient id="SVGID_2_" gradientUnits="userSpaceOnUse" x1="256" x2="256" y1="407" y2="105"><stop offset="0" stop-color="#ff81ff"/><stop offset="1" stop-color="#a93aff"/></linearGradient><g><g><circle cx="256" cy="256" fill="url(#SVGID_1_)" r="256"/></g><g><g><path d="m398.118 105h-284.236c-4.91 0-8.882 3.973-8.882 8.882v26.647h302v-26.647c0-4.909-3.973-8.882-8.882-8.882zm-293.118 204.294c0 4.91 3.973 8.882 8.882 8.882h72.58l-.151-.451c-2.255-6.766-1.752-14 1.457-20.376l33.995-67.997h-29.577c-3.679 10.317-13.446 17.765-25.011 17.765-14.694 0-26.647-11.953-26.647-26.647s11.953-26.647 26.647-26.647c11.565 0 21.332 7.448 25.011 17.765h38.458l1.518-3.036c4.441-8.848 13.566-14.33 23.837-14.33s19.395 5.482 23.819 14.312l1.527 3.053h38.467c3.679-10.317 13.446-17.765 25.011-17.765 14.694 0 26.647 11.953 26.647 26.647s-11.953 26.647-26.647 26.647c-11.565 0-21.332-7.448-25.011-17.765h-29.582l34.018 68.023c3.192 6.349 3.695 13.583 1.44 20.35l-.151.451h72.58c4.91 0 8.882-3.973 8.882-8.882v-151h-301.999zm159.882-90.923v90.923c0 4.91-3.973 8.882-8.882 8.882s-8.882-3.973-8.882-8.882v-90.923l-43.475 86.95c-1.058 2.108-1.232 4.545-.486 6.783l13.872 41.602h77.942l13.872-41.602c.746-2.238.572-4.675-.486-6.783zm-44.411 179.747c0 4.91 3.973 8.882 8.882 8.882h53.294c4.91 0 8.882-3.973 8.882-8.882v-26.647h-71.059v26.647zm-62.177-177.647c0 4.901 3.99 8.882 8.882 8.882s8.882-3.981 8.882-8.882-3.99-8.883-8.882-8.883-8.882 3.982-8.882 8.883zm195.412 0c0-4.901-3.99-8.883-8.882-8.883s-8.882 3.981-8.882 8.883c0 4.901 3.99 8.882 8.882 8.882s8.882-3.981 8.882-8.882z" fill="url(#SVGID_2_)"/></g></g></g></svg>