<?xml version="1.0" encoding="utf-8"?>
<!-- Generator: Adobe Illustrator 24.0.2, SVG Export Plug-In . SVG Version: 6.00 Build 0)  -->
<svg version="1.1" id="Layer_1" xmlns="http://www.w3.org/2000/svg" xmlns:xlink="http://www.w3.org/1999/xlink" x="0px" y="0px"
	 viewBox="0 0 512 512" style="enable-background:new 0 0 512 512;" xml:space="preserve">
<style type="text/css">
	.st0{fill:#8EAFE2;}
	.st1{fill:#6A96D7;}
	.st2{fill:#F7EF87;}
	.st3{fill:#EFD176;}
	.st4{fill:#FFD4BE;}
	.st5{fill:#FFBF9E;}
	.st6{fill:#2D3135;}
	.st7{fill:#1E2023;}
	.st8{fill:#EDA1AB;}
	.st9{fill:#4E5660;}
</style>
<path class="st0" d="M388.5,512c16.4,0,28.8-14.9,25.6-31c-14.5-74.1-79.8-130.1-158.1-130.1S112.3,406.8,97.9,481
	c-3.1,16.1,9.3,31,25.6,31H388.5z"/>
<path class="st1" d="M222.9,354.3c-63.1,13.2-112.7,63.3-125,126.7c-3.1,16.1,9.3,31,25.6,31H246C198,480.1,199.4,388.3,222.9,354.3
	z"/>
<path class="st2" d="M310.5,512c0-35.4-24.4-64.2-54.5-64.2s-54.5,28.7-54.5,64.2H310.5z"/>
<path class="st3" d="M215.1,469.5c-8.5,11.3-13.7,26.2-13.7,42.5H246C231.4,502.3,221.4,487,215.1,469.5z"/>
<path class="st4" d="M105.3,205.1c-4.4-28.9-31.5-48.8-60.4-44.3C16,165.2-3.8,192.2,0.6,221.1C5,250.1,32.1,269.9,61,265.5
	C89.9,261,109.8,234,105.3,205.1z"/>
<path class="st5" d="M468.9,161.1c-28.7-5.5-56.5,13.4-61.9,42.1c-5.5,28.7,13.4,56.5,42.1,61.9c28.7,5.5,56.5-13.4,61.9-42.1
	C516.5,194.3,497.7,166.6,468.9,161.1z"/>
<path class="st4" d="M467.9,213.1c0,117-111.9,193.6-211.9,193.6c-100,0-211.9-76.5-211.9-193.6C44.1,96.1,139,24,256,24
	S467.9,96.1,467.9,213.1z"/>
<path class="st5" d="M256,406.7c28.6,0,58.2-6.3,85.9-18c-230.5-10.6-250.4-232-179.6-347.5c-70,27.9-118.1,88.5-118.1,171.9
	C44.1,330.2,156,406.7,256,406.7z"/>
<path class="st6" d="M373.1,99.2c13,56.9,44.9,87.5,81,104.4c8.3,3.9,18-1.5,18.7-10.6C481.4,90.4,388.5,0,256,0S30.6,90.4,39.1,193
	c0.8,9.1,10.5,14.5,18.7,10.6c36.1-16.9,68-47.5,81-104.4H373.1z"/>
<path class="st7" d="M366.9,24.2c-25,25-50,50-75,75h81.1c6.6,28.9,18.1,51,32.5,68c22.7-6.3,43.8-15,62.9-25.9
	C455.8,91.9,419.2,49.4,366.9,24.2z"/>
<path class="st6" d="M256,0c108.5,0,166.3,36.9,228,84.7c8.2,6.4,8.2,18.9-0.1,25.2c-109.2,83.5-300.7,56.1-345-10.7L256,0z"/>
<path class="st7" d="M317.2,123.1c-23.5,0-46.9-3-69.2-8.9c-26.1-6.9-45.5-16.3-54.1-22.3c-3.4-2.4-4.2-7-1.9-10.4
	c2.4-3.4,7-4.2,10.4-1.9c14,9.8,71,35.7,145.8,26.6c4.1-0.5,7.8,2.4,8.3,6.5c0.5,4.1-2.4,7.9-6.5,8.4
	C339.3,122.5,328.2,123.1,317.2,123.1z"/>
<path class="st7" d="M333.9,83.6c-12.1,0-22.9-1.2-29.6-2.9c-4-1-6.5-5.1-5.5-9.1c1-4,5.1-6.5,9.1-5.5c13.8,3.4,44.8,4.1,67.2-3.4
	c3.9-1.3,8.2,0.8,9.5,4.7c1.3,3.9-0.8,8.2-4.7,9.5C365.4,81.9,348.6,83.6,333.9,83.6z"/>
<path class="st8" d="M178.1,257.6c0-20-20.4-36.3-45.6-36.3S87,237.5,87,257.6s20.4,36.3,45.6,36.3S178.1,277.6,178.1,257.6z"/>
<path class="st8" d="M425,257.6c0-20-20.4-36.3-45.6-36.3s-45.6,16.2-45.6,36.3s20.4,36.3,45.6,36.3S425,277.6,425,257.6z"/>
<g>
	<path class="st9" d="M159.1,228.9c-4.1,0-7.5-3.4-7.5-7.5v-16.1c0-4.1,3.4-7.5,7.5-7.5c4.1,0,7.5,3.4,7.5,7.5v16.1
		C166.6,225.5,163.2,228.9,159.1,228.9z"/>
	<path class="st9" d="M352.9,228.9c-4.1,0-7.5-3.4-7.5-7.5v-16.1c0-4.1,3.4-7.5,7.5-7.5c4.1,0,7.5,3.4,7.5,7.5v16.1
		C360.4,225.5,357,228.9,352.9,228.9z"/>
	<path class="st9" d="M256,241.2c-12,0-23.3-5.2-31.2-14.2c-2.7-3.1-2.4-7.9,0.7-10.6c3.1-2.7,7.9-2.4,10.6,0.7
		c5,5.8,12.3,9.1,19.9,9.1c7.6,0,14.9-3.3,19.9-9.1c2.7-3.1,7.5-3.4,10.6-0.7c3.1,2.7,3.4,7.5,0.7,10.6
		C279.3,236,267.9,241.2,256,241.2z"/>
</g>
</svg>
