<svg xmlns="http://www.w3.org/2000/svg" xmlns:xlink="http://www.w3.org/1999/xlink" viewBox="0 0 2266.34 1830.05"><defs><style>.cls-1{isolation:isolate;}.cls-2{fill:url(#linear-gradient);}.cls-3{fill:url(#linear-gradient-2);}.cls-4{fill:url(#linear-gradient-3);}.cls-5{fill:url(#linear-gradient-4);}.cls-6{fill:url(#linear-gradient-5);}.cls-7{fill:url(#linear-gradient-6);}.cls-8{fill:url(#New_Gradient_Swatch_copy_8);}.cls-9{fill:#37ae96;}.cls-10,.cls-179,.cls-188,.cls-81{fill:#010101;}.cls-10{opacity:0.21;mix-blend-mode:overlay;}.cls-11{fill:url(#New_Gradient_Swatch_copy_10);}.cls-12{fill:#f9a976;}.cls-13{fill:url(#New_Gradient_Swatch_copy_10-2);}.cls-14{fill:url(#New_Gradient_Swatch_copy_9);}.cls-15{fill:url(#New_Gradient_Swatch_copy_9-2);}.cls-16{fill:url(#New_Gradient_Swatch_copy_9-3);}.cls-17{fill:url(#linear-gradient-7);}.cls-18{fill:url(#linear-gradient-8);}.cls-19{fill:url(#linear-gradient-9);}.cls-20{fill:url(#linear-gradient-10);}.cls-21{fill:url(#New_Gradient_Swatch_copy_6);}.cls-179,.cls-187,.cls-22{opacity:0.15;}.cls-23{fill:url(#New_Gradient_Swatch_copy_6-2);}.cls-24{fill:#6d3c76;}.cls-25{fill:url(#New_Gradient_Swatch_copy_4);}.cls-26{fill:url(#New_Gradient_Swatch_copy_4-2);}.cls-27{fill:url(#New_Gradient_Swatch_copy_4-3);}.cls-28{fill:url(#New_Gradient_Swatch_copy_4-4);}.cls-29{fill:url(#New_Gradient_Swatch_copy_4-5);}.cls-30{fill:url(#New_Gradient_Swatch_copy_4-6);}.cls-31{fill:url(#New_Gradient_Swatch_copy_4-7);}.cls-32{fill:url(#New_Gradient_Swatch_copy_4-8);}.cls-33{fill:url(#New_Gradient_Swatch_copy_4-9);}.cls-34{fill:url(#New_Gradient_Swatch_copy_4-10);}.cls-35{fill:url(#New_Gradient_Swatch_copy_4-11);}.cls-36{fill:url(#New_Gradient_Swatch_copy_4-12);}.cls-37{fill:url(#New_Gradient_Swatch_copy_4-13);}.cls-38{fill:url(#New_Gradient_Swatch_copy_4-14);}.cls-39{fill:url(#New_Gradient_Swatch_copy_4-15);}.cls-40{fill:url(#New_Gradient_Swatch_copy_4-16);}.cls-41{fill:url(#New_Gradient_Swatch_copy_4-17);}.cls-42{fill:url(#New_Gradient_Swatch_copy_4-18);}.cls-43{fill:url(#New_Gradient_Swatch_copy_4-19);}.cls-44{fill:url(#New_Gradient_Swatch_copy_4-20);}.cls-45{fill:url(#New_Gradient_Swatch_copy_4-21);}.cls-46{fill:url(#New_Gradient_Swatch_copy_7);}.cls-47{fill:url(#New_Gradient_Swatch_copy_7-2);}.cls-48{fill:url(#New_Gradient_Swatch_copy_7-3);}.cls-49{fill:url(#New_Gradient_Swatch_copy_7-4);}.cls-50{fill:url(#New_Gradient_Swatch_copy_7-5);}.cls-51{fill:url(#New_Gradient_Swatch_copy_7-6);}.cls-52{fill:url(#New_Gradient_Swatch_copy_10-3);}.cls-53{fill:url(#New_Gradient_Swatch_copy_10-4);}.cls-54{fill:url(#New_Gradient_Swatch_copy_10-5);}.cls-55{fill:url(#New_Gradient_Swatch_copy_10-6);}.cls-56{fill:url(#New_Gradient_Swatch_copy_13);}.cls-57{fill:url(#New_Gradient_Swatch_copy_13-2);}.cls-58{fill:url(#New_Gradient_Swatch_copy_13-3);}.cls-59{fill:url(#New_Gradient_Swatch_copy_13-4);}.cls-60{fill:url(#New_Gradient_Swatch_copy_13-5);}.cls-61{fill:url(#New_Gradient_Swatch_copy_13-6);}.cls-62{fill:url(#New_Gradient_Swatch_copy_13-7);}.cls-63{fill:url(#New_Gradient_Swatch_copy_4-22);}.cls-64{fill:url(#New_Gradient_Swatch_copy_4-23);}.cls-65{fill:url(#New_Gradient_Swatch_copy_4-24);}.cls-66{fill:url(#New_Gradient_Swatch_copy_4-25);}.cls-67{fill:url(#New_Gradient_Swatch_copy_4-26);}.cls-68{fill:url(#New_Gradient_Swatch_copy_4-27);}.cls-69{fill:url(#New_Gradient_Swatch_copy_4-28);}.cls-70{fill:url(#New_Gradient_Swatch_copy_4-29);}.cls-71{fill:url(#New_Gradient_Swatch_copy_4-30);}.cls-72{fill:url(#New_Gradient_Swatch_copy_4-31);}.cls-73{fill:url(#New_Gradient_Swatch_copy_4-32);}.cls-74{fill:url(#New_Gradient_Swatch_copy_4-33);}.cls-75{fill:url(#New_Gradient_Swatch_copy_4-34);}.cls-76{fill:url(#New_Gradient_Swatch_copy_4-35);}.cls-77{fill:url(#New_Gradient_Swatch_copy_4-36);}.cls-78{fill:url(#New_Gradient_Swatch_copy_13-8);}.cls-79{fill:url(#New_Gradient_Swatch_copy_9-4);}.cls-80{fill:url(#New_Gradient_Swatch_copy_10-7);}.cls-81{opacity:0.1;}.cls-82{fill:url(#New_Gradient_Swatch_copy_4-37);}.cls-83{fill:url(#New_Gradient_Swatch_copy_6-3);}.cls-84{fill:url(#New_Gradient_Swatch_copy_6-4);}.cls-85{fill:url(#New_Gradient_Swatch_copy_6-5);}.cls-86{fill:url(#New_Gradient_Swatch_copy_6-6);}.cls-87{fill:url(#New_Gradient_Swatch_copy_6-7);}.cls-88{fill:url(#New_Gradient_Swatch_copy_6-8);}.cls-89{fill:url(#New_Gradient_Swatch_copy_6-9);}.cls-90{fill:url(#New_Gradient_Swatch_copy_6-10);}.cls-91{fill:url(#New_Gradient_Swatch_copy_6-11);}.cls-92{fill:url(#New_Gradient_Swatch_copy_6-12);}.cls-93{fill:url(#New_Gradient_Swatch_copy_6-13);}.cls-94{fill:url(#New_Gradient_Swatch_copy_6-14);}.cls-95{fill:url(#New_Gradient_Swatch_copy_6-15);}.cls-96{fill:url(#New_Gradient_Swatch_copy_6-16);}.cls-97{fill:url(#New_Gradient_Swatch_copy_6-17);}.cls-98{fill:url(#New_Gradient_Swatch_copy_6-18);}.cls-99{fill:url(#New_Gradient_Swatch_copy_6-19);}.cls-100{fill:url(#New_Gradient_Swatch_copy_6-20);}.cls-101{fill:url(#New_Gradient_Swatch_copy_6-21);}.cls-102{fill:url(#New_Gradient_Swatch_copy_6-22);}.cls-103{fill:url(#New_Gradient_Swatch_copy_6-23);}.cls-104{fill:url(#New_Gradient_Swatch_copy_6-24);}.cls-105{fill:url(#New_Gradient_Swatch_copy_6-25);}.cls-106{fill:url(#New_Gradient_Swatch_copy_6-26);}.cls-107{fill:url(#New_Gradient_Swatch_copy_6-27);}.cls-108{fill:url(#New_Gradient_Swatch_copy_6-28);}.cls-109{fill:url(#New_Gradient_Swatch_copy_6-29);}.cls-110{fill:url(#New_Gradient_Swatch_copy_6-30);}.cls-111{fill:url(#New_Gradient_Swatch_copy_6-31);}.cls-112{fill:url(#New_Gradient_Swatch_copy_6-32);}.cls-113{fill:url(#New_Gradient_Swatch_copy_6-33);}.cls-114{fill:url(#New_Gradient_Swatch_copy_6-34);}.cls-115{fill:url(#New_Gradient_Swatch_copy_6-35);}.cls-116{fill:url(#New_Gradient_Swatch_copy_6-36);}.cls-117{fill:url(#New_Gradient_Swatch_copy_6-37);}.cls-118{fill:url(#New_Gradient_Swatch_copy_13-9);}.cls-119{fill:url(#New_Gradient_Swatch_copy_13-10);}.cls-120{fill:url(#New_Gradient_Swatch_copy_13-11);}.cls-121{fill:url(#New_Gradient_Swatch_copy_13-12);}.cls-122{fill:url(#New_Gradient_Swatch_copy_13-13);}.cls-123{fill:url(#New_Gradient_Swatch_copy_13-14);}.cls-124{fill:url(#New_Gradient_Swatch_copy_13-15);}.cls-125{fill:url(#New_Gradient_Swatch_copy_13-16);}.cls-126{fill:url(#New_Gradient_Swatch_copy_13-17);}.cls-127{fill:url(#New_Gradient_Swatch_copy_13-18);}.cls-128{fill:url(#New_Gradient_Swatch_copy_13-19);}.cls-129{fill:url(#New_Gradient_Swatch_copy_13-20);}.cls-130{fill:url(#New_Gradient_Swatch_copy_13-21);}.cls-131{fill:url(#New_Gradient_Swatch_copy_13-22);}.cls-132{fill:url(#New_Gradient_Swatch_copy_13-23);}.cls-133{fill:url(#New_Gradient_Swatch_copy_13-24);}.cls-134{fill:url(#New_Gradient_Swatch_copy_13-25);}.cls-135{fill:url(#New_Gradient_Swatch_copy_13-26);}.cls-136{fill:url(#New_Gradient_Swatch_copy_10-8);}.cls-137{fill:url(#New_Gradient_Swatch_copy_10-9);}.cls-138{fill:url(#New_Gradient_Swatch_copy_10-10);}.cls-139{fill:url(#New_Gradient_Swatch_copy_10-11);}.cls-140{fill:url(#New_Gradient_Swatch_copy_10-12);}.cls-141{fill:url(#New_Gradient_Swatch_copy_10-13);}.cls-142{fill:url(#New_Gradient_Swatch_copy_10-14);}.cls-143{fill:url(#New_Gradient_Swatch_copy_10-15);}.cls-144{fill:url(#New_Gradient_Swatch_copy_10-16);}.cls-145{fill:url(#New_Gradient_Swatch_copy_10-17);}.cls-146{fill:url(#New_Gradient_Swatch_copy_10-18);}.cls-147{fill:url(#New_Gradient_Swatch_copy_10-19);}.cls-148{fill:url(#New_Gradient_Swatch_copy_10-20);}.cls-149{fill:url(#New_Gradient_Swatch_copy_10-21);}.cls-150{fill:url(#New_Gradient_Swatch_copy_10-22);}.cls-151{fill:url(#New_Gradient_Swatch_copy_10-23);}.cls-152{fill:url(#New_Gradient_Swatch_copy_10-24);}.cls-153{fill:url(#New_Gradient_Swatch_copy_10-25);}.cls-154{fill:url(#New_Gradient_Swatch_copy_10-26);}.cls-155{fill:url(#New_Gradient_Swatch_copy_10-27);}.cls-156{fill:url(#New_Gradient_Swatch_copy_10-28);}.cls-157{fill:url(#New_Gradient_Swatch_copy_10-29);}.cls-158{fill:url(#New_Gradient_Swatch_copy_10-30);}.cls-159{fill:url(#New_Gradient_Swatch_copy_10-31);}.cls-160{fill:url(#New_Gradient_Swatch_copy_10-32);}.cls-161{fill:url(#New_Gradient_Swatch_copy_10-33);}.cls-162{fill:url(#New_Gradient_Swatch_copy_10-34);}.cls-163{fill:url(#New_Gradient_Swatch_copy_10-35);}.cls-164{fill:url(#New_Gradient_Swatch_copy_10-36);}.cls-165{fill:url(#New_Gradient_Swatch_copy_10-37);}.cls-166{fill:url(#New_Gradient_Swatch_copy_10-38);}.cls-167{fill:url(#New_Gradient_Swatch_copy_4-38);}.cls-168{fill:url(#New_Gradient_Swatch_copy_13-27);}.cls-169{fill:url(#New_Gradient_Swatch_copy_9-5);}.cls-170{fill:url(#New_Gradient_Swatch_copy_10-39);}.cls-171{fill:url(#New_Gradient_Swatch_copy_6-38);}.cls-172{fill:url(#New_Gradient_Swatch_copy_6-39);}.cls-173{fill:url(#New_Gradient_Swatch_copy_6-40);}.cls-174{fill:#1a1a1a;}.cls-175{fill:#333;}.cls-176{fill:url(#linear-gradient-11);}.cls-177{fill:#f8a794;}.cls-178{fill:url(#linear-gradient-12);}.cls-180{fill:url(#linear-gradient-13);}.cls-181{fill:url(#New_Gradient_Swatch_copy_13-28);}.cls-182{fill:url(#New_Gradient_Swatch_copy_13-29);}.cls-183{fill:url(#New_Gradient_Swatch_copy_5);}.cls-184{fill:url(#New_Gradient_Swatch_copy_5-2);}.cls-185{fill:url(#New_Gradient_Swatch_copy_5-3);}.cls-186{fill:url(#New_Gradient_Swatch_copy_6-41);}.cls-189{fill:url(#New_Gradient_Swatch_copy_10-40);}.cls-190{fill:url(#linear-gradient-14);}.cls-191{fill:url(#linear-gradient-15);}.cls-192{fill:url(#New_Gradient_Swatch_copy_10-41);}.cls-193{fill:url(#New_Gradient_Swatch_copy_10-42);}</style><linearGradient id="linear-gradient" x1="513.93" y1="414.37" x2="767.98" y2="414.37" gradientTransform="translate(537.58 125.32) rotate(19.07)" gradientUnits="userSpaceOnUse"><stop offset="0" stop-color="#689fb8"/><stop offset="0.54" stop-color="#437cb3"/><stop offset="1" stop-color="#2762af"/></linearGradient><linearGradient id="linear-gradient-2" x1="624.03" y1="414.37" x2="657.89" y2="414.37" xlink:href="#linear-gradient"/><linearGradient id="linear-gradient-3" x1="806.63" y1="430.57" x2="956.94" y2="430.57" xlink:href="#linear-gradient"/><linearGradient id="linear-gradient-4" x1="871.77" y1="430.57" x2="891.8" y2="430.57" xlink:href="#linear-gradient"/><linearGradient id="linear-gradient-5" x1="656.75" y1="174.18" x2="904.28" y2="174.18" xlink:href="#linear-gradient"/><linearGradient id="linear-gradient-6" x1="764.02" y1="174.18" x2="797.01" y2="174.18" xlink:href="#linear-gradient"/><linearGradient id="New_Gradient_Swatch_copy_8" x1="5633.82" y1="1114.12" x2="6098.49" y2="1586.55" gradientTransform="matrix(-1, 0, 0, 1, 6535.15, 0)" gradientUnits="userSpaceOnUse"><stop offset="0" stop-color="#b9da8f"/><stop offset="0.32" stop-color="#8bbf90"/><stop offset="0.78" stop-color="#4e9b92"/><stop offset="1" stop-color="#368d93"/></linearGradient><linearGradient id="New_Gradient_Swatch_copy_10" x1="6130.15" y1="1187.3" x2="5990.74" y2="1826.23" gradientTransform="matrix(-1, 0, 0, 1, 6535.15, 0)" gradientUnits="userSpaceOnUse"><stop offset="0" stop-color="#fbee99"/><stop offset="0.61" stop-color="#fac182"/><stop offset="1" stop-color="#f9a976"/></linearGradient><linearGradient id="New_Gradient_Swatch_copy_10-2" x1="6122.19" y1="1547.4" x2="5959.55" y2="1965.61" xlink:href="#New_Gradient_Swatch_copy_10"/><linearGradient id="New_Gradient_Swatch_copy_9" x1="2817.78" y1="693.99" x2="3427.22" y2="1238.97" gradientTransform="matrix(-1, 0, 0, 1, 5360.68, 0)" gradientUnits="userSpaceOnUse"><stop offset="0" stop-color="#54c0a1"/><stop offset="0.63" stop-color="#22918d"/><stop offset="1" stop-color="#0a7a84"/></linearGradient><linearGradient id="New_Gradient_Swatch_copy_9-2" x1="2014.27" y1="572.56" x2="2030.5" y2="1037.59" gradientTransform="translate(189.06)" xlink:href="#New_Gradient_Swatch_copy_9"/><linearGradient id="New_Gradient_Swatch_copy_9-3" x1="2581.35" y1="1191.77" x2="1818.91" y2="1256.66" gradientTransform="translate(189.06)" xlink:href="#New_Gradient_Swatch_copy_9"/><linearGradient id="linear-gradient-7" x1="1409.23" y1="1983.56" x2="1409.23" y2="2168.34" gradientTransform="matrix(1, 0, 0, 1, 0, 0)" xlink:href="#linear-gradient"/><linearGradient id="linear-gradient-8" x1="1409.23" y1="2171.98" x2="1409.23" y2="2212.17" gradientTransform="matrix(1, 0, 0, 1, 0, 0)" xlink:href="#linear-gradient"/><linearGradient id="linear-gradient-9" x1="1409.23" y1="432.4" x2="1409.23" y2="2149.32" gradientTransform="matrix(1, 0, 0, 1, 0, 0)" xlink:href="#linear-gradient"/><linearGradient id="linear-gradient-10" x1="1409.23" y1="2498.99" x2="1409.23" y2="490.65" gradientTransform="matrix(1, 0, 0, 1, 0, 0)" xlink:href="#linear-gradient"/><linearGradient id="New_Gradient_Swatch_copy_6" x1="107.93" y1="51.02" x2="1970.8" y2="1913.89" gradientUnits="userSpaceOnUse"><stop offset="0" stop-color="#fff"/><stop offset="0.55" stop-color="#dde7f5"/><stop offset="1" stop-color="#c5d6ee"/></linearGradient><linearGradient id="New_Gradient_Swatch_copy_6-2" x1="1028.65" y1="1548.09" x2="1080.84" y2="1548.09" xlink:href="#New_Gradient_Swatch_copy_6"/><linearGradient id="New_Gradient_Swatch_copy_4" x1="1056.65" y1="1111.96" x2="1069.99" y2="1111.96" gradientUnits="userSpaceOnUse"><stop offset="0" stop-color="#5a5c69"/><stop offset="0.54" stop-color="#39414e"/><stop offset="1" stop-color="#212d3b"/></linearGradient><linearGradient id="New_Gradient_Swatch_copy_4-2" x1="1084.97" y1="1112.01" x2="1111.48" y2="1112.01" xlink:href="#New_Gradient_Swatch_copy_4"/><linearGradient id="New_Gradient_Swatch_copy_4-3" x1="1126.55" y1="1111.96" x2="1139.89" y2="1111.96" xlink:href="#New_Gradient_Swatch_copy_4"/><linearGradient id="New_Gradient_Swatch_copy_4-4" x1="1154.87" y1="1112.01" x2="1181.37" y2="1112.01" xlink:href="#New_Gradient_Swatch_copy_4"/><linearGradient id="New_Gradient_Swatch_copy_4-5" x1="1196.44" y1="1111.96" x2="1209.78" y2="1111.96" xlink:href="#New_Gradient_Swatch_copy_4"/><linearGradient id="New_Gradient_Swatch_copy_4-6" x1="1227.09" y1="1111.96" x2="1240.43" y2="1111.96" xlink:href="#New_Gradient_Swatch_copy_4"/><linearGradient id="New_Gradient_Swatch_copy_4-7" x1="1255.41" y1="1112.01" x2="1281.91" y2="1112.01" xlink:href="#New_Gradient_Swatch_copy_4"/><linearGradient id="New_Gradient_Swatch_copy_4-8" x1="1296.98" y1="1111.96" x2="1310.32" y2="1111.96" xlink:href="#New_Gradient_Swatch_copy_4"/><linearGradient id="New_Gradient_Swatch_copy_4-9" x1="1325.3" y1="1112.01" x2="1351.81" y2="1112.01" xlink:href="#New_Gradient_Swatch_copy_4"/><linearGradient id="New_Gradient_Swatch_copy_4-10" x1="1366.87" y1="1111.96" x2="1380.21" y2="1111.96" xlink:href="#New_Gradient_Swatch_copy_4"/><linearGradient id="New_Gradient_Swatch_copy_4-11" x1="1395.19" y1="1112.01" x2="1421.7" y2="1112.01" xlink:href="#New_Gradient_Swatch_copy_4"/><linearGradient id="New_Gradient_Swatch_copy_4-12" x1="1436.77" y1="1111.96" x2="1450.11" y2="1111.96" xlink:href="#New_Gradient_Swatch_copy_4"/><linearGradient id="New_Gradient_Swatch_copy_4-13" x1="1465.09" y1="1112.01" x2="1491.59" y2="1112.01" xlink:href="#New_Gradient_Swatch_copy_4"/><linearGradient id="New_Gradient_Swatch_copy_4-14" x1="1506.66" y1="1111.96" x2="1520" y2="1111.96" xlink:href="#New_Gradient_Swatch_copy_4"/><linearGradient id="New_Gradient_Swatch_copy_4-15" x1="1534.98" y1="1112.01" x2="1561.49" y2="1112.01" xlink:href="#New_Gradient_Swatch_copy_4"/><linearGradient id="New_Gradient_Swatch_copy_4-16" x1="1576.56" y1="1111.96" x2="1589.9" y2="1111.96" xlink:href="#New_Gradient_Swatch_copy_4"/><linearGradient id="New_Gradient_Swatch_copy_4-17" x1="1604.91" y1="1111.96" x2="1618.25" y2="1111.96" xlink:href="#New_Gradient_Swatch_copy_4"/><linearGradient id="New_Gradient_Swatch_copy_4-18" x1="1633.23" y1="1112.01" x2="1659.74" y2="1112.01" xlink:href="#New_Gradient_Swatch_copy_4"/><linearGradient id="New_Gradient_Swatch_copy_4-19" x1="1674.8" y1="1111.96" x2="1688.14" y2="1111.96" xlink:href="#New_Gradient_Swatch_copy_4"/><linearGradient id="New_Gradient_Swatch_copy_4-20" x1="1703.12" y1="1112.01" x2="1729.63" y2="1112.01" xlink:href="#New_Gradient_Swatch_copy_4"/><linearGradient id="New_Gradient_Swatch_copy_4-21" x1="1744.7" y1="1111.96" x2="1758.04" y2="1111.96" xlink:href="#New_Gradient_Swatch_copy_4"/><linearGradient id="New_Gradient_Swatch_copy_7" x1="659.53" y1="1127.06" x2="1065.78" y2="1127.06" gradientUnits="userSpaceOnUse"><stop offset="0" stop-color="#66cbf4"/><stop offset="0.18" stop-color="#63b5e5"/><stop offset="0.74" stop-color="#5c78bb"/><stop offset="1" stop-color="#5960ab"/></linearGradient><linearGradient id="New_Gradient_Swatch_copy_7-2" x1="746.27" y1="1166.01" x2="901.15" y2="1166.01" xlink:href="#New_Gradient_Swatch_copy_7"/><linearGradient id="New_Gradient_Swatch_copy_7-3" x1="746.27" y1="1204.95" x2="951.6" y2="1204.95" xlink:href="#New_Gradient_Swatch_copy_7"/><linearGradient id="New_Gradient_Swatch_copy_7-4" x1="659.53" y1="807.11" x2="1065.78" y2="807.11" xlink:href="#New_Gradient_Swatch_copy_7"/><linearGradient id="New_Gradient_Swatch_copy_7-5" x1="530.31" y1="846.06" x2="735.65" y2="846.06" xlink:href="#New_Gradient_Swatch_copy_7"/><linearGradient id="New_Gradient_Swatch_copy_7-6" x1="530.31" y1="885" x2="735.65" y2="885" xlink:href="#New_Gradient_Swatch_copy_7"/><linearGradient id="New_Gradient_Swatch_copy_10-3" x1="530.31" y1="1166.01" x2="735.65" y2="1166.01" gradientTransform="matrix(1, 0, 0, 1, 0, 0)" xlink:href="#New_Gradient_Swatch_copy_10"/><linearGradient id="New_Gradient_Swatch_copy_10-4" x1="530.31" y1="1204.95" x2="735.65" y2="1204.95" gradientTransform="matrix(1, 0, 0, 1, 0, 0)" xlink:href="#New_Gradient_Swatch_copy_10"/><linearGradient id="New_Gradient_Swatch_copy_10-5" x1="746.27" y1="846.06" x2="901.15" y2="846.06" gradientTransform="matrix(1, 0, 0, 1, 0, 0)" xlink:href="#New_Gradient_Swatch_copy_10"/><linearGradient id="New_Gradient_Swatch_copy_10-6" x1="746.27" y1="885" x2="951.6" y2="885" gradientTransform="matrix(1, 0, 0, 1, 0, 0)" xlink:href="#New_Gradient_Swatch_copy_10"/><linearGradient id="New_Gradient_Swatch_copy_13" x1="825.92" y1="1243.89" x2="1112.68" y2="1243.89" gradientUnits="userSpaceOnUse"><stop offset="0" stop-color="#f48697"/><stop offset="0.67" stop-color="#c14a73"/><stop offset="1" stop-color="#ad3265"/></linearGradient><linearGradient id="New_Gradient_Swatch_copy_13-2" x1="825.92" y1="1282.83" x2="1070.2" y2="1282.83" xlink:href="#New_Gradient_Swatch_copy_13"/><linearGradient id="New_Gradient_Swatch_copy_13-3" x1="825.92" y1="1360.72" x2="1031.26" y2="1360.72" xlink:href="#New_Gradient_Swatch_copy_13"/><linearGradient id="New_Gradient_Swatch_copy_13-4" x1="609.97" y1="923.94" x2="815.3" y2="923.94" xlink:href="#New_Gradient_Swatch_copy_13"/><linearGradient id="New_Gradient_Swatch_copy_13-5" x1="609.97" y1="962.88" x2="815.3" y2="962.88" xlink:href="#New_Gradient_Swatch_copy_13"/><linearGradient id="New_Gradient_Swatch_copy_13-6" x1="609.97" y1="1001.83" x2="815.3" y2="1001.83" xlink:href="#New_Gradient_Swatch_copy_13"/><linearGradient id="New_Gradient_Swatch_copy_13-7" x1="609.97" y1="1040.77" x2="755.34" y2="1040.77" xlink:href="#New_Gradient_Swatch_copy_13"/><linearGradient id="New_Gradient_Swatch_copy_4-22" x1="443.58" y1="1127.06" x2="648.91" y2="1127.06" xlink:href="#New_Gradient_Swatch_copy_4"/><linearGradient id="New_Gradient_Swatch_copy_4-23" x1="910.89" y1="1166.01" x2="1065.78" y2="1166.01" xlink:href="#New_Gradient_Swatch_copy_4"/><linearGradient id="New_Gradient_Swatch_copy_4-24" x1="609.97" y1="1243.89" x2="815.3" y2="1243.89" xlink:href="#New_Gradient_Swatch_copy_4"/><linearGradient id="New_Gradient_Swatch_copy_4-25" x1="609.97" y1="1282.83" x2="815.3" y2="1282.83" xlink:href="#New_Gradient_Swatch_copy_4"/><linearGradient id="New_Gradient_Swatch_copy_4-26" x1="609.97" y1="1321.78" x2="815.3" y2="1321.78" xlink:href="#New_Gradient_Swatch_copy_4"/><linearGradient id="New_Gradient_Swatch_copy_4-27" x1="609.97" y1="1360.72" x2="755.34" y2="1360.72" xlink:href="#New_Gradient_Swatch_copy_4"/><linearGradient id="New_Gradient_Swatch_copy_4-28" x1="443.58" y1="807.11" x2="648.91" y2="807.11" xlink:href="#New_Gradient_Swatch_copy_4"/><linearGradient id="New_Gradient_Swatch_copy_4-29" x1="825.92" y1="923.94" x2="955.14" y2="923.94" xlink:href="#New_Gradient_Swatch_copy_4"/><linearGradient id="New_Gradient_Swatch_copy_4-30" x1="825.92" y1="962.88" x2="1070.2" y2="962.88" xlink:href="#New_Gradient_Swatch_copy_4"/><linearGradient id="New_Gradient_Swatch_copy_4-31" x1="825.92" y1="1001.83" x2="1031.26" y2="1001.83" xlink:href="#New_Gradient_Swatch_copy_4"/><linearGradient id="New_Gradient_Swatch_copy_4-32" x1="825.92" y1="1040.77" x2="1031.26" y2="1040.77" xlink:href="#New_Gradient_Swatch_copy_4"/><linearGradient id="New_Gradient_Swatch_copy_4-33" x1="964.66" y1="923.94" x2="1093.88" y2="923.94" xlink:href="#New_Gradient_Swatch_copy_4"/><linearGradient id="New_Gradient_Swatch_copy_4-34" x1="910.89" y1="846.06" x2="1065.78" y2="846.06" xlink:href="#New_Gradient_Swatch_copy_4"/><linearGradient id="New_Gradient_Swatch_copy_4-35" x1="356.84" y1="768.17" x2="562.18" y2="768.17" xlink:href="#New_Gradient_Swatch_copy_4"/><linearGradient id="New_Gradient_Swatch_copy_4-36" x1="825.92" y1="1321.78" x2="1031.26" y2="1321.78" xlink:href="#New_Gradient_Swatch_copy_4"/><linearGradient id="New_Gradient_Swatch_copy_13-8" x1="711.14" y1="1056.67" x2="748.22" y2="1056.67" gradientTransform="translate(1261.26 -112.27) rotate(59.08)" xlink:href="#New_Gradient_Swatch_copy_13"/><linearGradient id="New_Gradient_Swatch_copy_9-4" x1="765.6" y1="1056.67" x2="802.68" y2="1056.67" gradientTransform="translate(1677.67 90.73) rotate(79.35)" xlink:href="#New_Gradient_Swatch_copy_9"/><linearGradient id="New_Gradient_Swatch_copy_10-7" x1="820.07" y1="1056.67" x2="857.14" y2="1056.67" gradientTransform="translate(1725.71 40.37) rotate(79.55)" xlink:href="#New_Gradient_Swatch_copy_10"/><linearGradient id="New_Gradient_Swatch_copy_4-37" x1="947.63" y1="763.16" x2="2233.85" y2="1759.05" xlink:href="#New_Gradient_Swatch_copy_4"/><linearGradient id="New_Gradient_Swatch_copy_6-3" x1="1379.19" y1="981.1" x2="1474.87" y2="981.1" xlink:href="#New_Gradient_Swatch_copy_6"/><linearGradient id="New_Gradient_Swatch_copy_6-4" x1="1450.99" y1="1037.12" x2="1541.04" y2="1037.12" xlink:href="#New_Gradient_Swatch_copy_6"/><linearGradient id="New_Gradient_Swatch_copy_6-5" x1="1450.99" y1="1065.09" x2="1541.04" y2="1065.09" xlink:href="#New_Gradient_Swatch_copy_6"/><linearGradient id="New_Gradient_Swatch_copy_6-6" x1="1513.49" y1="1093.14" x2="1601.07" y2="1093.14" xlink:href="#New_Gradient_Swatch_copy_6"/><linearGradient id="New_Gradient_Swatch_copy_6-7" x1="1559.29" y1="1009.07" x2="1651.1" y2="1009.07" xlink:href="#New_Gradient_Swatch_copy_6"/><linearGradient id="New_Gradient_Swatch_copy_6-8" x1="1450.99" y1="1149.15" x2="1541.04" y2="1149.15" xlink:href="#New_Gradient_Swatch_copy_6"/><linearGradient id="New_Gradient_Swatch_copy_6-9" x1="1450.99" y1="1177.2" x2="1541.04" y2="1177.2" xlink:href="#New_Gradient_Swatch_copy_6"/><linearGradient id="New_Gradient_Swatch_copy_6-10" x1="1450.99" y1="1205.17" x2="1541.04" y2="1205.17" xlink:href="#New_Gradient_Swatch_copy_6"/><linearGradient id="New_Gradient_Swatch_copy_6-11" x1="1450.99" y1="1233.21" x2="1541.04" y2="1233.21" xlink:href="#New_Gradient_Swatch_copy_6"/><linearGradient id="New_Gradient_Swatch_copy_6-12" x1="1379.19" y1="1289.23" x2="1474.87" y2="1289.23" xlink:href="#New_Gradient_Swatch_copy_6"/><linearGradient id="New_Gradient_Swatch_copy_6-13" x1="1450.99" y1="1345.25" x2="1541.04" y2="1345.25" xlink:href="#New_Gradient_Swatch_copy_6"/><linearGradient id="New_Gradient_Swatch_copy_6-14" x1="1450.99" y1="1373.26" x2="1541.04" y2="1373.26" xlink:href="#New_Gradient_Swatch_copy_6"/><linearGradient id="New_Gradient_Swatch_copy_6-15" x1="1513.49" y1="1401.27" x2="1601.07" y2="1401.27" xlink:href="#New_Gradient_Swatch_copy_6"/><linearGradient id="New_Gradient_Swatch_copy_6-16" x1="1559.29" y1="1317.21" x2="1651.1" y2="1317.21" xlink:href="#New_Gradient_Swatch_copy_6"/><linearGradient id="New_Gradient_Swatch_copy_6-17" x1="1450.99" y1="1457.29" x2="1541.04" y2="1457.29" xlink:href="#New_Gradient_Swatch_copy_6"/><linearGradient id="New_Gradient_Swatch_copy_6-18" x1="1450.99" y1="1485.33" x2="1541.04" y2="1485.33" xlink:href="#New_Gradient_Swatch_copy_6"/><linearGradient id="New_Gradient_Swatch_copy_6-19" x1="1379.19" y1="1531.27" x2="1474.87" y2="1531.27" xlink:href="#New_Gradient_Swatch_copy_6"/><linearGradient id="New_Gradient_Swatch_copy_6-20" x1="1450.99" y1="1587.29" x2="1541.04" y2="1587.29" xlink:href="#New_Gradient_Swatch_copy_6"/><linearGradient id="New_Gradient_Swatch_copy_6-21" x1="1450.99" y1="1615.26" x2="1541.04" y2="1615.26" xlink:href="#New_Gradient_Swatch_copy_6"/><linearGradient id="New_Gradient_Swatch_copy_6-22" x1="1513.49" y1="1643.31" x2="1601.07" y2="1643.31" xlink:href="#New_Gradient_Swatch_copy_6"/><linearGradient id="New_Gradient_Swatch_copy_6-23" x1="1559.29" y1="1559.24" x2="1651.1" y2="1559.24" xlink:href="#New_Gradient_Swatch_copy_6"/><linearGradient id="New_Gradient_Swatch_copy_6-24" x1="1450.99" y1="1699.32" x2="1541.04" y2="1699.32" xlink:href="#New_Gradient_Swatch_copy_6"/><linearGradient id="New_Gradient_Swatch_copy_6-25" x1="1450.99" y1="1727.37" x2="1541.04" y2="1727.37" xlink:href="#New_Gradient_Swatch_copy_6"/><linearGradient id="New_Gradient_Swatch_copy_6-26" x1="1766.16" y1="1037.12" x2="1818.66" y2="1037.12" xlink:href="#New_Gradient_Swatch_copy_6"/><linearGradient id="New_Gradient_Swatch_copy_6-27" x1="1626.08" y1="1093.14" x2="1691.19" y2="1093.14" xlink:href="#New_Gradient_Swatch_copy_6"/><linearGradient id="New_Gradient_Swatch_copy_6-28" x1="1667.66" y1="1177.2" x2="1705.99" y2="1177.2" xlink:href="#New_Gradient_Swatch_copy_6"/><linearGradient id="New_Gradient_Swatch_copy_6-29" x1="1507.07" y1="1289.23" x2="1597.62" y2="1289.23" xlink:href="#New_Gradient_Swatch_copy_6"/><linearGradient id="New_Gradient_Swatch_copy_6-30" x1="1696.13" y1="1345.25" x2="1772.36" y2="1345.25" xlink:href="#New_Gradient_Swatch_copy_6"/><linearGradient id="New_Gradient_Swatch_copy_6-31" x1="1738.4" y1="1457.29" x2="1778.85" y2="1457.29" xlink:href="#New_Gradient_Swatch_copy_6"/><linearGradient id="New_Gradient_Swatch_copy_6-32" x1="1667.66" y1="1485.33" x2="1705.99" y2="1485.33" xlink:href="#New_Gradient_Swatch_copy_6"/><linearGradient id="New_Gradient_Swatch_copy_6-33" x1="1620.8" y1="1531.27" x2="1666.53" y2="1531.27" xlink:href="#New_Gradient_Swatch_copy_6"/><linearGradient id="New_Gradient_Swatch_copy_6-34" x1="1568.52" y1="1615.26" x2="1638.56" y2="1615.26" xlink:href="#New_Gradient_Swatch_copy_6"/><linearGradient id="New_Gradient_Swatch_copy_6-35" x1="1792.38" y1="1587.29" x2="1838.74" y2="1587.29" xlink:href="#New_Gradient_Swatch_copy_6"/><linearGradient id="New_Gradient_Swatch_copy_6-36" x1="1738.4" y1="1699.32" x2="1778.85" y2="1699.32" xlink:href="#New_Gradient_Swatch_copy_6"/><linearGradient id="New_Gradient_Swatch_copy_6-37" x1="1667.66" y1="1727.37" x2="1705.99" y2="1727.37" xlink:href="#New_Gradient_Swatch_copy_6"/><linearGradient id="New_Gradient_Swatch_copy_13-9" x1="1379.19" y1="1009.07" x2="1533.5" y2="1009.07" xlink:href="#New_Gradient_Swatch_copy_13"/><linearGradient id="New_Gradient_Swatch_copy_13-10" x1="1507.07" y1="981.1" x2="1670.27" y2="981.1" xlink:href="#New_Gradient_Swatch_copy_13"/><linearGradient id="New_Gradient_Swatch_copy_13-11" x1="1568.52" y1="1037.12" x2="1621.08" y2="1037.12" xlink:href="#New_Gradient_Swatch_copy_13"/><linearGradient id="New_Gradient_Swatch_copy_13-12" x1="1678.58" y1="1065.09" x2="1792.31" y2="1065.09" xlink:href="#New_Gradient_Swatch_copy_13"/><linearGradient id="New_Gradient_Swatch_copy_13-13" x1="1568.52" y1="1177.2" x2="1649.62" y2="1177.2" xlink:href="#New_Gradient_Swatch_copy_13"/><linearGradient id="New_Gradient_Swatch_copy_13-14" x1="1738.4" y1="1149.15" x2="1778.85" y2="1149.15" xlink:href="#New_Gradient_Swatch_copy_13"/><linearGradient id="New_Gradient_Swatch_copy_13-15" x1="1568.52" y1="1233.21" x2="1733.61" y2="1233.21" xlink:href="#New_Gradient_Swatch_copy_13"/><linearGradient id="New_Gradient_Swatch_copy_13-16" x1="1646.1" y1="1205.17" x2="1746.15" y2="1205.17" xlink:href="#New_Gradient_Swatch_copy_13"/><linearGradient id="New_Gradient_Swatch_copy_13-17" x1="1379.19" y1="1317.21" x2="1533.5" y2="1317.21" xlink:href="#New_Gradient_Swatch_copy_13"/><linearGradient id="New_Gradient_Swatch_copy_13-18" x1="1696.13" y1="1289.23" x2="1841.56" y2="1289.23" xlink:href="#New_Gradient_Swatch_copy_13"/><linearGradient id="New_Gradient_Swatch_copy_13-19" x1="1658.57" y1="1373.26" x2="1792.31" y2="1373.26" xlink:href="#New_Gradient_Swatch_copy_13"/><linearGradient id="New_Gradient_Swatch_copy_13-20" x1="1568.52" y1="1457.29" x2="1716.77" y2="1457.29" xlink:href="#New_Gradient_Swatch_copy_13"/><linearGradient id="New_Gradient_Swatch_copy_13-21" x1="1568.52" y1="1485.33" x2="1649.62" y2="1485.33" xlink:href="#New_Gradient_Swatch_copy_13"/><linearGradient id="New_Gradient_Swatch_copy_13-22" x1="1379.19" y1="1559.24" x2="1533.5" y2="1559.24" xlink:href="#New_Gradient_Swatch_copy_13"/><linearGradient id="New_Gradient_Swatch_copy_13-23" x1="1507.07" y1="1531.27" x2="1597.62" y2="1531.27" xlink:href="#New_Gradient_Swatch_copy_13"/><linearGradient id="New_Gradient_Swatch_copy_13-24" x1="1568.52" y1="1587.29" x2="1671.11" y2="1587.29" xlink:href="#New_Gradient_Swatch_copy_13"/><linearGradient id="New_Gradient_Swatch_copy_13-25" x1="1658.57" y1="1615.26" x2="1792.31" y2="1615.26" xlink:href="#New_Gradient_Swatch_copy_13"/><linearGradient id="New_Gradient_Swatch_copy_13-26" x1="1568.52" y1="1699.32" x2="1716.77" y2="1699.32" xlink:href="#New_Gradient_Swatch_copy_13"/><linearGradient id="New_Gradient_Swatch_copy_10-8" x1="1693.52" y1="981.1" x2="1771.45" y2="981.1" gradientTransform="matrix(1, 0, 0, 1, 0, 0)" xlink:href="#New_Gradient_Swatch_copy_10"/><linearGradient id="New_Gradient_Swatch_copy_10-9" x1="1801.04" y1="981.1" x2="1906.24" y2="981.1" gradientTransform="matrix(1, 0, 0, 1, 0, 0)" xlink:href="#New_Gradient_Swatch_copy_10"/><linearGradient id="New_Gradient_Swatch_copy_10-10" x1="1568.52" y1="1065.09" x2="1658.57" y2="1065.09" gradientTransform="matrix(1, 0, 0, 1, 0, 0)" xlink:href="#New_Gradient_Swatch_copy_10"/><linearGradient id="New_Gradient_Swatch_copy_10-11" x1="1646.1" y1="1037.12" x2="1746.15" y2="1037.12" gradientTransform="matrix(1, 0, 0, 1, 0, 0)" xlink:href="#New_Gradient_Swatch_copy_10"/><linearGradient id="New_Gradient_Swatch_copy_10-12" x1="1841.21" y1="1037.12" x2="1906.24" y2="1037.12" gradientTransform="matrix(1, 0, 0, 1, 0, 0)" xlink:href="#New_Gradient_Swatch_copy_10"/><linearGradient id="New_Gradient_Swatch_copy_10-13" x1="1809.29" y1="1065.09" x2="1843.25" y2="1065.09" gradientTransform="matrix(1, 0, 0, 1, 0, 0)" xlink:href="#New_Gradient_Swatch_copy_10"/><linearGradient id="New_Gradient_Swatch_copy_10-14" x1="1568.52" y1="1149.15" x2="1621.08" y2="1149.15" gradientTransform="matrix(1, 0, 0, 1, 0, 0)" xlink:href="#New_Gradient_Swatch_copy_10"/><linearGradient id="New_Gradient_Swatch_copy_10-15" x1="1646.1" y1="1149.15" x2="1723.04" y2="1149.15" gradientTransform="matrix(1, 0, 0, 1, 0, 0)" xlink:href="#New_Gradient_Swatch_copy_10"/><linearGradient id="New_Gradient_Swatch_copy_10-16" x1="1796.18" y1="1149.15" x2="1846.21" y2="1149.15" gradientTransform="matrix(1, 0, 0, 1, 0, 0)" xlink:href="#New_Gradient_Swatch_copy_10"/><linearGradient id="New_Gradient_Swatch_copy_10-17" x1="1728.54" y1="1177.2" x2="1818.66" y2="1177.2" gradientTransform="matrix(1, 0, 0, 1, 0, 0)" xlink:href="#New_Gradient_Swatch_copy_10"/><linearGradient id="New_Gradient_Swatch_copy_10-18" x1="1568.52" y1="1205.17" x2="1621.08" y2="1205.17" gradientTransform="matrix(1, 0, 0, 1, 0, 0)" xlink:href="#New_Gradient_Swatch_copy_10"/><linearGradient id="New_Gradient_Swatch_copy_10-19" x1="1766.16" y1="1205.17" x2="1818.66" y2="1205.17" gradientTransform="matrix(1, 0, 0, 1, 0, 0)" xlink:href="#New_Gradient_Swatch_copy_10"/><linearGradient id="New_Gradient_Swatch_copy_10-20" x1="1841.21" y1="1205.17" x2="1906.24" y2="1205.17" gradientTransform="matrix(1, 0, 0, 1, 0, 0)" xlink:href="#New_Gradient_Swatch_copy_10"/><linearGradient id="New_Gradient_Swatch_copy_10-21" x1="1753.62" y1="1233.21" x2="1846.21" y2="1233.21" gradientTransform="matrix(1, 0, 0, 1, 0, 0)" xlink:href="#New_Gradient_Swatch_copy_10"/><linearGradient id="New_Gradient_Swatch_copy_10-22" x1="1620.8" y1="1289.23" x2="1666.53" y2="1289.23" gradientTransform="matrix(1, 0, 0, 1, 0, 0)" xlink:href="#New_Gradient_Swatch_copy_10"/><linearGradient id="New_Gradient_Swatch_copy_10-23" x1="1568.52" y1="1345.25" x2="1671.11" y2="1345.25" gradientTransform="matrix(1, 0, 0, 1, 0, 0)" xlink:href="#New_Gradient_Swatch_copy_10"/><linearGradient id="New_Gradient_Swatch_copy_10-24" x1="1568.52" y1="1373.26" x2="1638.56" y2="1373.26" gradientTransform="matrix(1, 0, 0, 1, 0, 0)" xlink:href="#New_Gradient_Swatch_copy_10"/><linearGradient id="New_Gradient_Swatch_copy_10-25" x1="1809.29" y1="1373.26" x2="1843.25" y2="1373.26" gradientTransform="matrix(1, 0, 0, 1, 0, 0)" xlink:href="#New_Gradient_Swatch_copy_10"/><linearGradient id="New_Gradient_Swatch_copy_10-26" x1="1626.08" y1="1401.27" x2="1691.19" y2="1401.27" gradientTransform="matrix(1, 0, 0, 1, 0, 0)" xlink:href="#New_Gradient_Swatch_copy_10"/><linearGradient id="New_Gradient_Swatch_copy_10-27" x1="1705.64" y1="1401.27" x2="1826.83" y2="1401.27" gradientTransform="matrix(1, 0, 0, 1, 0, 0)" xlink:href="#New_Gradient_Swatch_copy_10"/><linearGradient id="New_Gradient_Swatch_copy_10-28" x1="1844.87" y1="1401.27" x2="1881.09" y2="1401.27" gradientTransform="matrix(1, 0, 0, 1, 0, 0)" xlink:href="#New_Gradient_Swatch_copy_10"/><linearGradient id="New_Gradient_Swatch_copy_10-29" x1="1796.18" y1="1457.29" x2="1846.21" y2="1457.29" gradientTransform="matrix(1, 0, 0, 1, 0, 0)" xlink:href="#New_Gradient_Swatch_copy_10"/><linearGradient id="New_Gradient_Swatch_copy_10-30" x1="1728.54" y1="1485.33" x2="1818.66" y2="1485.33" gradientTransform="matrix(1, 0, 0, 1, 0, 0)" xlink:href="#New_Gradient_Swatch_copy_10"/><linearGradient id="New_Gradient_Swatch_copy_10-31" x1="1696.13" y1="1531.27" x2="1906.24" y2="1531.27" gradientTransform="matrix(1, 0, 0, 1, 0, 0)" xlink:href="#New_Gradient_Swatch_copy_10"/><linearGradient id="New_Gradient_Swatch_copy_10-32" x1="1696.13" y1="1587.29" x2="1772.36" y2="1587.29" gradientTransform="matrix(1, 0, 0, 1, 0, 0)" xlink:href="#New_Gradient_Swatch_copy_10"/><linearGradient id="New_Gradient_Swatch_copy_10-33" x1="1861.29" y1="1587.29" x2="1906.24" y2="1587.29" gradientTransform="matrix(1, 0, 0, 1, 0, 0)" xlink:href="#New_Gradient_Swatch_copy_10"/><linearGradient id="New_Gradient_Swatch_copy_10-34" x1="1809.29" y1="1615.26" x2="1843.25" y2="1615.26" gradientTransform="matrix(1, 0, 0, 1, 0, 0)" xlink:href="#New_Gradient_Swatch_copy_10"/><linearGradient id="New_Gradient_Swatch_copy_10-35" x1="1626.08" y1="1643.31" x2="1691.19" y2="1643.31" gradientTransform="matrix(1, 0, 0, 1, 0, 0)" xlink:href="#New_Gradient_Swatch_copy_10"/><linearGradient id="New_Gradient_Swatch_copy_10-36" x1="1568.52" y1="1727.37" x2="1649.62" y2="1727.37" gradientTransform="matrix(1, 0, 0, 1, 0, 0)" xlink:href="#New_Gradient_Swatch_copy_10"/><linearGradient id="New_Gradient_Swatch_copy_10-37" x1="1796.18" y1="1699.32" x2="1846.21" y2="1699.32" gradientTransform="matrix(1, 0, 0, 1, 0, 0)" xlink:href="#New_Gradient_Swatch_copy_10"/><linearGradient id="New_Gradient_Swatch_copy_10-38" x1="1728.54" y1="1727.37" x2="1818.66" y2="1727.37" gradientTransform="matrix(1, 0, 0, 1, 0, 0)" xlink:href="#New_Gradient_Swatch_copy_10"/><linearGradient id="New_Gradient_Swatch_copy_4-38" x1="1633.38" y1="788.8" x2="1633.38" y2="938.32" xlink:href="#New_Gradient_Swatch_copy_4"/><linearGradient id="New_Gradient_Swatch_copy_13-27" x1="1688.07" y1="1266.15" x2="1725.14" y2="1266.15" gradientTransform="translate(614.44 -556.71) rotate(22.5)" xlink:href="#New_Gradient_Swatch_copy_13"/><linearGradient id="New_Gradient_Swatch_copy_9-5" x1="1742.53" y1="1266.15" x2="1779.61" y2="1266.15" gradientTransform="translate(2588.73 -738.71) rotate(76.72)" xlink:href="#New_Gradient_Swatch_copy_9"/><linearGradient id="New_Gradient_Swatch_copy_10-39" x1="1796.99" y1="1266.15" x2="1834.07" y2="1266.15" gradientTransform="translate(1427.06 -912.93) rotate(45)" xlink:href="#New_Gradient_Swatch_copy_10"/><linearGradient id="New_Gradient_Swatch_copy_6-38" x1="1708.86" y1="1361.7" x2="1746.84" y2="1361.7" xlink:href="#New_Gradient_Swatch_copy_6"/><linearGradient id="New_Gradient_Swatch_copy_6-39" x1="1750.48" y1="1361.72" x2="1769.65" y2="1361.72" xlink:href="#New_Gradient_Swatch_copy_6"/><linearGradient id="New_Gradient_Swatch_copy_6-40" x1="1773.06" y1="1361.7" x2="1811.04" y2="1361.7" xlink:href="#New_Gradient_Swatch_copy_6"/><linearGradient id="linear-gradient-11" x1="8682.43" y1="2150.71" x2="8871.46" y2="2037.29" gradientTransform="matrix(-1, 0.08, 0.08, 1, 9248.6, -821.61)" gradientUnits="userSpaceOnUse"><stop offset="0" stop-color="#f48697"/><stop offset="0.22" stop-color="#f18295"/><stop offset="0.44" stop-color="#e6768d"/><stop offset="0.66" stop-color="#d56281"/><stop offset="0.88" stop-color="#bd4570"/><stop offset="1" stop-color="#ad3265"/></linearGradient><linearGradient id="linear-gradient-12" x1="8590.47" y1="2223.67" x2="8754.93" y2="2227.45" gradientTransform="matrix(-1, 0.08, 0.08, 1, 9248.6, -821.61)" gradientUnits="userSpaceOnUse"><stop offset="0" stop-color="#5a5c69"/><stop offset="0.26" stop-color="#515562"/><stop offset="0.68" stop-color="#38404e"/><stop offset="1" stop-color="#212d3b"/></linearGradient><linearGradient id="linear-gradient-13" x1="8560.61" y1="2198.52" x2="8927.32" y2="2294.93" xlink:href="#linear-gradient-12"/><linearGradient id="New_Gradient_Swatch_copy_13-28" x1="8696.51" y1="2145.25" x2="9070.77" y2="2043.18" gradientTransform="matrix(-1, 0.08, 0.08, 1, 9248.6, -821.61)" xlink:href="#New_Gradient_Swatch_copy_13"/><linearGradient id="New_Gradient_Swatch_copy_13-29" x1="8798.77" y1="2124.92" x2="9014.26" y2="2037.97" gradientTransform="matrix(-1, 0.08, 0.08, 1, 9248.6, -821.61)" xlink:href="#New_Gradient_Swatch_copy_13"/><linearGradient id="New_Gradient_Swatch_copy_5" x1="8858.14" y1="2194.05" x2="8811.83" y2="2188.85" gradientTransform="matrix(-1, -0.1, -0.1, 1, 9638.35, 795.26)" gradientUnits="userSpaceOnUse"><stop offset="0" stop-color="#767aa4"/><stop offset="0.55" stop-color="#5e6182"/><stop offset="1" stop-color="#4d506a"/></linearGradient><linearGradient id="New_Gradient_Swatch_copy_5-2" x1="8678.81" y1="2141.21" x2="8811.83" y2="2141.21" gradientTransform="matrix(-1, 0.08, 0.08, 1, 8893.9, -1240.99)" xlink:href="#New_Gradient_Swatch_copy_5"/><linearGradient id="New_Gradient_Swatch_copy_5-3" x1="8825.56" y1="2140.68" x2="8791.06" y2="2150.13" gradientTransform="matrix(-1, 0.08, 0.08, 1, 8893.9, -1240.99)" xlink:href="#New_Gradient_Swatch_copy_5"/><linearGradient id="New_Gradient_Swatch_copy_6-41" x1="8736.88" y1="2141.07" x2="8751" y2="2141.07" gradientTransform="matrix(-1, 0.08, 0.08, 1, 9248.6, -821.61)" xlink:href="#New_Gradient_Swatch_copy_6"/><linearGradient id="New_Gradient_Swatch_copy_10-40" x1="6009.15" y1="1680.95" x2="5942.58" y2="1659.65" gradientTransform="matrix(-1, 0, 0, 1, 8367.43, 0)" xlink:href="#New_Gradient_Swatch_copy_10"/><linearGradient id="linear-gradient-14" x1="5718.07" y1="2033.23" x2="6021.64" y2="1939.15" gradientTransform="matrix(-1, 0, 0, 1, 8367.43, 0)" xlink:href="#linear-gradient-12"/><linearGradient id="linear-gradient-15" x1="6050.2" y1="1991.65" x2="5801.67" y2="2009.4" gradientTransform="matrix(-1, 0, 0, 1, 8367.43, 0)" xlink:href="#linear-gradient-12"/><linearGradient id="New_Gradient_Swatch_copy_10-41" x1="6047.1" y1="1912.09" x2="5764.84" y2="1603.2" gradientTransform="matrix(-1, 0, 0, 1, 8367.43, 0)" xlink:href="#New_Gradient_Swatch_copy_10"/><linearGradient id="New_Gradient_Swatch_copy_10-42" x1="5766.16" y1="1706.82" x2="5853.39" y2="1626.64" gradientTransform="matrix(-1, 0, 0, 1, 8367.43, 0)" xlink:href="#New_Gradient_Swatch_copy_10"/></defs><title>vector-three</title><g class="cls-1"><g id="Layer_1" data-name="Layer 1"><path class="cls-2" d="M879,718.23l4.38,42.49L900.23,759a111.87,111.87,0,0,0,21.41,39.7L911,811.8l33.14,27,10.66-13.11A112,112,0,0,0,998,838.49l1.74,16.86,42.49-4.38-1.73-16.86a111.93,111.93,0,0,0,39.7-21.4l13.11,10.66,27-33.14-13.11-10.67A111.93,111.93,0,0,0,1120,736.33l16.86-1.74-4.38-42.49-16.86,1.74a111.71,111.71,0,0,0-21.41-39.7L1104.89,641l-33.14-26.94-10.66,13.11a111.93,111.93,0,0,0-43.23-12.86l-1.74-16.86-42.49,4.38,1.74,16.86a111.89,111.89,0,0,0-39.71,21.4l-13.11-10.66L895.6,662.59l13.12,10.67a111.59,111.59,0,0,0-12.86,43.23Zm121.52-63.78A72.34,72.34,0,1,1,936,733.83,72.35,72.35,0,0,1,1000.52,654.45Z" transform="translate(-354.7 -419.38)"/><path class="cls-3" d="M1009.67,743.25a16.93,16.93,0,1,0-18.57-15.11A16.93,16.93,0,0,0,1009.67,743.25Z" transform="translate(-354.7 -419.38)"/><path class="cls-4" d="M1154,815.58l2.59,25.14,10-1a66.47,66.47,0,0,0,12.66,23.49l-6.3,7.76,19.61,15.94,6.3-7.76a66.23,66.23,0,0,0,25.58,7.61l1,10,25.14-2.59-1-10A66.17,66.17,0,0,0,1273,871.47l7.76,6.31,15.94-19.61-7.76-6.3a66.28,66.28,0,0,0,7.61-25.58l10-1-2.59-25.14-10,1a66.31,66.31,0,0,0-12.66-23.49l6.31-7.75L1268,754l-6.31,7.75a66.44,66.44,0,0,0-25.58-7.6l-1-10L1210,746.73l1,10a66.17,66.17,0,0,0-23.49,12.67l-7.76-6.31-15.94,19.6,7.76,6.31a66.23,66.23,0,0,0-7.61,25.58Zm71.89-37.73a42.8,42.8,0,1,1-38.18,47A42.79,42.79,0,0,1,1225.86,777.85Z" transform="translate(-354.7 -419.38)"/><path class="cls-5" d="M1231.28,830.38a10,10,0,1,0-11-8.93A10,10,0,0,0,1231.28,830.38Z" transform="translate(-354.7 -419.38)"/><path class="cls-6" d="M1092.7,537l4.26,41.4,16.42-1.69a109.15,109.15,0,0,0,20.86,38.68l-10.39,12.78,32.3,26.26,10.39-12.78a109,109,0,0,0,42.12,12.53l1.69,16.43,41.41-4.27L1250.07,650a109.06,109.06,0,0,0,38.68-20.85l12.77,10.39,26.26-32.3L1315,596.8a109.12,109.12,0,0,0,12.53-42.12L1344,553l-4.27-41.4-16.42,1.69a109.12,109.12,0,0,0-20.86-38.69l10.39-12.77-32.29-26.26-10.39,12.77A109.17,109.17,0,0,0,1228,435.8l-1.69-16.42-41.4,4.27,1.69,16.42a109,109,0,0,0-38.68,20.86l-12.78-10.39-26.26,32.29,12.78,10.39a109.22,109.22,0,0,0-12.53,42.13Zm118.4-62.14a70.49,70.49,0,1,1-62.89,77.34A70.49,70.49,0,0,1,1211.1,474.9Z" transform="translate(-354.7 -419.38)"/><path class="cls-7" d="M1220,561.42a16.49,16.49,0,1,0-18.1-14.72A16.49,16.49,0,0,0,1220,561.42Z" transform="translate(-354.7 -419.38)"/><path class="cls-8" d="M527.67,1591c39.93,40.65,89.87,54.49,121,36.38,32.21,5.88,72.85-14.16,102.49-54.16,41.89-56.53,42.86-125.46,8.94-153.18-15.16-12.39-21.77-32.43-18.27-51.69,10.51-57.81.62-117-32.67-127.8-7.19-2.32-14.7-1.89-22.21.93a28.12,28.12,0,0,1-37.18-20.34c-11.66-51.46-36.81-92.42-63-88.8-19.16,2.64-32.41,29.71-36,67.47-1.45,15.1-13.92,27.2-29.09,27.18a30.94,30.94,0,0,0-13.77,3.1c-34,16.65-31.37,88.87-3.25,150.53,9.1,20,5.79,43.62-9.06,59.77C466.6,1471.89,477.39,1539.85,527.67,1591Z" transform="translate(-354.7 -419.38)"/><path class="cls-9" d="M620.35,1768.52c76.32-105.6-17.92-523.72-22-541.47l-3.58.82c1,4.33,97.93,434.24,22.58,538.5Z" transform="translate(-354.7 -419.38)"/><path class="cls-9" d="M629.18,1416.59l3.66-.1c-1.2-43.52,39.09-89,39.5-89.46l-2.73-2.44C667.9,1326.48,627.93,1371.6,629.18,1416.59Z" transform="translate(-354.7 -419.38)"/><path class="cls-9" d="M623.83,1381.49l3.49-1.15c-21.13-64.11-84.65-64.74-85.57-64.74h0v3.67h0C542.53,1319.27,603.53,1319.9,623.83,1381.49Z" transform="translate(-354.7 -419.38)"/><path class="cls-9" d="M645.31,1579.39l3.64-.45c-5.78-47.23,60.69-93.53,61.36-94l-2.08-3C705.41,1483.86,639.26,1530,645.31,1579.39Z" transform="translate(-354.7 -419.38)"/><path class="cls-9" d="M649.59,1598.07c1.41-68.34-85.88-103.17-86.76-103.51l-1.34,3.42c.86.34,85.79,34.25,84.43,100Z" transform="translate(-354.7 -419.38)"/><path class="cls-9" d="M637.54,1482.1l3.65-.39c-2.21-20.87-29.24-40.49-30.39-41.32l-2.14,3C608.93,1443.57,635.5,1462.87,637.54,1482.1Z" transform="translate(-354.7 -419.38)"/><path class="cls-9" d="M640,1505.09l3.66-.31c-3.45-41,28.74-69.76,29.06-70l-2.43-2.76C669.91,1432.28,636.35,1462.31,640,1505.09Z" transform="translate(-354.7 -419.38)"/><path class="cls-9" d="M609.71,1300.66l3.61-.67c-3-16.18,13.27-33.88,13.44-34.06l-2.69-2.5C623.35,1264.2,606.35,1282.65,609.71,1300.66Z" transform="translate(-354.7 -419.38)"/><path class="cls-9" d="M604.92,1276l3.61-.65c-3.64-20.15-26.93-25.84-27.92-26.07l-.84,3.58C580,1252.92,601.7,1258.25,604.92,1276Z" transform="translate(-354.7 -419.38)"/><path class="cls-10" d="M527.89,1331.68c57.33,123,82.31,235.61,93,303.43-28.79,1.31-63.74-14-93.24-44.07-50.28-51.19-61.07-119.15-32.14-150.61,14.85-16.15,18.16-39.8,9.06-59.77-17.59-38.56-25.22-81.26-20.14-111.9C500.43,1284.12,515.85,1305.86,527.89,1331.68Z" transform="translate(-354.7 -419.38)"/><path class="cls-11" d="M490.84,1758.11c54.16,25.8,111.61,22.55,140-5.12,0,0-8.41-171.47-100.82-369.73-27.93-59.94-74.13-98-103.19-85-19.87,8.9-26.57,39.38-19.88,76.93a30.8,30.8,0,0,1-22.36,35.09,39,39,0,0,0-15.27,7.93c-28.42,24.26-14,86.43,32.19,138.86a232.74,232.74,0,0,0,21.88,21.78c9.71,8.45,10.44,23.4,1.31,32.36a58.16,58.16,0,0,0-11.63,16.1C392.59,1669.36,427.43,1727.9,490.84,1758.11Z" transform="translate(-354.7 -419.38)"/><path class="cls-12" d="M620.26,1929.49c16.79-53.52,19.86-116,9.1-185.57-8.6-55.66-26-116-51.72-179.37-43.78-107.87-97.24-188.15-97.78-189l-1.15.78c.53.8,53.92,81,97.65,188.72,40.33,99.38,80.46,243.2,42.57,364Z" transform="translate(-354.7 -419.38)"/><path class="cls-12" d="M580.94,1576.57l1.22-.67c-23-42.29-58.41-61.75-84.09-70.63-27.82-9.61-50.52-9.23-50.76-9.21l0,1.39C448.24,1497.43,537.4,1496.42,580.94,1576.57Z" transform="translate(-354.7 -419.38)"/><path class="cls-12" d="M622.16,1712l1.3-.49c-14.31-38.12-59.84-40.61-60.3-40.63l-.06,1.39C563.55,1672.34,608.17,1674.79,622.16,1712Z" transform="translate(-354.7 -419.38)"/><path class="cls-12" d="M548.13,1501.36l1.26-.62c-.12-.22-11-23-5.55-63.5l-1.38-.18C536.94,1478,548,1501.13,548.13,1501.36Z" transform="translate(-354.7 -419.38)"/><path class="cls-10" d="M426.89,1687.63a20.21,20.21,0,0,0,9.86-25.24c-8.75-23.24-8.21-43.6,3.24-51.74,16.76-11.91,50.5,6.8,75.37,41.78A761.08,761.08,0,0,1,585.6,1774c-28,4.65-62-.26-94.76-15.88-33.08-15.76-58.36-39.23-72.1-64A25.44,25.44,0,0,1,426.89,1687.63Z" transform="translate(-354.7 -419.38)"/><path class="cls-13" d="M538.46,1927.48c37.28,9.88,73.13.74,87.66-20.48,0,0-26-108.86-108.29-224.58-24.86-35-58.6-53.69-75.36-41.78-11.46,8.14-12,28.5-3.24,51.74a20.23,20.23,0,0,1-9.86,25.24,25.26,25.26,0,0,0-8.68,7c-15,19,1.62,57.12,37.1,85.05a150.64,150.64,0,0,0,16.43,11.27,14.54,14.54,0,0,1,4.74,20.58,38,38,0,0,0-5.39,11.75C465.76,1882.66,494.82,1915.91,538.46,1927.48Z" transform="translate(-354.7 -419.38)"/><path class="cls-12" d="M640.82,2021.42c4.12-36.36-1.5-76.75-16.69-120.05-12.16-34.61-30.43-71.15-54.31-108.61-40.66-63.75-84.08-108.64-84.51-109.08l-.65.63c.43.44,43.8,45.27,84.41,109,37.45,58.75,80.15,146,70.85,228.06Z" transform="translate(-354.7 -419.38)"/><path class="cls-12" d="M573.34,1800.05l.71-.56c-37.52-46.48-94.15-34.74-94.73-34.62l.2.89C480.08,1765.63,536.19,1754,573.34,1800.05Z" transform="translate(-354.7 -419.38)"/><path class="cls-12" d="M615.72,1881.82l.77-.47c-13.64-22.68-42.66-18.68-43-18.63l.13.89C574,1863.56,602.39,1859.66,615.72,1881.82Z" transform="translate(-354.7 -419.38)"/><path class="cls-12" d="M543.56,1755.88l.72-.54c-.09-.13-9.72-13.4-11.17-40l-.9,0C533.68,1742.29,543.46,1755.75,543.56,1755.88Z" transform="translate(-354.7 -419.38)"/><path class="cls-14" d="M2365.08,917c-51.72-19.68-5.09-42.69,27.38-51.88,26.26-7.43,92-19.55,65.34-64.38-28-47-54.74,11-77,17.59-49.71,14.64,2-47.72,14.37-64.35,16.92-22.78,52.51-69.32,8.56-77.08-35.54-6.27-72.34,43.25-87.09,67.93-10.51,17.59-36.35,100-63.25,81.73-20.36-13.83.7-96.34-47.91-37.37-19.77,24-16.58,62.52-25.49,89.95-13.05,40.18-18.56,56.83-54.22,46.51-18.48-5.34-19.08-28.54-41.89-12.87-11.74,8.06-15.22,45.19-15.12,58.08.91,118.43,48.26,197.75,70.6,208,30.24,13.84,86.44-6.16,112.3-21,12.86-7.39,36.31-19.59,34.66-38.31-1.86-21-34.29-18-35.5-30.33-3.41-35,61-1.56,78.79-6.55,23.08-6.46,61.32-47.7,37.1-69.52-2.48-2.24-103.1-9.53-45.54-41.56,31.86-17.74,66,31.47,96.78-3.47C2462.21,917.83,2384.48,924.4,2365.08,917Z" transform="translate(-354.7 -419.38)"/><path class="cls-15" d="M2356.5,935.65c-22.22-9.38-45.19-17.85-69.39-19.91,17-21.27,34.86-42.34,47.82-66,3.65-6.66-7.24-11.26-10.86-4.64-1.58,2.88-3.34,5.68-5.05,8.49-1.87-7.22.37-18,1.05-23.75,1.75-14.88,7.34-28.24,13.19-41.88,3-7-7.86-11.64-10.86-4.64-7.59,17.69-13.57,34.6-14.91,53.93-.66,9.51-1.22,19.81,4.29,27.68-18.3,27.16-41.1,52.18-60.18,78.53-8.16-12.93-14.15-26.39-16.91-41.71-3-16.68-1-33.63-2.7-50.43-.78-7.56-12.5-6.1-11.72,1.47,2.08,20.19-.29,40,4.79,59.93,3.82,15,10.68,28.27,19.2,41.08-21.94,31.72-42.19,64.69-58.84,99.51-5.53,11.56-10.59,23.35-15.47,35.21-11-16.47-20.15-33.64-26.49-52.57-3.53-10.53-7.45-21.68-8.86-32.7-1.07-8.35-.19-16.23-3.47-24.15-2.92-7-13.89-2.64-11,4.39,4,9.71,2.67,22.35,5.22,32.72a303.5,303.5,0,0,0,9,29.67c7.11,19.87,17.58,37.89,29.65,55.1.18.26.41.36.6.57-8.25,20.49-16.32,41.07-25.49,61.11a5.52,5.52,0,0,0-1.82,2.39c-.88,2.25-2.62,5.35-3.2,8.08-16.4,41.4-32.92,82.77-48.8,124.38-2.7,7.08,8.15,11.76,10.87,4.64,15.81-41.46,32.27-82.69,48.62-124a5.59,5.59,0,0,0,.33-.47c5.25-10.81,10.06-21.82,14.7-32.92,21.49,5.47,45.38-.81,65.42-8.86,7.06-2.84,2.67-13.81-4.39-11-17.43,7-37.6,12.44-56.43,8.73,10.33-25.38,20.07-51,31.84-75.76,4.68-9.83,9.69-19.49,14.93-29a6,6,0,0,0,1.21.8c29.3,11.89,60.91,16.65,92.27,11.73,7.5-1.18,6.07-12.91-1.47-11.73-29.39,4.62-58.68.29-86.16-10.86,0,0-.1,0-.16,0,16.14-28.15,34.32-55.14,53.42-81.36,3.25-4.47,6.64-8.88,10.07-13.27a4.91,4.91,0,0,0,4.41,3.12c23.48,1.87,45.52,10,67.06,19.14C2358.86,949.47,2363.52,938.61,2356.5,935.65Z" transform="translate(-354.7 -419.38)"/><path class="cls-16" d="M2047.74,1434.24c30.16-32.33,55.93-66.78,87.87-96.76-27.61-43.73-38.42-125.79-31.39-134.37,15.77-19.28,35.68,10.76,39.61,25.36,7.1,26.45,3.28,81.76-1.33,102.71,3.79-3.38,7.65-6.72,11.64-10q13.14-10.67,26.28-21.4c-8.16-15.49-27.2-47.59-16.6-99.85,1.78-8.76,4.95-20.25,14.29-23.65,13-4.71,13.92,9.82,14.27,19,.6,15.77-1.07,69.9-.43,95.09q26.3-21.45,52.71-42.79c-9.89-32.43-21.72-71.78-7.2-104.73,9.49-21.55,26.46-3.59,30.23,10.66,6.75,25.52,1.76,55.43-7.33,81.48q12.51-10,25-19.91c1.49-1.17,3-2.32,4.52-3.49-6.23-15.5-13.88-29.79-14.48-47.08-.6-17,6.83-32.54,17.78-45.19,4.83-5.58,9.91-13,18-14,11.34-1.32,6.58,10.8,4.45,18.2a458.48,458.48,0,0,0-11,48.07c-1.54,8.87-3.25,17.13-5.51,25.56a65.24,65.24,0,0,0-1.29,8.3q18-13.79,36.65-27c-.78-28.62-1.51-63.24,17.68-86.78,12.59-15.44,22.39,3,22.26,15.49-.2,19.34-8.32,39.39-19.11,56.89q8.22-5.55,16.53-11c9.4-32.21,20.59-72.23,50.57-91.45,19.08-12.22,23.19,11.68,18.66,25.3-4.47,13.45-12.53,26-22.4,37.29,2.63-1.54,5.25-3.11,7.88-4.62,6.2-3.55,12.48-6.84,18.82-9.92,4.25-28.4,9.51-62.85,32.63-82.76,15.09-13,21.52,6.88,19.21,19.13-3.66,19.46-15.62,38.2-29.72,53.76,9.92-4.1,19.95-7.86,30.06-11.43,7-22.37,15.62-49.37,36.72-62.51,13.85-8.62,16.54,8.28,13.13,17.91-4.95,14-15.43,26.57-27.41,36.89,11.13-3.74,22.29-7.44,33.42-11.31,6.44-8.38,13.87-16.72,20.49-23.83,7.84-8.4,17.84-16.54,30.14-15.49,16.2,1.39,19.38,12.85,10.29,25.49A37.48,37.48,0,0,1,2598.4,1068c6.3,1.18,12.16,3.58,16,7.22,10.66,10,.9,19.6-10.67,21.81-12.88,2.47-26.15-2.39-38.64-4.83-9.26-1.81-19-.9-28.31-1.75-7.39,2.49-14.77,5-22.11,7.48,19.18-1.2,40.24,1.09,56.08,10.47,8.79,5.2,17.56,19.89,1.41,22.15-25.92,3.64-51.08-13.4-71.36-26.41l-.23-1.26c-20.66,7.4-41,15.57-60.76,26a78.43,78.43,0,0,1,19.3,2.22c11.26,2.84,25.57,16,8.67,23.72-21.69,9.87-47.13,5.12-69.92-1.1q-30.76,19.26-60.38,40.44c21.5-7.55,46-11.68,67-6.37,12.07,3,27.42,17.2,9.3,25.44-29.06,13.21-64.39,2-92.6-6.23l-.38-.74q-13.72,10.15-27.12,20.64c-4.31,3.38-8.55,6.86-12.83,10.29,29.42-11,62.7-17.76,90.89-11.81,16.13,3.4,36.11,21.29,11.27,33-39.72,18.8-86.6,5.93-124.17-3.46q-18.36,15-36.67,30.13c29.18-1,89.57-6.75,109.21-7,9.18-.1,30.72,2.08,25.55,16.86-2.87,8.19-19.48,15.14-27.47,17-17.82,4.24-83.35-1.84-126.18-11.48-8.72,7.06-17.46,14.09-26.32,21-3.28,2.56-6.48,5.16-9.63,7.79,43.08-5.3,127.79-10,148.19-3.31,10.38,3.42,26.47,11.65,23.89,24.87-2.67,13.7-23.63,12.9-34.39,15.11-24.78,5.09-103.24-8.24-117.39-12.79-10.94-3.52-21.56-9.54-32.12-13.59q-10.5,9.48-20.25,19.43c33.87,7,111.35,17.54,135.59,22.92,11,2.46,36.19,11.12,25.85,27.36-5.74,9-27.57,12.64-37.68,12.67-21.38.07-91.62-23.09-140.24-45.61-20.1,21.85-39.09,44.65-60,67.09C2052.52,1450.27,2041.39,1441.05,2047.74,1434.24Z" transform="translate(-354.7 -419.38)"/><path class="cls-17" d="M1589.36,2035.84H1229.1s-7.3,120.39-21.89,145.93h404C1596.66,2156.23,1589.36,2035.84,1589.36,2035.84Z" transform="translate(-354.7 -419.38)"/><path class="cls-18" d="M1645,2191.8c-21.89-2.74-33.74-10-33.74-10h-404s-11.85,7.3-33.74,10-36.48,4.56-36.48,15.51h544.49C1681.47,2196.36,1666.88,2194.54,1645,2191.8Z" transform="translate(-354.7 -419.38)"/><path class="cls-19" d="M2203.36,1995.72a40.12,40.12,0,0,1-40.13,40.12h-1508a40.12,40.12,0,0,1-40.13-40.12V981.79a40.14,40.14,0,0,1,40.13-40.14h1508a40.14,40.14,0,0,1,40.13,40.14V1995.72Z" transform="translate(-354.7 -419.38)"/><path class="cls-20" d="M2163.23,941.65h-1508a40.14,40.14,0,0,0-40.13,40.14v910.56H2203.36V981.79A40.14,40.14,0,0,0,2163.23,941.65Zm-25.6,893.67H680.83V998.7h1456.8Z" transform="translate(-354.7 -419.38)"/><polygon class="cls-21" points="326.13 579.31 326.13 1415.94 985.87 1415.94 1782.93 1415.94 1782.93 579.31 1497.43 579.31 326.13 579.31"/><path class="cls-22" d="M1589.36,2035.84H1229.1s-1.09,17.91-3.26,41.35h366.78C1590.45,2053.75,1589.36,2035.84,1589.36,2035.84Z" transform="translate(-354.7 -419.38)"/><circle class="cls-23" cx="1054.74" cy="1548.09" r="26.09"/><rect class="cls-24" x="359.23" y="760.2" width="1.42" height="483.69"/><rect class="cls-24" x="445.97" y="807.11" width="1.42" height="322.16"/><rect class="cls-24" x="531.6" y="838.09" width="1.42" height="239.85"/><rect class="cls-24" x="529.6" y="1152.73" width="1.42" height="239.85"/><rect class="cls-24" x="582.07" y="1233.33" width="1.42" height="161.97"/><path class="cls-25" d="M1066,1088.6a12.83,12.83,0,0,1-9.38,5.08v-3.45c5.94-.43,8.7-4,10.24-8.43h3.1v60.32h-4Z" transform="translate(-354.7 -419.38)"/><path class="cls-26" d="M1085,1096.6c0-8.86,4-15.23,13.26-15.23s13.25,6.37,13.25,15.23v30.81c0,8.78-4,15.23-13.25,15.23s-13.26-6.45-13.26-15.23Zm4,31c0,6.63,2.67,11.45,9.3,11.45s9.29-4.82,9.29-11.45v-31.24c0-6.54-2.67-11.35-9.29-11.35s-9.3,4.81-9.3,11.35Z" transform="translate(-354.7 -419.38)"/><path class="cls-27" d="M1135.93,1088.6a12.84,12.84,0,0,1-9.38,5.08v-3.45c5.94-.43,8.69-4,10.24-8.43h3.1v60.32h-4Z" transform="translate(-354.7 -419.38)"/><path class="cls-28" d="M1154.87,1096.6c0-8.86,4-15.23,13.25-15.23s13.25,6.37,13.25,15.23v30.81c0,8.78-4,15.23-13.25,15.23s-13.25-6.45-13.25-15.23Zm4,31c0,6.63,2.66,11.45,9.29,11.45s9.29-4.82,9.29-11.45v-31.24c0-6.54-2.66-11.35-9.29-11.35s-9.29,4.81-9.29,11.35Z" transform="translate(-354.7 -419.38)"/><path class="cls-29" d="M1205.82,1088.6a12.83,12.83,0,0,1-9.38,5.08v-3.45c5.94-.43,8.69-4,10.24-8.43h3.1v60.32h-4Z" transform="translate(-354.7 -419.38)"/><path class="cls-30" d="M1236.47,1088.6a12.84,12.84,0,0,1-9.38,5.08v-3.45c5.94-.43,8.69-4,10.24-8.43h3.1v60.32h-4Z" transform="translate(-354.7 -419.38)"/><path class="cls-31" d="M1255.41,1096.6c0-8.86,4-15.23,13.25-15.23s13.25,6.37,13.25,15.23v30.81c0,8.78-4.05,15.23-13.25,15.23s-13.25-6.45-13.25-15.23Zm3.95,31c0,6.63,2.67,11.45,9.3,11.45s9.29-4.82,9.29-11.45v-31.24c0-6.54-2.67-11.35-9.29-11.35s-9.3,4.81-9.3,11.35Z" transform="translate(-354.7 -419.38)"/><path class="cls-32" d="M1306.36,1088.6a12.83,12.83,0,0,1-9.38,5.08v-3.45c5.94-.43,8.69-4,10.24-8.43h3.1v60.32h-4Z" transform="translate(-354.7 -419.38)"/><path class="cls-33" d="M1325.3,1096.6c0-8.86,4-15.23,13.25-15.23s13.26,6.37,13.26,15.23v30.81c0,8.78-4,15.23-13.26,15.23s-13.25-6.45-13.25-15.23Zm4,31c0,6.63,2.67,11.45,9.29,11.45s9.3-4.82,9.3-11.45v-31.24c0-6.54-2.67-11.35-9.3-11.35s-9.29,4.81-9.29,11.35Z" transform="translate(-354.7 -419.38)"/><path class="cls-34" d="M1376.25,1088.6a12.83,12.83,0,0,1-9.38,5.08v-3.45c5.94-.43,8.7-4,10.24-8.43h3.1v60.32h-4Z" transform="translate(-354.7 -419.38)"/><path class="cls-35" d="M1395.19,1096.6c0-8.86,4-15.23,13.26-15.23s13.25,6.37,13.25,15.23v30.81c0,8.78-4,15.23-13.25,15.23s-13.26-6.45-13.26-15.23Zm4,31c0,6.63,2.67,11.45,9.3,11.45s9.29-4.82,9.29-11.45v-31.24c0-6.54-2.67-11.35-9.29-11.35s-9.3,4.81-9.3,11.35Z" transform="translate(-354.7 -419.38)"/><path class="cls-36" d="M1446.15,1088.6a12.84,12.84,0,0,1-9.38,5.08v-3.45c5.94-.43,8.69-4,10.24-8.43h3.1v60.32h-4Z" transform="translate(-354.7 -419.38)"/><path class="cls-37" d="M1465.09,1096.6c0-8.86,4-15.23,13.25-15.23s13.25,6.37,13.25,15.23v30.81c0,8.78-4,15.23-13.25,15.23s-13.25-6.45-13.25-15.23Zm4,31c0,6.63,2.66,11.45,9.29,11.45s9.3-4.82,9.3-11.45v-31.24c0-6.54-2.67-11.35-9.3-11.35s-9.29,4.81-9.29,11.35Z" transform="translate(-354.7 -419.38)"/><path class="cls-38" d="M1516,1088.6a12.83,12.83,0,0,1-9.38,5.08v-3.45c5.94-.43,8.69-4,10.24-8.43h3.1v60.32h-4Z" transform="translate(-354.7 -419.38)"/><path class="cls-39" d="M1535,1096.6c0-8.86,4-15.23,13.26-15.23s13.25,6.37,13.25,15.23v30.81c0,8.78-4,15.23-13.25,15.23s-13.26-6.45-13.26-15.23Zm4,31c0,6.63,2.67,11.45,9.3,11.45s9.29-4.82,9.29-11.45v-31.24c0-6.54-2.67-11.35-9.29-11.35s-9.3,4.81-9.3,11.35Z" transform="translate(-354.7 -419.38)"/><path class="cls-40" d="M1585.94,1088.6a12.84,12.84,0,0,1-9.38,5.08v-3.45c5.94-.43,8.69-4,10.24-8.43h3.1v60.32h-4Z" transform="translate(-354.7 -419.38)"/><path class="cls-41" d="M1614.29,1088.6a12.83,12.83,0,0,1-9.38,5.08v-3.45c5.94-.43,8.69-4,10.24-8.43h3.1v60.33h-4Z" transform="translate(-354.7 -419.38)"/><path class="cls-42" d="M1633.23,1096.6c0-8.86,4-15.23,13.25-15.23s13.26,6.37,13.26,15.23v30.81c0,8.78-4,15.23-13.26,15.23s-13.25-6.45-13.25-15.23Zm4,31c0,6.63,2.67,11.45,9.29,11.45s9.3-4.82,9.3-11.45v-31.24c0-6.54-2.67-11.35-9.3-11.35s-9.29,4.81-9.29,11.35Z" transform="translate(-354.7 -419.38)"/><path class="cls-43" d="M1684.18,1088.6a12.83,12.83,0,0,1-9.38,5.08v-3.45c5.94-.43,8.7-4,10.24-8.43h3.1v60.33h-4Z" transform="translate(-354.7 -419.38)"/><path class="cls-44" d="M1703.12,1096.6c0-8.86,4.05-15.23,13.26-15.23s13.25,6.37,13.25,15.23v30.81c0,8.78-4.05,15.23-13.25,15.23s-13.26-6.45-13.26-15.23Zm4,31c0,6.63,2.67,11.45,9.3,11.45s9.29-4.82,9.29-11.45v-31.24c0-6.54-2.67-11.35-9.29-11.35s-9.3,4.81-9.3,11.35Z" transform="translate(-354.7 -419.38)"/><path class="cls-45" d="M1754.08,1088.6a12.84,12.84,0,0,1-9.38,5.08v-3.45c5.94-.43,8.69-4,10.24-8.43h3.1v60.33h-4Z" transform="translate(-354.7 -419.38)"/><rect class="cls-46" x="659.53" y="1113.79" width="406.24" height="26.55" rx="1"/><rect class="cls-47" x="746.27" y="1152.73" width="154.89" height="26.55" rx="1"/><rect class="cls-48" x="746.27" y="1191.67" width="205.33" height="26.55" rx="1"/><rect class="cls-49" x="659.53" y="793.84" width="406.24" height="26.55" rx="1"/><rect class="cls-50" x="530.31" y="832.78" width="205.33" height="26.55" rx="1"/><rect class="cls-51" x="530.31" y="871.72" width="205.33" height="26.55" rx="1"/><rect class="cls-52" x="530.31" y="1152.73" width="205.33" height="26.55" rx="1"/><rect class="cls-53" x="530.31" y="1191.67" width="205.33" height="26.55" rx="1"/><rect class="cls-54" x="746.27" y="832.78" width="154.89" height="26.55" rx="1"/><rect class="cls-55" x="746.27" y="871.72" width="205.33" height="26.55" rx="1"/><rect class="cls-56" x="825.92" y="1230.62" width="286.76" height="26.55" rx="1"/><rect class="cls-57" x="825.92" y="1269.56" width="244.28" height="26.55" rx="1"/><rect class="cls-58" x="825.92" y="1347.44" width="205.33" height="26.55" rx="1"/><rect class="cls-59" x="609.97" y="910.67" width="205.33" height="26.55" rx="1"/><rect class="cls-60" x="609.97" y="949.61" width="205.33" height="26.55" rx="1"/><rect class="cls-61" x="609.97" y="988.55" width="205.33" height="26.55" rx="1"/><rect class="cls-62" x="609.97" y="1027.49" width="145.37" height="26.55" rx="1"/><rect class="cls-63" x="443.58" y="1113.79" width="205.33" height="26.55" rx="1"/><rect class="cls-64" x="910.89" y="1152.73" width="154.89" height="26.55" rx="1"/><rect class="cls-65" x="609.97" y="1230.62" width="205.33" height="26.55" rx="1"/><rect class="cls-66" x="609.97" y="1269.56" width="205.33" height="26.55" rx="1"/><rect class="cls-67" x="609.97" y="1308.5" width="205.33" height="26.55" rx="1"/><rect class="cls-68" x="609.97" y="1347.44" width="145.37" height="26.55" rx="1"/><rect class="cls-69" x="443.58" y="793.84" width="205.33" height="26.55" rx="1"/><rect class="cls-70" x="825.92" y="910.67" width="129.22" height="26.55" rx="1"/><rect class="cls-71" x="825.92" y="949.61" width="244.28" height="26.55" rx="1"/><rect class="cls-72" x="825.92" y="988.55" width="205.33" height="26.55" rx="1"/><rect class="cls-73" x="825.92" y="1027.49" width="205.33" height="26.55" rx="1"/><rect class="cls-74" x="964.66" y="910.67" width="129.22" height="26.55" rx="1"/><rect class="cls-75" x="910.89" y="832.78" width="154.89" height="26.55" rx="1"/><rect class="cls-76" x="356.84" y="754.89" width="205.33" height="26.55" rx="1"/><rect class="cls-77" x="825.92" y="1308.5" width="205.33" height="26.55" rx="1"/><circle class="cls-78" cx="729.68" cy="1056.67" r="18.54" transform="translate(-906.46 720.33) rotate(-59.08)"/><circle class="cls-79" cx="784.14" cy="1056.67" r="18.54" transform="translate(-753.95 1212.61) rotate(-79.35)"/><circle class="cls-80" cx="838.61" cy="1056.67" r="18.54" transform="translate(-707.3 1270.4) rotate(-79.55)"/><path class="cls-81" d="M2251.85,1193.58h-617a36,36,0,0,0-36,36v911.77a36.08,36.08,0,0,0,36.08,36.09H2251.8a36.09,36.09,0,0,0,36.09-36.09V1229.62A36,36,0,0,0,2251.85,1193.58Z" transform="translate(-354.7 -419.38)"/><rect class="cls-82" x="1288.86" y="802.18" width="689.04" height="983.89" rx="25.44"/><rect class="cls-83" x="1379.19" y="975.43" width="95.69" height="11.34"/><rect class="cls-84" x="1450.99" y="1031.45" width="90.05" height="11.34"/><rect class="cls-85" x="1450.99" y="1059.42" width="90.05" height="11.34"/><rect class="cls-86" x="1513.49" y="1087.46" width="87.58" height="11.34"/><rect class="cls-87" x="1559.29" y="1003.4" width="91.81" height="11.34"/><rect class="cls-88" x="1450.99" y="1143.48" width="90.05" height="11.34"/><rect class="cls-89" x="1450.99" y="1171.53" width="90.05" height="11.34"/><rect class="cls-90" x="1450.99" y="1199.5" width="90.05" height="11.34"/><rect class="cls-91" x="1450.99" y="1227.54" width="90.05" height="11.34"/><rect class="cls-92" x="1379.19" y="1283.56" width="95.69" height="11.34"/><rect class="cls-93" x="1450.99" y="1339.58" width="90.05" height="11.35"/><rect class="cls-94" x="1450.99" y="1367.55" width="90.05" height="11.42"/><rect class="cls-95" x="1513.49" y="1395.59" width="87.58" height="11.34"/><rect class="cls-96" x="1559.29" y="1311.53" width="91.81" height="11.34"/><rect class="cls-97" x="1450.99" y="1451.61" width="90.05" height="11.34"/><rect class="cls-98" x="1450.99" y="1479.66" width="90.05" height="11.35"/><rect class="cls-99" x="1379.19" y="1525.6" width="95.69" height="11.34"/><rect class="cls-100" x="1450.99" y="1581.61" width="90.05" height="11.34"/><rect class="cls-101" x="1450.99" y="1609.59" width="90.05" height="11.34"/><rect class="cls-102" x="1513.49" y="1637.63" width="87.58" height="11.34"/><rect class="cls-103" x="1559.29" y="1553.57" width="91.81" height="11.34"/><rect class="cls-104" x="1450.99" y="1693.65" width="90.05" height="11.34"/><rect class="cls-105" x="1450.99" y="1721.69" width="90.05" height="11.34"/><rect class="cls-106" x="1766.16" y="1031.45" width="52.49" height="11.34"/><rect class="cls-107" x="1626.08" y="1087.46" width="65.11" height="11.34"/><rect class="cls-108" x="1667.66" y="1171.53" width="38.33" height="11.34"/><rect class="cls-109" x="1507.07" y="1283.56" width="90.54" height="11.34"/><rect class="cls-110" x="1696.13" y="1339.58" width="76.24" height="11.35"/><rect class="cls-111" x="1738.4" y="1451.61" width="40.45" height="11.34"/><rect class="cls-112" x="1667.66" y="1479.66" width="38.33" height="11.35"/><rect class="cls-113" x="1620.8" y="1525.6" width="45.73" height="11.34"/><rect class="cls-114" x="1568.52" y="1609.59" width="70.04" height="11.34"/><rect class="cls-115" x="1792.38" y="1581.61" width="46.36" height="11.34"/><rect class="cls-116" x="1738.4" y="1693.65" width="40.45" height="11.34"/><rect class="cls-117" x="1667.66" y="1721.69" width="38.33" height="11.34"/><rect class="cls-118" x="1379.19" y="1003.4" width="154.31" height="11.34"/><rect class="cls-119" x="1507.07" y="975.43" width="163.19" height="11.34"/><rect class="cls-120" x="1568.52" y="1031.45" width="52.56" height="11.34"/><rect class="cls-121" x="1678.58" y="1059.42" width="113.73" height="11.34"/><rect class="cls-122" x="1568.52" y="1171.53" width="81.1" height="11.34"/><rect class="cls-123" x="1738.4" y="1143.48" width="40.45" height="11.34"/><rect class="cls-124" x="1568.52" y="1227.54" width="165.09" height="11.34"/><rect class="cls-125" x="1646.1" y="1199.5" width="100.06" height="11.34"/><rect class="cls-126" x="1379.19" y="1311.53" width="154.31" height="11.34"/><rect class="cls-127" x="1696.13" y="1283.56" width="145.43" height="11.34"/><rect class="cls-128" x="1658.57" y="1367.55" width="133.74" height="11.42"/><rect class="cls-129" x="1568.52" y="1451.61" width="148.25" height="11.34"/><rect class="cls-130" x="1568.52" y="1479.66" width="81.1" height="11.35"/><rect class="cls-131" x="1379.19" y="1553.57" width="154.31" height="11.34"/><rect class="cls-132" x="1507.07" y="1525.6" width="90.54" height="11.34"/><rect class="cls-133" x="1568.52" y="1581.61" width="102.59" height="11.34"/><rect class="cls-134" x="1658.57" y="1609.59" width="133.74" height="11.34"/><rect class="cls-135" x="1568.52" y="1693.65" width="148.25" height="11.34"/><rect class="cls-136" x="1693.52" y="975.43" width="77.93" height="11.34"/><rect class="cls-137" x="1801.04" y="975.43" width="105.2" height="11.34"/><rect class="cls-138" x="1568.52" y="1059.42" width="90.05" height="11.34"/><rect class="cls-139" x="1646.1" y="1031.45" width="100.06" height="11.34"/><rect class="cls-140" x="1841.21" y="1031.45" width="65.04" height="11.34"/><rect class="cls-141" x="1809.29" y="1059.42" width="33.96" height="11.34"/><rect class="cls-142" x="1568.52" y="1143.48" width="52.56" height="11.34"/><rect class="cls-143" x="1646.1" y="1143.48" width="76.94" height="11.34"/><rect class="cls-144" x="1796.18" y="1143.48" width="50.03" height="11.34"/><rect class="cls-145" x="1728.54" y="1171.53" width="90.12" height="11.34"/><rect class="cls-146" x="1568.52" y="1199.5" width="52.56" height="11.34"/><rect class="cls-147" x="1766.16" y="1199.5" width="52.49" height="11.34"/><rect class="cls-148" x="1841.21" y="1199.5" width="65.04" height="11.34"/><rect class="cls-149" x="1753.62" y="1227.54" width="92.59" height="11.34"/><rect class="cls-150" x="1620.8" y="1283.56" width="45.73" height="11.34"/><rect class="cls-151" x="1568.52" y="1339.58" width="102.59" height="11.35"/><rect class="cls-152" x="1568.52" y="1367.55" width="70.04" height="11.42"/><rect class="cls-153" x="1809.29" y="1367.55" width="33.96" height="11.42"/><rect class="cls-154" x="1626.08" y="1395.59" width="65.11" height="11.34"/><rect class="cls-155" x="1705.64" y="1395.59" width="121.2" height="11.34"/><rect class="cls-156" x="1844.87" y="1395.59" width="36.22" height="11.34"/><rect class="cls-157" x="1796.18" y="1451.61" width="50.03" height="11.34"/><rect class="cls-158" x="1728.54" y="1479.66" width="90.12" height="11.35"/><rect class="cls-159" x="1696.13" y="1525.6" width="210.12" height="11.34"/><rect class="cls-160" x="1696.13" y="1581.61" width="76.24" height="11.34"/><rect class="cls-161" x="1861.29" y="1581.61" width="44.96" height="11.34"/><rect class="cls-162" x="1809.29" y="1609.59" width="33.96" height="11.34"/><rect class="cls-163" x="1626.08" y="1637.63" width="65.11" height="11.34"/><rect class="cls-164" x="1568.52" y="1721.69" width="81.1" height="11.34"/><rect class="cls-165" x="1796.18" y="1693.65" width="50.03" height="11.34"/><rect class="cls-166" x="1728.54" y="1721.69" width="90.12" height="11.34"/><path class="cls-167" d="M1314.27,802.18H1952.5a25.41,25.41,0,0,1,25.41,25.41v63.76a0,0,0,0,1,0,0h-689a0,0,0,0,1,0,0V827.59A25.41,25.41,0,0,1,1314.27,802.18Z"/><circle class="cls-168" cx="1706.61" cy="1266.15" r="18.54" transform="translate(-709.32 330.09) rotate(-22.5)"/><circle class="cls-169" cx="1761.07" cy="1266.15" r="18.54" transform="translate(-230.52 2269.82) rotate(-76.72)"/><circle class="cls-170" cx="1815.53" cy="1266.15" r="18.54" transform="translate(-718.24 1235.24) rotate(-45)"/><path class="cls-171" d="M1746.84,1382.43l-38-15.75v-9.92l38-15.78v11.86l-23.08,8.9,23.08,8.9Z" transform="translate(-354.7 -419.38)"/><path class="cls-172" d="M1762.71,1336.4h6.94l-12.3,50.64h-6.87Z" transform="translate(-354.7 -419.38)"/><path class="cls-173" d="M1773.06,1370.64l23.08-8.9-23.08-8.9V1341l38,15.78v9.92l-38,15.75Z" transform="translate(-354.7 -419.38)"/><path class="cls-174" d="M923.66,2215.84l3,1.41a10.34,10.34,0,0,0,13.13-3.86l31.67-50.3a12.6,12.6,0,0,0-3.75-17.25l-2.12-1.39Z" transform="translate(-354.7 -419.38)"/><path class="cls-175" d="M502.38,1840.18s-5.28-19.63,5.06-43.16,22.63-36.11,51.95-32.51,43.24,11.82,47.61,32.56-6.41,58.27,2.27,70.3c10.22,14.17,9.37,17.19,31,35,10.43,8.58,11.16,49.32-12,52.6-31,4.39-58.23-48.48-86.29-34.81s-65.82,24.87-53.67,13.54S502.38,1840.18,502.38,1840.18Z" transform="translate(-354.7 -419.38)"/><path class="cls-176" d="M736.4,2084.34c-130-203.92-133.6-193.55-133.6-193.55l16.9,91.74s69.57,96.86,92.7,117.79C720.85,2099.6,737.33,2095.31,736.4,2084.34Z" transform="translate(-354.7 -419.38)"/><polygon class="cls-177" points="540.06 1745.56 561.23 1758.02 549.52 1777.2 526.34 1765.26 540.06 1745.56"/><path class="cls-175" d="M909.62,2183.82a8.53,8.53,0,0,0,1.3-7.38c-.78-2.83-1.46-6.85.09-9,2.55-3.61,37.2-9.54,45.14-18.36s14.12-2.45,16.77,1.65c2.14,3.31-27.5,46.65-39,63.18a8.85,8.85,0,0,1-11.41,2.79c-7.66-4-19.37-10.65-23-15.11C894.91,2195.87,904.53,2190.54,909.62,2183.82Z" transform="translate(-354.7 -419.38)"/><path class="cls-178" d="M893,2184.85a31.29,31.29,0,0,1-2.79,2.51,44.69,44.69,0,0,1-7,4.91s-86.61-42.36-141.38-86.69c0,0-82.88,54.52-132,43.5a6.92,6.92,0,0,1-3-2.33h0a28.79,28.79,0,0,1-2.45-3.31c-5.4-8.3-10.76-24-2.72-34.12,0,0,96.28-53,142.63-45.85s156.9,99.75,156.9,99.75C902.74,2171,899.25,2178.6,893,2184.85Z" transform="translate(-354.7 -419.38)"/><path class="cls-179" d="M726,2115.13a47.39,47.39,0,0,0-37.11-10c-14.69,2.27-6.86,20.67-6.86,20.67S720.13,2124.35,726,2115.13Z" transform="translate(-354.7 -419.38)"/><path class="cls-180" d="M850.79,2212a28.12,28.12,0,0,1-2.6,2.64,51.8,51.8,0,0,1-5.55,4.57S752.09,2186,693,2147.55c0,0-91.61,57.37-141.92,55.87-39.62-1.12-40-61.9-30.88-79.12,0,0,124.06-21.21,170.89-18.87S856.22,2191,856.22,2191C858.65,2198.84,856.37,2205.72,850.79,2212Z" transform="translate(-354.7 -419.38)"/><path class="cls-181" d="M621.83,2044.61c.82,30.12-.15,32.85,8.73,54.15a7,7,0,0,1-3.6,9.08c-46.3,20.75-65.62,26.37-104.07,28.74a7,7,0,0,1-7.37-6c-3.64-25.27-7.51-54-9-80-4-70-3.2-118.4-2.84-132.49a7,7,0,0,1,3.92-6.08l18.44-9,21.44-10.45a6.9,6.9,0,0,1,2.82-.7l38.63-1.3,8.44-.29,2.52-.08a7,7,0,0,1,6.9,4.91c3.67,11.9,13.56,42.57,25.83,69.23,12.7,27.57,1.38,34.29-4.49,41.61l-.66.86a12.93,12.93,0,0,0-1.9,3.54c-.13.38-.25.79-.37,1.23-.3,1.1-.59,2.33-.84,3.65C622.2,2026.61,621.83,2044.61,621.83,2044.61Z" transform="translate(-354.7 -419.38)"/><path class="cls-177" d="M586.08,1890.7c4,12.42,12.33,37.49-6.61,39.6-22.77,2.53-47.52-18-53.42-27.24l22.77-11.1Z" transform="translate(-354.7 -419.38)"/><path class="cls-179" d="M504.38,2003.09s24.45,53.6,37.61,61.9,60.9,32,80,38.5-71.18-78.88-71.18-78.88l-44.56-40.77S503.88,1989.36,504.38,2003.09Z" transform="translate(-354.7 -419.38)"/><path class="cls-179" d="M533,1967.76s36.31,59.79,44.27,66,11.25,10.71,45.39,36.26c3.2,2.39-22.21,2.61-22.21,2.61s-34-32.42-37.37-36.23-39.93-53-40.29-57.16S533,1967.76,533,1967.76Z" transform="translate(-354.7 -419.38)"/><path class="cls-182" d="M654.82,2089.39c-34.16-17.72-81-54.69-81-54.69s-19.5-21.34-68.44-121c0,0-21,26.85-1.35,81.27,19.18,53,44.28,70.51,44.28,70.51s63.57,37.85,96.2,45.79C648.81,2102.54,651,2098.37,654.82,2089.39Z" transform="translate(-354.7 -419.38)"/><rect class="cls-183" x="627.47" y="2087.56" width="134.35" height="16.42" rx="1.8" transform="translate(-726.97 -256.61) rotate(-10.56)"/><polygon class="cls-184" points="407.49 1672.15 299.36 1691.71 314.51 1590.82 422.64 1571.26 407.49 1672.15"/><polygon class="cls-185" points="400.77 1673.37 400.76 1673.4 292.64 1692.96 307.78 1592.08 314.51 1590.86 299.36 1691.71 400.77 1673.37"/><path class="cls-186" d="M723.94,2049.33c1.15,6.15-1,11.7-4.81,12.41s-7.81-3.7-9-9.84,1-11.7,4.81-12.41S722.8,2043.19,723.94,2049.33Z" transform="translate(-354.7 -419.38)"/><path class="cls-177" d="M595.55,1829.6s6.88-8.54,11.86-1.37-2.39,28.12-14.71,22.86Z" transform="translate(-354.7 -419.38)"/><path class="cls-177" d="M542.71,1873l-.27,25.79s11.88,9.38,21.22,10.28S576.34,1899,576.34,1899l.26-24Z" transform="translate(-354.7 -419.38)"/><path class="cls-177" d="M599.52,1839.44c-.32,2.49-.7,5-1.17,7.54-3.14,16.73-13.94,34.74-27.37,37.63-29,6.26-40.76-16.58-45.2-33.39-.49-1.87.49-4,.11-6.2-.91-5.23-2.95-11.18-3.37-17-.29-4.06-.48-8.06-.61-11.67a23.69,23.69,0,0,1,14.9-23.06c13.35-5.15,33.59-9.12,52.59,2.3a23.88,23.88,0,0,1,11.44,20.33A178.26,178.26,0,0,1,599.52,1839.44Z" transform="translate(-354.7 -419.38)"/><path class="cls-175" d="M573.43,1814.63c11.25,5.27,22.77,15.11,26.52,21.89.24.44.5.52.77.3a174.54,174.54,0,0,0,1.38-24,24.21,24.21,0,0,0-12-20.69c-20.06-11.69-41.41-7.65-55.5-2.4a24.13,24.13,0,0,0-15.71,23.5c.14,3.69.35,7.76.65,11.9,1.87,1.14,6.44,1.7,6.6,4.71.43,8,.76,13.45,2.43,13s-.27-16,14.73-25.69l11.39-8.22s5.16-3,7.16-6.38A24,24,0,0,0,573.43,1814.63Z" transform="translate(-354.7 -419.38)"/><path class="cls-177" d="M525.88,1828.79s-7.79-9.67-12.53-2.81,1.64,27.34,13.1,22.48Z" transform="translate(-354.7 -419.38)"/><g class="cls-187"><path class="cls-188" d="M632.84,2000.6a20.93,20.93,0,0,0,5.65-11.3,30.58,30.58,0,0,0-.8-12.8c-2.24-8.27-5.61-16.09-8.75-24l-9.89-23.44c-1.64-3.9-3.24-7.82-4.75-11.78s-3-7.93-4.27-12a196.13,196.13,0,0,0,7.88,24.22c3.05,7.93,6.37,15.73,9.56,23.59a252.75,252.75,0,0,1,9,23.68,29.79,29.79,0,0,1,1.2,12.37A20.46,20.46,0,0,1,632.84,2000.6Z" transform="translate(-354.7 -419.38)"/></g><path class="cls-174" d="M884.39,2247l3,1.42a10.35,10.35,0,0,0,13.13-3.86l31.67-50.31a12.59,12.59,0,0,0-3.75-17.24l-2.12-1.39Z" transform="translate(-354.7 -419.38)"/><polygon class="cls-177" points="501.66 1775.81 522.83 1788.27 511.12 1807.45 487.95 1795.5 501.66 1775.81"/><path class="cls-175" d="M871.35,2213.9a8.14,8.14,0,0,0,1.23-7c-.8-2.83-1.55-7,0-9.22,2.55-3.61,35.56-9.12,43.5-17.94s14.11-2.45,16.76,1.65c2.15,3.32-26.58,46.6-37.57,62.93a8.42,8.42,0,0,1-10.92,2.75c-7.65-4-19.58-10.73-23.25-15.24C856.48,2226.07,866.3,2220.7,871.35,2213.9Z" transform="translate(-354.7 -419.38)"/><path class="cls-177" d="M2416.22,1609.64s-37,62.06-54.84,91.88c0,0-11.26-9.48-25.91-22.18-15.89-13.77-37.8-37-37.8-37l-11,14.2s50.54,82.41,72,92.12,57.05-67.06,57.05-67.06Z" transform="translate(-354.7 -419.38)"/><path class="cls-189" d="M2412.12,1607l-34,56a16.71,16.71,0,0,0-1.71,13.5c3.46,11.4,10.91,33.44,20,45.25a5.47,5.47,0,0,0,9.64-2.18C2411.07,1697.52,2422.23,1640.28,2412.12,1607Z" transform="translate(-354.7 -419.38)"/><path class="cls-177" d="M2457,2158.52l-3,26.71s-8.73,5-22.49,2.27l2.9-31.24Z" transform="translate(-354.7 -419.38)"/><path class="cls-175" d="M2438,2183.43s-4.41-5.26-8.07-5.16-22.57,17.77-32.28,19-8.05,7.16-6.39,10.23,67.07,1.32,67.07,1.32,2.76-18.48.51-24.23S2445.49,2185,2438,2183.43Z" transform="translate(-354.7 -419.38)"/><path class="cls-177" d="M2570.74,2123.4l17.31,20.56s-2.38,9.78-13.86,17.87l-20.64-23.62Z" transform="translate(-354.7 -419.38)"/><path class="cls-175" d="M2575.58,2154.13s-6.68-.27-9.14,2.45-2.1,28.05-8,35.88-.59,10.55,2.68,11.36,46-47.72,46-47.72-10.91-14.15-16.44-16.3S2581.85,2149.75,2575.58,2154.13Z" transform="translate(-354.7 -419.38)"/><path class="cls-190" d="M2473.45,1839.6,2486.8,1984s20,22.38,35,49.73c10.86,19.78,43.6,73.84,52.48,88.47a4.84,4.84,0,0,1-1.2,6.36l-16.6,12.85a4.89,4.89,0,0,1-6.51-.48l-116.06-121-27.13-181.73Z" transform="translate(-354.7 -419.38)"/><path class="cls-179" d="M2458.72,1889c-1.82,4.41-10.55,34.5-12.12,39s-3,9-4.31,13.53-2.62,9.07-3.93,13.61l-3.57,13.71-.08.32v.3c-.12,4.4-.32,8.8-.36,13.21s-.12,8.81,0,13.23c.09,8.82,1.13,17.65,2,26.51,1.58-8.76,1.82-17.54,2.64-26.32.44-4.39.72-8.79,1.05-13.19s.48-8.8.73-13.2l-.09.61,3.35-13.76c1-4.62,2.07-9.22,3-13.86s1.79-9.29,2.59-14S2458.25,1893.79,2458.72,1889Z" transform="translate(-354.7 -419.38)"/><path class="cls-179" d="M2477,2064.89c1.85-6.22,3.5-12.5,5.05-18.8s2.95-12.65,4.3-19,2.45-12.76,3.33-19.2,1.62-13,.9-19.44a61.44,61.44,0,0,1-.46,9.69c-.33,3.22-.84,6.42-1.34,9.62q-1.59,9.57-3.58,19.1c-1.25,6.36-2.66,12.68-4,19Z" transform="translate(-354.7 -419.38)"/><path class="cls-191" d="M2563.32,1845.61s-31.33,77.05-72.06,137.13c0,0-6.08,58.47-16.49,89.6-3.9,11.69-10.61,70.53-12.44,87a4.85,4.85,0,0,1-4.84,4.31h-21.91a4.87,4.87,0,0,1-4.87-5.07l7.76-189,32.69-130Z" transform="translate(-354.7 -419.38)"/><path class="cls-192" d="M2564.39,1810.91v2.86c0,17.18-.15,30.49-.24,37a353.27,353.27,0,0,1-56.68,8.72c-.87,0-1.7.11-2.57.18l-1.37.08-3,.16-3.38.16a344.8,344.8,0,0,1-38.57-.61c-2.6-.21-5.19-.41-7.79-.65-.18,0-.33,0-.51,0l-2-.21c-.38,0-.77-.08-1.19-.13a355.1,355.1,0,0,1-44.87-7.65c0-3-.06-7.39-.06-12.94v-3.2c0-7.94.06-17.81.18-29v-2.88c.09-7.44.18-15.4.3-23.71,0-1,0-1.91,0-2.88.11-8.51.26-17.37.44-26.35q.13-7,.27-14.09c0-.82,0-1.65.06-2.47.06-2.22.09-4.47.18-6.7.06-2.83.12-5.66.21-8.49,0-.52,0-1.07,0-1.6,0-1.23.06-2.43.12-3.64s.06-2.62.12-3.93c.09-3.3.18-6.57.3-9.79s.18-6.16.29-9.17c1.53-43.22,3.91-79.19,7.46-83.82,2.93-3.75,9.58-8.15,17.4-12.58.95-.55,1.94-1.07,2.92-1.62,3.34-1.84,30.58-10,34-11.74l28.79-1.78c.18.11,27.72,8.25,27.9,8.33l3.55,1.81c10.21,5.16,20.26,10.58,26.05,15.27a27.08,27.08,0,0,1,2.24,2,12,12,0,0,1,1.34,1.52,7.48,7.48,0,0,1,1,2.23c3,9.37,4.72,41.91,5.73,80.39.09,3,.18,6.08.24,9.17s.15,6.49.21,9.79c0,1,0,2,.06,2.94,0,2.07.06,4.14.09,6.23,0,1.34.06,2.7.06,4l.09,4.45v.08c0,1,0,2.09.06,3.11v1.58c0,1.46.06,2.93.06,4.4,0,1.1.06,2.22.06,3.32,0,1.89,0,3.8.06,5.69C2564.33,1768.74,2564.39,1792,2564.39,1810.91Z" transform="translate(-354.7 -419.38)"/><path class="cls-177" d="M2615.86,1917.49c.71,7.69-8.65,3.52-6-12s-4.86-29.67-8.09-29.22,2.68,17-.2,23-6.59-5.62-10.3-12.64c-3.83-7.3-3.61-23.23-1.86-34.59s-18.86-80.4-19-100.41l-2.51-8.48-9.19-31-14.39-48.62s8.62-36.81,23.15-33.65c0,0,7.69,25.64,15.92,54.55,1.39,4.91,2.8,9.91,4.19,14.9,5.86,21,11.36,41.66,13.92,53.94,6.76,32.42,7.28,99.81,7.28,99.81s11.93,24.76,12.21,35.78C2621.33,1900.46,2615.16,1909.81,2615.86,1917.49Z" transform="translate(-354.7 -419.38)"/><path class="cls-193" d="M2585.83,1690.86c-7.18,12.26-14.45,24.47-21.7,36.7a1.46,1.46,0,0,1-2.65-.32c-2.58-8.51-5.22-16.68-7.71-24.26a.14.14,0,0,1,0-.06c-1.12-3.4-2.22-6.69-3.26-9.83a1,1,0,0,0-.06-.16c-.36-1.1-.71-2.19-1.08-3.25h0c-4.17-12.62-7.41-22.65-8.33-28.5-2.5-15.75,4.3-46.6,13.88-52.69h0c.25.56,1-1.16,1.45-.11,1.68,3.89,9.15,13.49,12.85,22.84.47,1.19,1,2.43,1.45,3.69,4.87,12.51,10.72,28.43,16.29,45.95A12.41,12.41,0,0,1,2585.83,1690.86Z" transform="translate(-354.7 -419.38)"/><path class="cls-177" d="M2434.65,1514.17c2.61-3.88,5.68-3.29,8-1.85-.06-1.13-.15-2.31-.19-3.4-.11-3.44-.11-6.63-.06-9.42a22.76,22.76,0,0,1,.36-3.61,16.24,16.24,0,0,1,.37-1.71c.16-.61.34-1.19.55-1.78a9.07,9.07,0,0,1,.32-.87c.18-.46.37-.91.58-1.35a22.85,22.85,0,0,1,9.41-10.11c19-10.79,39.1-6.77,52.33-1.69a24.11,24.11,0,0,1,3.16,1.5c.5.29,1,.6,1.46.91a23.4,23.4,0,0,1,4.45,4,24.72,24.72,0,0,1,1.54,2h0c.32.46.62.94.91,1.42s.54,1,.79,1.5.47,1,.69,1.54l.3.8c.19.53.36,1.08.51,1.62a22.89,22.89,0,0,1,.77,7.08c-.17,3.53-.42,7.43-.76,11.37,2.3-1.26,5.18-1.59,7.65,2.08,4.77,7.06-1.38,27.16-12.51,24.66-3.05,9.11-8.25,20.05-17.45,26v14s-6.52,11.14-15.35,11.9-16.64-9.6-16.64-9.6v-15.62c-9.88-4.7-15.7-15-19.07-26.53C2435.9,1541,2429.94,1521.16,2434.65,1514.17Z" transform="translate(-354.7 -419.38)"/><path class="cls-175" d="M2520.71,1513.44a3.49,3.49,0,0,0-.65,1.54c-.33,2.3-1.31,8.77-2.14,10.52s-1.72-9.63-2-13.13a3.34,3.34,0,0,0-.74-1.9c-2-2.53-8-9.53-15.49-10.23-9.09-.85-10.21,8.56-18.49,10.28-7.07,1.46-12.16,2.19-13.49,2.37a4.24,4.24,0,0,1-.71,0H2457c-6.23,0-11.54,3.82-12.56,9h0l-1.31-5.78a4,4,0,0,0-2.27-2.66c-2.84-1.35-4.59-6.39-7-9.38-3.41-4.18-2.08-22.91,5.3-25.37,2.37-.78,26.9-10.91,34.67-11.08s43.38.65,47.36,11.08C2525.05,1489,2530.58,1499.73,2520.71,1513.44Z" transform="translate(-354.7 -419.38)"/><path class="cls-177" d="M2303.88,1655.54s4.61-8.32,3-15.66-3-24-10.13-23.36c-2.62.22,1.07,7.1-.8,13.59a90,90,0,0,1-12.65-8.16c-4.44-3.66-13.68-9.56-18-12.26-1.17-.73-2.58.76-1.91,2.06,1.08,2.1,3.74,5.21,10,9.52,0,0-15.49-9.54-18.15-7.32s16.91,13.75,16.91,13.75-15.85-6.93-17.21-4.25c-.82,1.63,14.66,11.66,14.66,11.66s-15.47-5.08-12.65-1c.82,1.17,30.11,15.62,35.94,33C2292.91,1667,2301.63,1661.55,2303.88,1655.54Z" transform="translate(-354.7 -419.38)"/></g></g></svg>