<svg xmlns="http://www.w3.org/2000/svg" xmlns:xlink="http://www.w3.org/1999/xlink" viewBox="0 0 2571.66 2449.65"><defs><style>.cls-1{isolation:isolate;}.cls-2{fill:#20224a;}.cls-10,.cls-11,.cls-12,.cls-13,.cls-14,.cls-15,.cls-16,.cls-17,.cls-18,.cls-19,.cls-2,.cls-20,.cls-21,.cls-22,.cls-23,.cls-24,.cls-25,.cls-26,.cls-27,.cls-28,.cls-29,.cls-3,.cls-30,.cls-31,.cls-32,.cls-33,.cls-34,.cls-35,.cls-36,.cls-37,.cls-38,.cls-39,.cls-4,.cls-40,.cls-41,.cls-42,.cls-43,.cls-44,.cls-45,.cls-46,.cls-47,.cls-48,.cls-49,.cls-5,.cls-50,.cls-51,.cls-52,.cls-53,.cls-54,.cls-55,.cls-56,.cls-57,.cls-58,.cls-59,.cls-6,.cls-60,.cls-61,.cls-62,.cls-63,.cls-64,.cls-65,.cls-66,.cls-67,.cls-68,.cls-69,.cls-7,.cls-70,.cls-8,.cls-9{fill-rule:evenodd;}.cls-3{fill:url(#GradientFill_22);}.cls-4{fill:#1e2453;}.cls-4,.cls-6{opacity:0.3;}.cls-11,.cls-12,.cls-13,.cls-17,.cls-30,.cls-35,.cls-4,.cls-57{mix-blend-mode:multiply;}.cls-5{fill:url(#GradientFill_22-2);}.cls-39,.cls-6{fill:#7d63ab;}.cls-7{fill:url(#linear-gradient);}.cls-8{fill:url(#linear-gradient-2);}.cls-9{fill:#6199d1;}.cls-10{fill:#5a61ac;}.cls-11,.cls-12,.cls-13,.cls-16,.cls-17,.cls-35,.cls-67,.cls-69,.cls-70{opacity:0.5;}.cls-11{fill:url(#linear-gradient-3);}.cls-12{fill:url(#linear-gradient-4);}.cls-13{fill:url(#linear-gradient-5);}.cls-14{fill:#d1e5f6;}.cls-15{fill:url(#linear-gradient-6);}.cls-16,.cls-19{fill:#fffcf2;}.cls-17{fill:url(#linear-gradient-7);}.cls-18{fill:url(#linear-gradient-8);}.cls-20,.cls-67{fill:#fff;}.cls-21{fill:url(#linear-gradient-9);}.cls-22{fill:url(#linear-gradient-10);}.cls-23{fill:#ffdb59;}.cls-24,.cls-26,.cls-37,.cls-39{opacity:0.2;}.cls-24{fill:url(#linear-gradient-11);}.cls-25{fill:url(#linear-gradient-12);}.cls-26{fill:url(#linear-gradient-13);}.cls-27{fill:url(#linear-gradient-14);}.cls-28{fill:url(#linear-gradient-15);}.cls-29{fill:url(#linear-gradient-16);}.cls-30{fill:#3d6ab3;}.cls-30,.cls-57{opacity:0.35;}.cls-31{fill:url(#linear-gradient-17);}.cls-32{fill:url(#linear-gradient-18);}.cls-33{fill:#f8a598;}.cls-34{fill:#f69082;}.cls-35{fill:url(#linear-gradient-19);}.cls-36{fill:url(#linear-gradient-20);}.cls-37{fill:url(#linear-gradient-21);}.cls-38{fill:url(#linear-gradient-22);}.cls-40{fill:url(#linear-gradient-23);}.cls-41{fill:#6669b0;}.cls-42{fill:#986fb0;}.cls-43{fill:url(#linear-gradient-24);}.cls-44{fill:url(#linear-gradient-25);}.cls-45{fill:url(#linear-gradient-26);}.cls-46{fill:url(#linear-gradient-27);}.cls-47{fill:#f7a396;}.cls-48{fill:#1d3361;}.cls-49{fill:url(#linear-gradient-28);}.cls-50{fill:url(#GradientFill_15);}.cls-51{fill:url(#linear-gradient-29);}.cls-52{fill:url(#GradientFill_15-2);}.cls-53{fill:url(#linear-gradient-30);}.cls-54{fill:#f5887a;}.cls-55{fill:url(#linear-gradient-31);}.cls-56{fill:url(#linear-gradient-32);}.cls-57{fill:#6167af;}.cls-58{fill:url(#linear-gradient-33);}.cls-59{fill:url(#linear-gradient-34);}.cls-60{fill:#f9b39d;}.cls-61{fill:#f79c8f;}.cls-62{fill:#6d6bb1;}.cls-63{fill:#562f65;}.cls-64{fill:url(#linear-gradient-35);}.cls-65{fill:url(#linear-gradient-36);}.cls-66{fill:url(#linear-gradient-37);}.cls-68{fill:url(#linear-gradient-38);}.cls-69{fill:url(#linear-gradient-39);}.cls-70{fill:#e58fbc;}</style><linearGradient id="GradientFill_22" x1="1650.98" y1="607.97" x2="1650.94" y2="821.98" gradientUnits="userSpaceOnUse"><stop offset="0" stop-color="#32427a"/><stop offset="1" stop-color="#1a184b"/></linearGradient><linearGradient id="GradientFill_22-2" x1="1686.6" y1="621.63" x2="1686.46" y2="986.17" xlink:href="#GradientFill_22"/><linearGradient id="linear-gradient" x1="1858.09" y1="982.51" x2="1628.58" y2="2375.53" gradientUnits="userSpaceOnUse"><stop offset="0" stop-color="#d2e6f7"/><stop offset="1" stop-color="#ebeef8"/></linearGradient><linearGradient id="linear-gradient-2" x1="1991.31" y1="718.88" x2="1455.72" y2="2434.61" gradientUnits="userSpaceOnUse"><stop offset="0" stop-color="#6569b0"/><stop offset="1" stop-color="#55ace0"/></linearGradient><linearGradient id="linear-gradient-3" x1="2237.73" y1="1839.83" x2="2372.9" y2="1555.55" gradientUnits="userSpaceOnUse"><stop offset="0" stop-color="#7d63ab"/><stop offset="1" stop-color="#e591bd"/></linearGradient><linearGradient id="linear-gradient-4" x1="2220.23" y1="1337.01" x2="2470.63" y2="971.22" xlink:href="#linear-gradient-3"/><linearGradient id="linear-gradient-5" x1="1041.92" y1="1709.89" x2="1198.92" y2="1367.47" xlink:href="#linear-gradient-3"/><linearGradient id="linear-gradient-6" x1="850.6" y1="1336.95" x2="788.41" y2="1515.23" gradientUnits="userSpaceOnUse"><stop offset="0" stop-color="#4786c6"/><stop offset="1" stop-color="#3dc2d3"/></linearGradient><linearGradient id="linear-gradient-7" x1="1061.93" y1="841.68" x2="1189.08" y2="416.42" xlink:href="#linear-gradient-3"/><linearGradient id="linear-gradient-8" x1="1025.43" y1="413.54" x2="880.5" y2="889.6" xlink:href="#linear-gradient-2"/><linearGradient id="linear-gradient-9" x1="2248.83" y1="1747.74" x2="2291.35" y2="1665.16" xlink:href="#linear-gradient-3"/><linearGradient id="linear-gradient-10" x1="1605.55" y1="1617.64" x2="1503.24" y2="1776.8" gradientUnits="userSpaceOnUse"><stop offset="0" stop-color="#ec6ca9"/><stop offset="0.56" stop-color="#e591bd"/><stop offset="1" stop-color="#fab9a8"/></linearGradient><linearGradient id="linear-gradient-11" x1="1764.52" y1="1929.17" x2="1497.76" y2="1940.63" xlink:href="#linear-gradient-10"/><linearGradient id="linear-gradient-12" x1="1998.79" y1="2018.87" x2="2048.01" y2="1883.61" xlink:href="#linear-gradient-3"/><linearGradient id="linear-gradient-13" x1="2143.08" y1="2329.77" x2="2125.1" y2="1992.67" xlink:href="#linear-gradient-3"/><linearGradient id="linear-gradient-14" x1="1478.37" y1="280.45" x2="1478.71" y2="522.16" gradientUnits="userSpaceOnUse"><stop offset="0" stop-color="#5a2e69"/><stop offset="1" stop-color="#24093d"/></linearGradient><linearGradient id="linear-gradient-15" x1="1485.14" y1="693.25" x2="1474.77" y2="689.57" gradientUnits="userSpaceOnUse"><stop offset="0" stop-color="#f58a7a"/><stop offset="1" stop-color="#f8a69a"/></linearGradient><linearGradient id="linear-gradient-16" x1="1490.14" y1="610.97" x2="1488.69" y2="403.42" xlink:href="#linear-gradient-3"/><linearGradient id="linear-gradient-17" x1="1622.21" y1="563.46" x2="1572.68" y2="405.94" xlink:href="#linear-gradient-3"/><linearGradient id="linear-gradient-18" x1="1500.01" y1="384.45" x2="1512.54" y2="399.69" xlink:href="#linear-gradient-15"/><linearGradient id="linear-gradient-19" x1="1677.61" y1="1506.11" x2="1436.29" y2="556.79" xlink:href="#linear-gradient-3"/><linearGradient id="linear-gradient-20" x1="1693.73" y1="825.24" x2="1607.65" y2="947.63" xlink:href="#linear-gradient-2"/><linearGradient id="linear-gradient-21" x1="1417.42" y1="980.81" x2="1397.31" y2="1009.27" xlink:href="#linear-gradient-2"/><linearGradient id="linear-gradient-22" x1="1433.81" y1="978.98" x2="1372.17" y2="1025.72" xlink:href="#linear-gradient-2"/><linearGradient id="linear-gradient-23" x1="2272.47" y1="959.17" x2="2181.48" y2="1262.46" xlink:href="#linear-gradient-2"/><linearGradient id="linear-gradient-24" x1="2203.01" y1="1107.18" x2="2244.76" y2="978.79" xlink:href="#linear-gradient-3"/><linearGradient id="linear-gradient-25" x1="2196.4" y1="1101.12" x2="2234.45" y2="1036.31" xlink:href="#linear-gradient-2"/><linearGradient id="linear-gradient-26" x1="1524.06" y1="725.21" x2="1515.39" y2="721.2" xlink:href="#linear-gradient-15"/><linearGradient id="linear-gradient-27" x1="1576.48" y1="639.36" x2="1558.06" y2="441.17" xlink:href="#linear-gradient-3"/><linearGradient id="linear-gradient-28" x1="1350.64" y1="1829.38" x2="1286.48" y2="2136.34" gradientUnits="userSpaceOnUse"><stop offset="0" stop-color="#414680"/><stop offset="1" stop-color="#1e2453"/></linearGradient><linearGradient id="GradientFill_15" x1="1364.77" y1="2222.03" x2="1340.68" y2="2256.6" gradientUnits="userSpaceOnUse"><stop offset="0" stop-color="#3874ba"/><stop offset="1" stop-color="#1b3f74"/></linearGradient><linearGradient id="linear-gradient-29" x1="1407.84" y1="1864.04" x2="1189.04" y2="2162.46" xlink:href="#linear-gradient-28"/><linearGradient id="GradientFill_15-2" x1="1241.38" y1="2292.51" x2="1204.97" y2="2301.82" xlink:href="#GradientFill_15"/><linearGradient id="linear-gradient-30" x1="1469.33" y1="1143.69" x2="1515.4" y2="1077.85" xlink:href="#linear-gradient-15"/><linearGradient id="linear-gradient-31" x1="1373.36" y1="1308.29" x2="1426.61" y2="1408.21" gradientUnits="userSpaceOnUse"><stop offset="0" stop-color="#937fbb"/><stop offset="1" stop-color="#6066ae"/></linearGradient><linearGradient id="linear-gradient-32" x1="1362.98" y1="1470.16" x2="1331.36" y2="1747.26" xlink:href="#linear-gradient-31"/><linearGradient id="linear-gradient-33" x1="1364.62" y1="1389.48" x2="1354.78" y2="1414.22" xlink:href="#linear-gradient-15"/><linearGradient id="linear-gradient-34" x1="1397.98" y1="1320.21" x2="1383.47" y2="1348.08" gradientUnits="userSpaceOnUse"><stop offset="0" stop-color="#fab79f"/><stop offset="1" stop-color="#f8a69a"/></linearGradient><linearGradient id="linear-gradient-35" x1="1367.22" y1="1252.41" x2="1303.11" y2="1289.13" gradientUnits="userSpaceOnUse"><stop offset="0" stop-color="#8b4892"/><stop offset="1" stop-color="#562f65"/></linearGradient><linearGradient id="linear-gradient-36" x1="1692.19" y1="1417.9" x2="1735.15" y2="1361.14" xlink:href="#linear-gradient-15"/><linearGradient id="linear-gradient-37" x1="1558.4" y1="1438.96" x2="1571.41" y2="1702.95" xlink:href="#linear-gradient-31"/><linearGradient id="linear-gradient-38" x1="230.56" y1="474.15" x2="291.36" y2="371.89" xlink:href="#linear-gradient-2"/><linearGradient id="linear-gradient-39" x1="249.87" y1="1857.16" x2="295.45" y2="1739.48" xlink:href="#linear-gradient-3"/></defs><title>vector-two</title><g class="cls-1"><g id="Layer_1" data-name="Layer 1"><path class="cls-2" d="M1805.58,806.62c1.35.79,3.17,1.35,5.32,2.48,7,16.84,9.65,21.79,8.27,23.47-1.13,1.37-1,.63-1.6,4-.82,4.62,15.37,24.61,17.87,30.95a23.05,23.05,0,0,1,.57,16.82,86.91,86.91,0,0,1-17.25,29.22c-6.42,7.23-13.51,11.82-19.66,10.44-7.59-1.71-6.29-8.52-5.16-15.24.41-2.41,5-7.73,4.63-10.1-2-13.49-11.9-25.26-19.14-36.94-6.22-5.78-16.68-11.86-22.48-18.56-8.38-9.66-10-19.83.44-25.75,3.31-1.89,11.66-11.28,15.94-10.93C1781.52,807.18,1795.23,800.56,1805.58,806.62Z" transform="translate(-131.49 -254.59)"/><path class="cls-3" d="M1525.5,768c-5.63,15.34-1.24,28.94,11.08,34.8l.24.23c.49.18,1,.35,1.5.52a30.28,30.28,0,0,0,4,1.27c14.75,4.38,36.8,8.36,50.28,10.93,53.78,10.27,133.91,16.68,171.55,31,14.76-10.84,19.13-31,9.47-43-41.05-19.56-96.5-45-119.75-53.59-5.34-2-12.07-2.92-19.42-3.26,34.65-31.24,71.34-65.07,85.59-93.91,10.09-20.42,11.72-48.76,18.74-66.5-56.55,16.56-67.38-17.57-77.76-29.57-8.91,13.06-8.7,10.65-17.72,24.61-30.49,47.22-75.45,114.16-106,163.89C1532.28,752.47,1527.48,760.79,1525.5,768Z" transform="translate(-131.49 -254.59)"/><path class="cls-4" d="M1710,774.12c-23.07-10.43-44-19.51-56.13-24-5.34-2-12.07-2.92-19.42-3.26,34.65-31.24,71.34-65.07,85.59-93.91,10.09-20.42,11.72-48.76,18.74-66.5-15.93,4.67-28.23,5.31-37.91,3.55l1.52,11c-43.64,43.45-123,144.42-130.37,210.36,26.67,6.21,99.53,15.56,111.21,16.87,3-19.56,15.82-35.15,26.77-54.15Zm-39.77-204.38c-3.67-4.94-6.46-9.68-9.21-12.87-5.67,8.32-7.65,10.36-10.66,14.35Z" transform="translate(-131.49 -254.59)"/><path class="cls-2" d="M1703,1025.56c7.94,11-13.48,66.3-18.7,77.94-4.59,10.27-3.13,16.57,7.75,16.73,8.58.13,22.2-12,30.49-20,15.57-14.91,16.46-30.1,21-36.58l5.3-1.69c3.87-2.2,15.35-17.16,16-22.83a123.9,123.9,0,0,0-5.9-15.4c-8.47-15.63-10.33-8.79-21.48-18.35C1724.66,1014.63,1733.68,1018.32,1703,1025.56Z" transform="translate(-131.49 -254.59)"/><path class="cls-5" d="M1601.43,836.08c23.23,45,81,146.4,101.43,191.48,18,3.8,36.24-6.71,37.82-20.86-13.14-43.23-34.46-114.4-45-137.09-7-15-20-35-31.69-50.26,34.33-48,88.72-123.64,104.42-168,21.37-60.3-3.16-94.7-36.08-113.65-11.7-6.73-24.31,4.06-30.25-3.15-14,27.42-26.74,64.71-35,98.26-11.47,46.79-66.14,146.07-70.27,179.45a36.11,36.11,0,0,0,3.28,18.89C1600.46,832.77,1600.89,834.4,1601.43,836.08Z" transform="translate(-131.49 -254.59)"/><path class="cls-6" d="M2522.53,2625,941.12,1735.48c-20-9.09-49.29-17.66-68.87-5.7l-50.09,30.58c-10.08,6.16-43.21,26.58-21,38.6,65.2,35.37,1525.41,861.25,1591.62,897.18,12.52,6.8,30.85,9.23,50.07,7.61s39-6.83,54.24-16.23l20-12.36c14.14-8.74,22-18.28,22.73-27.42C2540.52,2638.8,2534.78,2630.53,2522.53,2625Z" transform="translate(-131.49 -254.59)"/><path class="cls-7" d="M1122.53,286.17c-10.9-6.18-23.68-8.49-35.64-4l-26.76,10.46c-9.72,50.29,1378,2357.44,1390.43,2370.23l23.89-9c15.68-6.18,23.91-22.5,26.21-38.37L2702.32,1239a.89.89,0,0,0,0-.15c3.28-23.15-3.67-47.25-16.4-66.59-6.86-10.43-15.87-20-26.94-26Z" transform="translate(-131.49 -254.59)"/><path class="cls-8" d="M2632.6,1156.44,1096.15,296.36c-29.06-16.1-56.73-.64-61.87,34.41L832.62,1707.3c-5.13,35.06,14.19,76.57,43.25,92.68l1536.46,860.07c29.06,16.11,56.79.69,61.93-34.36l201.66-1376.54C2681.06,1214.1,2661.66,1172.55,2632.6,1156.44Z" transform="translate(-131.49 -254.59)"/><path class="cls-9" d="M2632.6,1156.44,1096.15,296.36c-29.06-16.1-56.73-.64-61.86,34.41l-6.8,46.42L2669,1296.1l6.88-47C2681.06,1214.1,2661.66,1172.55,2632.6,1156.44Z" transform="translate(-131.49 -254.59)"/><path class="cls-10" d="M1086.6,330.62c11.65,2.67,20.6,16.55,20,31s-10.56,24-22.21,21.34-20.6-16.54-20-31S1075,328,1086.6,330.62Z" transform="translate(-131.49 -254.59)"/><path class="cls-10" d="M1139.66,361.1c11.65,2.66,20.6,16.54,20,31s-10.56,24-22.21,21.33-20.6-16.54-20-31S1128,358.43,1139.66,361.1Z" transform="translate(-131.49 -254.59)"/><path class="cls-10" d="M1197.07,394.57c11.66,2.67,20.6,16.54,20,31s-10.55,24-22.2,21.33-20.6-16.53-20-31S1185.42,391.91,1197.07,394.57Z" transform="translate(-131.49 -254.59)"/><path class="cls-11" d="M2445.75,1633.64l-276-151.52c-16-8.87-31.69-10.12-44.78-5-16.79,6.54-29.35,23.52-33,48.27l-31.28,224.46c-6.46,44.05,17.82,96.22,54.34,116.47l276,151.52c36.53,20.24,71.38.86,77.84-43.19l31.27-224.47C2506.65,1706.11,2482.26,1653.89,2445.75,1633.64Z" transform="translate(-131.49 -254.59)"/><path class="cls-12" d="M2041.72,844.2l605.17,295.17-16,16.36-58.09,406c-5.93,41.64-37.61,60.1-70.69,41.18L1935.62,1279l-49.19-109.75Z" transform="translate(-131.49 -254.59)"/><path class="cls-13" d="M1281.78,1470.57,907.63,1263.18l-12.51,19.09-61.43,418.46,387.52,214.8c41,22.73,80.16,1,87.41-48.5l34.29-265.62C1350.16,1551.94,1322.79,1493.3,1281.78,1470.57Z" transform="translate(-131.49 -254.59)"/><path class="cls-14" d="M1265.22,1562.33,1220.52,1856l7.1.86,19.35-7.51c21.21-8.36,32.35-30.45,35.45-51.92l32.89-254.64a1.77,1.77,0,0,0,0-.21c4.44-31.32-5-63.93-22.2-90.1-9.27-14.1-21.46-27-36.44-35.14L481.19,987.46c-14.75-8.38-32-11.5-48.23-5.39l-17.06,6.66c-8.58,3.23-11.24,5.81-11.18,6.34C412.77,1070.12,1276.52,1485.35,1265.22,1562.33Z" transform="translate(-131.49 -254.59)"/><path class="cls-15" d="M1237.18,1425,461.69,995.13c-17.23-9.55-34.11-10.9-48.21-5.4-18.07,7-31.59,25.32-35.5,52l-32.87,254.65c-7,47.44,19.19,103.6,58.5,125.39l775.5,429.87c39.33,21.78,76.85.92,83.8-46.51l32.87-254.66C1302.74,1503,1276.49,1446.79,1237.18,1425Z" transform="translate(-131.49 -254.59)"/><path class="cls-16" d="M1228,1504.24l-535.2-294.37c-4.12-2.28-8.15-2.61-11.52-1.29-4.32,1.68-7.55,6.05-8.49,12.42l-2.95,17.87c-1.66,11.34,4.59,24.77,14,30L1219,1563.22c9.4,5.2,18.37.22,20-11.12l3-17.88c1.66-11.33-4.61-24.77-14-30Zm-298,69.24c9.4,5.21,15.67,18.65,14,30l-3,17.87c-1.66,11.34-10.62,16.32-20,11.12L651.8,1487.57c-9.4-5.2-15.65-18.64-14-30l3-17.86c.94-6.38,4.17-10.75,8.49-12.43,3.37-1.32,7.4-1,11.53,1.29l269.16,144.88Zm282,40.13c9.4,5.2,15.68,18.65,14,30l-3,17.87c-1.66,11.34-10.63,16.33-20,11.12L667.8,1378.21c-9.4-5.2-15.65-18.64-14-30l3-17.87c.93-6.37,4.17-10.75,8.48-12.43,3.37-1.31,7.41-1,11.53,1.29Z" transform="translate(-131.49 -254.59)"/><path class="cls-16" d="M522.22,1204.66c-25.31-14-52.15,4.89-51.88,41.51.12,19,8.16,38.47,20.85,50.7a49.12,49.12,0,0,0,10.25,7.68c25.26,14,52-4.91,51.79-41.35,0-19-8.05-38.59-20.67-50.78a50.33,50.33,0,0,0-10.34-7.76Zm-24.39,117.09a66.77,66.77,0,0,1-13.76-10.3c-17.1-16.41-27.8-42.69-28.05-68.19-.3-49.12,35.72-74.64,69.74-55.79a66.26,66.26,0,0,1,14,10.49c17,16.36,27.74,42.65,27.85,68.16.21,49-35.76,74.46-69.73,55.63ZM613.7,1280c5.92,3.28,9.45,11.9,7.85,19.32l-6.18,28.77c-1.59,7.33-7.67,10.62-13.6,7.34l-3-1.68c-4.53-2.51-9.32-1.15-12,3.31a92.43,92.43,0,0,1-5.5,8.17c-3.09,4-3.59,10.51-1.23,16.28l1.59,3.91c3,7.43,1.22,15.9-4,18.75l-20.84,11.25a8.6,8.6,0,0,1-8.44-.3,16.06,16.06,0,0,1-6.76-8.13l-1.61-3.81a16,16,0,0,0-6.7-8,9.74,9.74,0,0,0-5-1.28c-3,0-5.94-.1-8.9-.37-4.76-.46-8.74,2.91-10,8.54l-.79,3.75c-1.59,7.33-7.67,10.62-13.6,7.34l-23.23-12.87c-5.93-3.29-9.45-11.91-7.87-19.25l.8-3.74a19.62,19.62,0,0,0-4.53-16.57c-2.51-2.75-4.84-5.6-7.15-8.52a14.53,14.53,0,0,0-4.43-4,8.5,8.5,0,0,0-8.36-.32l-2.73,1.4a8.59,8.59,0,0,1-8.45-.29,16.16,16.16,0,0,1-6.76-8.13l-12.06-29.5c-3-7.43-1.22-15.91,4-18.75l2.75-1.49c4.09-2.2,6.17-7.79,5.31-14-.56-4-.95-7.91-1.2-11.89-.38-6.13-3.63-12-8.16-14.46l-3-1.68c-5.93-3.28-9.45-11.89-7.88-19.24l6.2-28.77c1.59-7.42,7.68-10.71,13.6-7.42l3,1.68c4.55,2.52,9.33,1.16,12-3.31a87.47,87.47,0,0,1,5.51-8.16c3.07-4,3.58-10.43,1.2-16.22l-1.59-3.89c-3-7.52-1.21-15.92,4.06-18.83l20.83-11.27a8.62,8.62,0,0,1,8.44.3,16.15,16.15,0,0,1,6.77,8.14l1.59,3.89a16,16,0,0,0,6.7,8,9.7,9.7,0,0,0,5,1.29,71.8,71.8,0,0,1,8.92.29c4.75.53,8.71-2.84,9.92-8.46l.81-3.76c1.59-7.42,7.68-10.7,13.6-7.42l23.24,12.88c5.92,3.29,9.45,11.9,7.84,19.31l-.8,3.76a19.35,19.35,0,0,0,4.5,16.45q3.75,4.13,7.2,8.64A14.48,14.48,0,0,0,575,1181a8.51,8.51,0,0,0,8.35.31l2.76-1.48a8.6,8.6,0,0,1,8.44.3,16.22,16.22,0,0,1,6.77,8.13l12.06,29.5c3,7.51,1.22,15.92-4,18.83L606.6,1238c-4.08,2.21-6.17,7.81-5.28,14,.54,4,.95,7.92,1.2,11.88.37,6.14,3.61,12,8.16,14.47Z" transform="translate(-131.49 -254.59)"/><path class="cls-17" d="M1194.29,499.48l-167.37-80.91L960.86,831.93,952.36,890l174,93.9c30.24,16.76,59.09.71,64.44-35.76l48.53-352.21C1244.71,559.47,1224.52,516.24,1194.29,499.48Z" transform="translate(-131.49 -254.59)"/><path class="cls-14" d="M1173.89,597.78l-52.16,337,5.46.66,14.88-5.78c16.31-6.42,24.87-23.41,27.26-39.92l43.07-306.94a1.15,1.15,0,0,0,0-.16c3.42-24.09-3.82-49.16-17.07-69.28-7.12-10.85-16.5-20.79-28-27L847.26,312.35c-11.35-6.44-24.64-8.84-37.09-4.14l-13.12,5.12c-6.6,2.48-8.64,4.47-8.6,4.88C794.64,375.91,1182.57,538.59,1173.89,597.78Z" transform="translate(-131.49 -254.59)"/><path class="cls-18" d="M1152.32,492.18,832.26,318.25c-13.25-7.34-26.22-8.38-37.07-4.16-13.89,5.42-24.29,19.48-27.29,40L724.83,661c-5.34,36.47,14.76,79.66,45,96.42l320.07,173.93c30.23,16.75,59.09.71,64.43-35.76l43.06-307C1202.74,552.18,1182.55,508.94,1152.32,492.18Z" transform="translate(-131.49 -254.59)"/><path class="cls-19" d="M1093,849.21,771.48,676.62c-7.42-4-14.51.12-16,9.32-1.39,8.91,3.43,19.38,10.84,23.38l321.54,172.59c7.42,4,14.65-.06,16.09-9.27,1.38-8.88-3.57-19.44-11-23.43Zm14.37-93.43c7.41,4,12.35,14.55,11,23.42-1.44,9.21-8.67,13.26-16.09,9.27L780.75,615.88c-7.42-4-12.24-14.47-10.84-23.37,1.44-9.21,8.52-13.31,15.94-9.33l321.55,172.6Zm33.08-211.89L818.93,371.3c-7.41-4-14.5.12-15.88,9l-3.59,22.86c-1.38,8.89,3.44,19.38,10.85,23.36l321.55,172.6c7.4,4,14.62-.06,16-9l3.55-22.86c1.41-8.88-3.56-19.44-11-23.43Zm-18.61,119.19c7.4,4,12.37,14.39,11,23.28-1.47,9.38-8.66,13.24-16.07,9.26L795.24,523c-7.42-4-12.25-14.31-10.87-23.19,1.47-9.36,8.54-13.31,16-9.34Z" transform="translate(-131.49 -254.59)"/><path class="cls-14" d="M2431.17,1738.2l-38,234.67,5.93.72,16.18-6.29c17.74-7,27.05-25.46,29.65-43.41l28.16-202a1.35,1.35,0,0,0,0-.18c3.72-26.19-4.16-53.45-18.56-75.33-7.75-11.8-17.95-22.6-30.48-29.39l-248.46-136.4c-12.34-7-26.79-9.61-40.33-4.5l-14.26,5.57c-7.18,2.7-9.4,4.86-9.36,5.3C2118.36,1549.67,2440.62,1673.84,2431.17,1738.2Z" transform="translate(-131.49 -254.59)"/><path class="cls-20" d="M2407.72,1623.37,2159.27,1487c-14.41-8-28.52-9.11-40.31-4.52-15.11,5.89-26.42,21.18-29.68,43.45L2061.12,1728c-5.81,39.65,16.05,86.62,48.92,104.84l248.46,136.4c32.89,18.22,64.26.77,70.07-38.88l28.16-202.06C2462.55,1688.61,2440.6,1641.59,2407.72,1623.37Z" transform="translate(-131.49 -254.59)"/><path class="cls-21" d="M2299.49,1637.38a19.84,19.84,0,0,1,2.05,11.56c-.35,2.93-1.91,7.93-4.51,14.79l-52.94,147c-1.72,4.91-3.28,8.65-4.41,11.34-1.29,2.72-2.77,4.39-4.79,5.14-1.84.81-4.37.25-7.64-1.77-7.94-4.91-11.45-11.86-10.45-20.28.26-2.23,1.68-7.31,4.37-15.33l52.8-147.12c2.71-7.8,5.1-12.86,7.11-15.2s5.25-2.08,9.71.68a22.18,22.18,0,0,1,8.7,9.15Zm14.13,38.2-4.85,40.89,78.22,90.72-87.67-11.1-4.87,41.07,126.16,9.86,4.13-34.81-111.12-136.63Zm-220.52-31.2,111.15,136.78,4.87-41.06-77.84-91.31,87.27,11.86,4.92-41.42-126.19-10.07Z" transform="translate(-131.49 -254.59)"/><path class="cls-20" d="M1455.64,1646.62c4.47-30.55,27.73-44,51.95-30.08l360.12,203.06c24.19,13.94,40.23,50.07,35.76,80.61l-47.9,326c-4.47,30.55-27.76,44-52,30.09L1443.5,2053.22c-24.23-14-40.23-50.08-35.77-80.62Z" transform="translate(-131.49 -254.59)"/><polygon class="cls-22" points="1367.96 1724.31 1493.58 1550.31 1517.94 1734.83 1579.13 1668.3 1615.17 1865.61 1367.96 1724.31"/><path class="cls-23" d="M1706.39,1812.62c13.44,2.73,23.55,18.46,22.59,35.12s-12.62,28-26.06,25.21-23.54-18.46-22.59-35.12S1693,1809.88,1706.39,1812.62Z" transform="translate(-131.49 -254.59)"/><path class="cls-24" d="M1484.89,1693.27c3.71-25.38,23-36.6,43.17-25L1827.27,1837c20.11,11.59,33.43,41.61,29.72,67l-39.8,270.85c-3.71,25.38-23.06,36.58-43.18,25l-299.2-168.72c-20.14-11.6-33.43-41.61-29.72-67Z" transform="translate(-131.49 -254.59)"/><path class="cls-20" d="M1941.63,1928.88c4.47-30.54,27.73-44,52-30.08l360.11,203.06c24.2,13.95,40.23,50.07,35.76,80.62l-47.9,326c-4.47,30.54-27.75,44-52,30.08l-360.11-203.06c-24.23-14-40.23-50.08-35.76-80.62Z" transform="translate(-131.49 -254.59)"/><polygon class="cls-25" points="1853.95 2006.58 1979.57 1832.57 2003.93 2017.09 2065.13 1950.57 2101.16 2147.88 1853.95 2006.58"/><path class="cls-23" d="M2192.39,2094.88c13.43,2.74,23.54,18.46,22.58,35.13s-12.62,27.94-26.06,25.21-23.54-18.46-22.58-35.12S2179,2092.15,2192.39,2094.88Z" transform="translate(-131.49 -254.59)"/><path class="cls-26" d="M1970.89,1975.53c3.71-25.38,23-36.59,43.16-25l299.22,168.72c20.1,11.59,33.42,41.61,29.71,67l-39.8,270.85c-3.71,25.37-23.06,36.58-43.17,25L1960.8,2313.37c-20.13-11.6-33.43-41.61-29.72-67Z" transform="translate(-131.49 -254.59)"/><path class="cls-27" d="M1397.15,290.49c-32.05,18.82-16.7,62.28,12.42,108.23,41.33,65.19-58.68,138.57,77.25,175.7-14.16-39.79,44.75-54.35,73.7-108.68,33.39-62.69,14.88-125.57-28-179.12C1497.55,243,1433.64,243.57,1397.15,290.49Z" transform="translate(-131.49 -254.59)"/><path class="cls-28" d="M1460.61,702.44l7.84,29.55c2.46,6.34,3.94,8,13,3.94,5-2.41,3.41-12.76,2-20.31-1.51-8.32-.58-15.52.34-18.66,1.07-3.6,3.3-5.83,5.71-7.77,5.43-4.36,11.79-7.28,7.88-21.14-2-7.24-1.56-12.63-1.71-20.15l-18.94-1.25c.43,16.9-7.07,28.3-14.89,42.52C1458.11,696.05,1459,694.76,1460.61,702.44Z" transform="translate(-131.49 -254.59)"/><path class="cls-29" d="M1528.06,514.87l-.14-1a16.14,16.14,0,0,0-.6-4.06c-4.81-32.14-14.59-86.29-22.21-114.54C1491.8,346,1449.6,363,1450,392.48c.42,27.85,26.32,88.15,32.28,114.28-2.12,19-10.06,114.1-7.31,130.71.52,3.16,1.91,5.22,1.75,8.7-.11,2.64-.83,3.69-1.61,6.87,7.46,1,14.92,2,22.25,3.77.28-2,.44-5.51,1.11-7.4,1.27-3.58,4.55-5.41,6-8.44,7.28-14.89,19.31-93,22.62-118.47A31.79,31.79,0,0,0,1528.06,514.87Z" transform="translate(-131.49 -254.59)"/><path class="cls-30" d="M1522.54,545c2.83-6.83,6-28.11,6-37.54-.07-19.59-7.46-35.79-9.76-48.23l-68.44-68.13c.44,12.76,15.33,46.75,21.43,71.84C1481.28,502,1502,535.74,1522.54,545Z" transform="translate(-131.49 -254.59)"/><path class="cls-31" d="M1734.26,549.59c-9.65,31.9-55,57-100.35,47-10.84-12-14.06-8.3-24-18-9-8.85-20.16-20.94-35.74-36.74-8.66-13.59-42.82-19.15-57.9-25.07-17-6.68-32.14-20.6-39.18-47.65-3.41-13.13-18.28-53.27-23.63-66.65-15.46-38.69,18.07-53.15,40.75-38.82,14.52,6.05,46.54,13.66,62.36,16.61a262.62,262.62,0,0,0,27.67,4.11c18.84,1.83,39.29,15.57,53.92,27.22C1677.5,442.93,1730.81,505.84,1734.26,549.59Z" transform="translate(-131.49 -254.59)"/><path class="cls-32" d="M1506.7,348.07c4.14,16.85,13.93,33.05,27,45.53-4.8,17.17-37.58,29.55-48,17.94-.81-2.29-1.91-7.44-3-9.1-1.72-5-3.43-9.45-4.9-13Z" transform="translate(-131.49 -254.59)"/><path class="cls-33" d="M1411.51,325.11c1.6,13.05,5.76,24.06,17,35.29a16.4,16.4,0,0,1,4.74,7.89c4.27,15.59,7.62,18.78,17.62,25.9,9.73,6.94,13.37,11.74,18.91,12.32,5.7.6,11-2.49,15.13-5.47,8.55-6.12,18.12-22.85,22.62-33.9,3.33-8.19,1.26-10.25-.85-18,2.47-14.3-7.42-15.2-10.71-13.44-9.45,5.07-3.11,15.54-6.24,21.56C1456.55,364.57,1422.2,334.8,1411.51,325.11Z" transform="translate(-131.49 -254.59)"/><path class="cls-34" d="M1411.51,325.11c18.44,30.7,59,38.45,78.24,32.13C1456.55,364.57,1422.2,334.8,1411.51,325.11Z" transform="translate(-131.49 -254.59)"/><path class="cls-30" d="M1626.15,588.75a5.68,5.68,0,0,1-.84.17c-5-3.32-8.66-3.73-15.37-10.31-9-8.85-20.16-20.94-35.74-36.74-4.42-6.93-15.45-11.77-27.21-15.63,1.86-31.76,1-104.34,11.45-113.79,14.37-13,34.15-21.69,50.65-4.73C1640.25,439.73,1609.23,558.22,1626.15,588.75Z" transform="translate(-131.49 -254.59)"/><polygon class="cls-9" points="1450.71 376.83 1430.97 302.57 1444.61 290.42 1569.18 360.33 1557.59 373.33 1503.48 409.53 1450.71 376.83"/><path class="cls-14" d="M1562.52,557.37l-9.08-29,155.45,86.28-20,13.4Z" transform="translate(-131.49 -254.59)"/><path class="cls-35" d="M1308,733.08c8.06-59.5,53.21-85.12,100.82-57.1l491.79,287.14c47.56,28,79.65,99,71.59,158.55l-75,567.18c-8.06,59.5-53.26,85.1-100.83,57.11l-491.77-287.14c-47.63-28-79.66-99-71.6-158.54Z" transform="translate(-131.49 -254.59)"/><path class="cls-14" d="M1325.41,729.81c.87-6.42,2.14-35.16,9.86-41,10.4-7.9,29.39-19.36,35-20.87,14.64-3.91,31.55-1.34,48.81,8.82l459.54,266.3c44.19,26,74,92,66.52,147.32l-69.65,527c-2.61,19.31-9.45,34.78-19.1,45.62-6.53,7.34-21.81,17.6-34.55,24.18-13.16,6.81-31.69-11.82-40-16.74l-459.53-266.3c-44.26-26-74-92-66.54-147.32Z" transform="translate(-131.49 -254.59)"/><path class="cls-20" d="M1309.23,741.11c7.5-55.29,49.44-79.1,93.69-53.06l457,266.82c44.2,26,74,92,66.52,147.32l-69.65,527c-7.49,55.28-49.49,79.07-93.69,53.06l-457-266.82c-44.26-26-74-92-66.53-147.31Z" transform="translate(-131.49 -254.59)"/><path class="cls-36" d="M1309.23,741.11c7.5-55.29,49.44-79.1,93.69-53.06l457,266.82c44.2,26,74,92,66.52,147.32l-7.13,52.36L1302,794.14Z" transform="translate(-131.49 -254.59)"/><path class="cls-20" d="M1382.7,743.18c10.06,2.39,17.75,14.44,17.17,26.94s-9.21,20.67-19.28,18.29-17.76-14.45-17.17-26.94S1372.63,740.79,1382.7,743.18Z" transform="translate(-131.49 -254.59)"/><path class="cls-20" d="M1436.42,776.67c10.07,2.39,17.75,14.45,17.17,26.94s-9.21,20.67-19.28,18.29-17.75-14.45-17.17-26.94S1426.35,774.28,1436.42,776.67Z" transform="translate(-131.49 -254.59)"/><path class="cls-20" d="M1490.14,810.16c10.07,2.39,17.75,14.45,17.17,26.94s-9.21,20.67-19.28,18.29-17.75-14.45-17.17-26.94S1480.08,807.77,1490.14,810.16Z" transform="translate(-131.49 -254.59)"/><path class="cls-37" d="M1406.17,898.85c46.65,11.06,82.28,66.95,79.58,124.83s-42.71,95.84-89.36,84.78-82.28-67-79.59-124.84S1359.51,887.78,1406.17,898.85Z" transform="translate(-131.49 -254.59)"/><path class="cls-38" d="M1403.91,947.15c25.16,6,44.37,36.09,42.91,67.3s-23,51.67-48.18,45.71-44.36-36.1-42.91-67.31S1378.76,941.18,1403.91,947.15Z" transform="translate(-131.49 -254.59)"/><path class="cls-39" d="M1513.8,1011.16c1.67-12.3,11-17.45,20.8-11.48l298.69,172.17c9.8,6,16.41,20.79,14.75,33.09l-3.23,24.33c-1.67,12.29-11,17.43-20.8,11.47l-298.69-172.17c-9.81-6-16.42-20.79-14.75-33.09Z" transform="translate(-131.49 -254.59)"/><path class="cls-39" d="M1501.93,1100.63c1-7.26,6.48-10.31,12.27-6.78l176.38,101.67c5.79,3.52,9.7,12.28,8.71,19.54l-1.9,14.36c-1,7.26-6.49,10.3-12.28,6.78l-176.38-101.67c-5.8-3.53-9.7-12.28-8.71-19.54Z" transform="translate(-131.49 -254.59)"/><path class="cls-39" d="M1302.56,1123.44c1.21-9,8-12.71,15.14-8.36L1833.53,1411c7.14,4.34,12,15.14,10.75,24.1l-1.61,11.73c-1.21,9-8,12.7-15.14,8.35L1311.7,1159.26c-7.15-4.34-12-15.14-10.75-24.09Z" transform="translate(-131.49 -254.59)"/><path class="cls-39" d="M1291.78,1210.24c1.21-9,8-12.71,15.14-8.36l515.83,295.94c7.14,4.34,12,15.14,10.74,24.1l-1.6,11.73c-1.21,8.95-8,12.7-15.15,8.36l-515.83-295.94c-7.15-4.35-12-15.15-10.74-24.1Z" transform="translate(-131.49 -254.59)"/><path class="cls-39" d="M1280.48,1292.92c1.21-9,8-12.7,15.14-8.35l515.83,295.94c7.14,4.34,12,15.14,10.75,24.1l-1.61,11.72c-1.21,9-8,12.71-15.15,8.36l-515.82-295.94c-7.16-4.34-12-15.14-10.75-24.1Z" transform="translate(-131.49 -254.59)"/><path class="cls-14" d="M1947,681.82c1.64-11.47-6-20.31-1-27.9,5.38-8.22,23.67-14.09,31.58-16.95,11.23-4.05,24.44-2.73,37.9,5l548.66,313.69c32,18.33,53.39,66,47.64,106.31l-61.58,430.46c-2.82,19.77-11.62,34.14-23.64,41.5-7.34,4.5-27.45,13.1-36.56,12-6.4-.77-1.53-9.75-8.27-13.61L1933,1218.59c-32.07-18.35-53.39-66-47.65-106.3Z" transform="translate(-131.49 -254.59)"/><path class="cls-40" d="M1930.52,688.38c5.75-40.33,36.4-58.23,68.47-39.88l548.66,313.69c32,18.33,53.39,66,47.64,106.3L2533.71,1499c-5.74,40.33-36.44,58.21-68.47,39.88l-548.66-313.69c-32.07-18.35-53.39-66-47.65-106.31Z" transform="translate(-131.49 -254.59)"/><path class="cls-41" d="M1887.92,1138.57c.5-3.5,3.15-5,5.93-3.32l608.5,348.91c2.77,1.67,4.62,5.87,4.12,9.37l-1.61,10.62c-.5,3.5-3.16,5-5.93,3.33l-608.5-348.92c-2.78-1.67-4.62-5.86-4.12-9.36Z" transform="translate(-131.49 -254.59)"/><path class="cls-42" d="M1888.21,1138.91c.48-3.38,3-4.82,5.72-3.21l245.45,140.69c2.67,1.61,4.45,5.66,4,9l-1.56,10.24c-.48,3.38-3,4.82-5.71,3.21l-245.45-140.7c-2.68-1.6-4.45-5.65-4-9Z" transform="translate(-131.49 -254.59)"/><path class="cls-43" d="M2128.77,931.79c1.36-9.6,8.66-13.86,16.29-9.49L2314,1018.91c7.62,4.36,12.7,15.7,11.33,25.29l-22.79,160.72c-1.37,9.6-8.67,13.85-16.29,9.49l-168.91-96.61c-7.63-4.37-12.7-15.7-11.34-25.29Z" transform="translate(-131.49 -254.59)"/><path class="cls-44" d="M2225.13,1001.73c-29.24-16.73-57.16-.44-62.4,36.34s14.18,80.19,43.42,96.92,57.16.43,62.4-36.39S2254.34,1018.44,2225.13,1001.73Z" transform="translate(-131.49 -254.59)"/><polygon class="cls-20" points="2066.58 765 2057.35 831.57 2113.76 833.1 2066.58 765"/><path class="cls-45" d="M1541.07,679.15c-4.79,8-2.26,25.35-3.82,33.6-1.23,6.47-4.83,18.81-7.34,24.09-1,2.13-32.82,30.38-34.67,29-4.19-3.23-6.92-25.54-1.41-32s10.16-12.83,11.09-18.14.63-23,2.94-25.67c5.22-6.17,10.67-8.13,13-15.82Z" transform="translate(-131.49 -254.59)"/><path class="cls-46" d="M1603,571.2a49,49,0,0,0,1.2-5.59c8.28-34.26,16.7-92.89,15.62-126.85-.82-25.94-13.45-47.9-43.88-39.45-9.35,2.6-20.17,9.71-21.56,22-1.65,14.75.54,39.23,1.94,64.24,1.11,20,1,56,1.78,70.66-.13.44-.26.9-.38,1.36-9.74,19.4-32.42,82.73-37.17,103.28-.8,3.43-.06,7.13-.09,9.5,0,2-.79,4.45-2.46,7.63a46.15,46.15,0,0,0,20.86,10.75,56.49,56.49,0,0,1,4.26-7.52c1.32-2,7.42-3.92,9.79-6.76,12.61-15.1,45.88-84.17,49.95-102.54C1602.89,571.68,1602.93,571.44,1603,571.2Z" transform="translate(-131.49 -254.59)"/><path class="cls-6" d="M1116.87,2336.14l276.24-157.32c30.12-13.76,73.22-24.72,103.9-8.75,28,14.55,74,44.33,94.37,55.94,15.47,8.82,69.16,41,35.72,59.17-98.38,53.49-195.73,113.65-295.62,168-18.89,10.28-46.53,14-75.54,11.58s-58.52-10.81-81.82-24.36l-49-28.52c-21.67-12.61-33.16-27.53-34.3-41.32C1089.73,2357.07,1098.39,2344.58,1116.87,2336.14Z" transform="translate(-131.49 -254.59)"/><path class="cls-20" d="M1218.66,2327.81c5.41-.12,23.64-17.25,40.9-8.6,20.74,10.39,60.11,1.18,80,6,3.54.84,10.46-1.76,11.83.67,4.28,7.61,8.42,19-2.11,26.45-7.74,5.48-24.33,12.73-35.21,16.59-11.54,4.09-31.3,10.53-44.55,12.6-14.66,2.3-21.35,3.24-26.85,7.48-7.84,4-16,5.65-20.48,4.93-9.67-1.54-21-7.21-26.11-18.23-1.65-3.53-1.7-18.92.2-28.91,1.5-7.88,5.8-16.86,9.24-25.24Z" transform="translate(-131.49 -254.59)"/><path class="cls-47" d="M1261.07,2291c-6.56,15.75-4.54,40.12-20.09,48.58-10.39,5.65-26.66,5.7-33.75-10.45-4-9,1.29-24.39.13-44.16Z" transform="translate(-131.49 -254.59)"/><path class="cls-48" d="M1265.4,2315.35c11.91,3.46,44.8,1.15,65.59,2.83,8.94.73,17,.66,21.13,8.77,3.84,7.47,1.83,13.86-6.88,20-7.74,5.48-20.88,11.73-31.76,15.59-11.55,4.09-31.3,10.53-44.55,12.61-14.67,2.29-21.36,3.24-26.85,7.47-7.85,4-16,5.65-20.48,4.93-9.68-1.54-20.95-8.35-26.12-19.38-1.64-3.53-1.69-17.77.21-27.76a50.23,50.23,0,0,1,1.53-5.89c1.63-15.64,6.8-22,11.67-19.29,6.67,3.67,9.18,10.27,11.72,15.69,2.15,4.59,5.36,7.47,9.06,8.64,8,2.51,15.25-1.94,20-8.78,2.63-4.58,4.2-10.1,5.47-15.85,0-.54,0-1.07,0-1.59,1.56-13.68,8.22-12.49,7.21-9.61C1261.41,2306.41,1261.79,2312.56,1265.4,2315.35Z" transform="translate(-131.49 -254.59)"/><path class="cls-20" d="M1348,2324.65c-.16,5.29,8,5.79,5.6,15.08,3.9-3.82-1.54-14.78-3.94-16.45C1348.63,2322.6,1347.79,2322.32,1348,2324.65Z" transform="translate(-131.49 -254.59)"/><path class="cls-20" d="M1354.18,2273.59c5-2,16.26-24.34,35.44-22.15,7.74.88,20.19-1.14,32.82-4.73,20.14-5.73,48.2-23.73,53-20.79,10.44,6.42,11.27,18.13,4,28.75-5.4,7.81-15.58,18.2-24.47,25.56-9.43,7.81-22.81,19.76-34.53,26.27-11.08,6.14-14.76,5.6-22.64,16.25-6,6.41-13,10.23-17.54,11.1-11.51,2.25-28.24-5.14-34.26-12.86-3.82-12.39-10.46-24.11-6.21-42.7Z" transform="translate(-131.49 -254.59)"/><path class="cls-47" d="M1380.78,2220.82c-.31,17.06,10.53,39-.82,52.57-7.58,9.07-22.7,15.1-35.23,2.7-7-6.93-7.76-23.17-16.12-41.13Z" transform="translate(-131.49 -254.59)"/><path class="cls-48" d="M1417.27,2241.62c1.15-.3,2.29-.62,3.44-.94,20.15-5.73,47.06-19.61,51.85-16.66,10.44,6.42,12.42,14,5.09,24.61-5.39,7.82-15.57,18.21-24.47,25.57-9.42,7.81-22.81,19.76-34.53,26.27-11.07,6.14-14.75,5.59-22.64,16.25-6,6.41-13,10.23-17.53,11.1-11.52,2.25-28.74-5.21-34.76-12.93-2.85-9.22-6.75-18-7.07-29.59-1.67-15.17-.63-22.89,6-22.7,12.28.36,17.34,6.83,22.41,10,10.92,6.81,18.24-2,20-12.87a63.17,63.17,0,0,0-1-14.39c-.17-.51-.36-1-.56-1.49-3.58-13.3,3-14.63,3.17-11.58.27,6.91,4.59,10.78,10.13,11.61C1403.44,2244.87,1411.88,2242.08,1417.27,2241.62Z" transform="translate(-131.49 -254.59)"/><path class="cls-20" d="M1471.32,2225.72c2.14,4.84,9.66,1.8,11.55,11.19,1.87-5.12-7.75-12.67-10.64-13.14C1471,2223.58,1470.16,2223.68,1471.32,2225.72Z" transform="translate(-131.49 -254.59)"/><path class="cls-49" d="M1369.18,1760.11c4.41,49.43,29.18,207.29,22.29,250.63-10.36,65.17-7.4,143.9-7.29,213.07-1.75,29.06-41.7,44.25-53.34,25.78-9.33-61.8-22.62-116-28-150.3-6-38.46-4-85.19,5.71-110.46-4-27.62-22.84-98.85-38.56-148.21-5.68-17.81-37.83-75.37-4.55-132.57Z" transform="translate(-131.49 -254.59)"/><path class="cls-50" d="M1384.83,2205.26c0,5.12-.15,12.94-.15,18-1.74,29.07-42.2,44.83-53.84,26.36-.68-4.55-1.68-9.07-2.41-13.53C1344.07,2252.91,1374.72,2231,1384.83,2205.26Z" transform="translate(-131.49 -254.59)"/><path class="cls-4" d="M1392.54,1981.33c-13,65.35-49.88,152.65-70,218.36-10.48-56.3-36.68-152.18-14-210.86-2.28-15.73-9.37-45.6-18-77.53,17.44-33.06.77-59.45,9-106,46.16-8-23.52-64.39,74.18-5C1382.5,1870.38,1390.71,1914.48,1392.54,1981.33Z" transform="translate(-131.49 -254.59)"/><path class="cls-51" d="M1366,2043.32c-26.64,60.29-75.78,178.57-101.91,252.57-13.52,19.65-61.74,17.6-61.64-.73,10.64-61.87,23.15-157.29,45.36-211.55,6.8-16.6,31.88-56.56,40.92-68.42,7-27.31,15.83-101,22.63-141-6.1-33-32.73-88.24,18.44-136.22,20.65,14.68,84.49,23.87,113.44,7.51C1447.9,1876,1415.88,1930.36,1366,2043.32Z" transform="translate(-131.49 -254.59)"/><path class="cls-52" d="M1269.5,2283c-1.17,3.23-3.49,9.76-4.58,12.86-13.92,20.23-63.55,18.12-63.46-.75q.8-4.59,1.6-9.4C1214.89,2297.76,1250.68,2297.92,1269.5,2283Z" transform="translate(-131.49 -254.59)"/><path class="cls-53" d="M1529.28,1037.25c-1.9,4-3.71,8-5.69,12l-8.15,16.3c-1.74-8-8.11-11-13-7a13.88,13.88,0,0,0-4,5.33c-.78-2.18-7-7.09-15.3,4.76-5.2-.57-7.94,1.64-10.14,5.85a64.64,64.64,0,0,0-3.49,8.54c-1.49,4.25-2.46,7.87-2.44,11.57.06,7.86.4,16.38.17,25.76-.24,10.19-11.79,23.09-18.07,30.52l37.81,12c5.78-7.26,8.91-12.51,14.73-18.41s13.43-6.73,19.09-11.37c3.17-2.6,5-6,10.38-13.66,4.45-6.31,6.89-13.14,11.14-20.05,4.14-7.15,3.89-5.57,4.31-13.59.33-6.2,2.33-12.32,2.84-16.07-7.77-3.88-13.89,5.72-13.83,15.06-4.45,2.5-7.37,8.64-8.38,11.38-6.18-8.08-2.5-11.46,0-21.83a104.34,104.34,0,0,0,8.9-20.82c1.2-3.19,2.41-6.5,3.7-10.08,1.76-5.81-.49-9.94-2.24-11.08C1536.18,1031.37,1532.43,1031.81,1529.28,1037.25Z" transform="translate(-131.49 -254.59)"/><path class="cls-54" d="M1545,1068.88c-5.52.79-9.42,8.41-9.37,15.87-4.17,2.34-7,7.87-8.16,10.81,2.26-2.91,8-9.15,9.93-9.89.59-7.19,3.15-13.08,7.6-16.79Zm-28.89-4.75-.7,1.41a14.24,14.24,0,0,0-2.06-5c-.22,5.44-3.24,9.35-5.39,12,4.88-2.19,6.84-4.81,8.15-8.39Zm-17.73-.41a4.79,4.79,0,0,0-2-2,31.94,31.94,0,0,1-4.25,10.83,18.17,18.17,0,0,0,6.25-8.8Zm-15.07,4.65-.18.24a13.27,13.27,0,0,0-2.42,0c-.74,5.24-1.83,8.49-4.41,12.11C1480.33,1076.77,1482.36,1074.1,1483.34,1068.37Z" transform="translate(-131.49 -254.59)"/><path class="cls-55" d="M1386.47,1255.73c19-33.16,33.94-74.7,60.53-108.38,2.22-2.81,7.43-5,9.34-7.91q4.17-6.43,8.29-12.64c12.47.23,27.78,6.64,38.28,17.26q-2.23,6.66-4.4,13.26c-1.68,5.12,1.55,16.07.09,21.2a853,853,0,0,1-46.63,127c-26.38,34-143.58,252.42-204.86,173.17-5.52-28.19,2-51.64,16.13-74.45,7.84-12.63,19.78-23.64,27.81-32C1310.32,1352.31,1357.54,1285.57,1386.47,1255.73Z" transform="translate(-131.49 -254.59)"/><path class="cls-56" d="M1256.07,1583c4.29,38.67-7.34,76.71,4.5,112,.53,3.65.87,18,1.49,21.86,7.8,45.74,104.55,92,185.23,48.13.45-5.67-.07-11.59.37-22.1-1.49-9.81,2.75-20.32,2.72-26.31-.11-24.89-7.86-37.61-4.15-65.31,7.56-56.35,38.78-110.5,21.51-154.84-3.7-9.51-10.2-14.12-17.55-20-19.07-15.32-117.7-65.54-147.59-69.08C1215.8,1396.09,1251.42,1541.05,1256.07,1583Z" transform="translate(-131.49 -254.59)"/><path class="cls-57" d="M1455,1610.44c11.19-41.41,25.81-80.5,12.77-114-3.7-9.51-10.2-14.12-17.55-20-19.07-15.32-16.55,25.87-46.44,22.33C1398,1553.79,1425.21,1603.87,1455,1610.44Z" transform="translate(-131.49 -254.59)"/><path class="cls-33" d="M1394.11,1390c-1,13.75-.35,33.55,2.2,47.49-28.27-.92-67.55-8.31-71.84-29.36.2-2.52.38-5.08.51-7.6a11.37,11.37,0,0,0-1.16-.9c-10.13-6.74-26.9-11.74-37.68-24.07-17.22-19.69-26.38-46.15-12.86-72.78,24.69-48.64,84.39-49.46,117.65-10.14,6.49,7.68,1.74,15.63,5.43,23,.73,1.45,3.38,2.09,6.46,4.64,4.26,3.51,16.67,33.91,16.35,49.78-.13,6.39-14.82,15.4-21.34,18.93A17.73,17.73,0,0,1,1394.11,1390Z" transform="translate(-131.49 -254.59)"/><path class="cls-58" d="M1394.11,1390c-1,13.75-.35,33.55,2.2,47.49-28.27-.92-67.55-8.31-71.84-29.36.2-2.52.38-5.08.51-7.6-.39-.34-.82-.58-1.16-.9-21.48-20.11,7.25-43.16,43.57-23.3C1373.3,1385.77,1382.45,1390.65,1394.11,1390Z" transform="translate(-131.49 -254.59)"/><path class="cls-59" d="M1419.17,1370.14c-.13,2.8-11.7,7-16.54,7.66,3.3-30-25.3-34.63-21-64,2.59-17.63-15.54-24-8.42-36.91a82.28,82.28,0,0,1,17.71,15.74c6.49,7.68,1.74,15.63,5.43,23,.73,1.45,3.38,2.09,6.46,4.64C1407.08,1323.87,1419.9,1354.29,1419.17,1370.14Z" transform="translate(-131.49 -254.59)"/><path class="cls-60" d="M1380.21,1357.94c-.56-6.73-3.28-8-5.54-6.23-2.47,2-4.59,7.78-3.91,14.7,1.1,11.16,11.44,21.16,18.57,12.13-7.79,4.14-11.47-5.86-11.8-12.91C1377.3,1360.84,1378.52,1356.82,1380.21,1357.94Z" transform="translate(-131.49 -254.59)"/><path class="cls-61" d="M1377.72,1362.24c4.15,3.14,6.07,5.26,6,7,0,1.23-1.07,3.07-4.71,1.78A15.87,15.87,0,0,1,1377.72,1362.24Z" transform="translate(-131.49 -254.59)"/><path class="cls-62" d="M1324.12,1407.41c-8.36,2.58-16.18,11.18-14.65,16.69,8.33,34,70.7,41.63,109.49,33.43.46-.09-14.52-19.91-22-22.32C1372.61,1437.6,1331.65,1427.5,1324.12,1407.41Z" transform="translate(-131.49 -254.59)"/><path class="cls-63" d="M1321.12,1405.3c-10.34-11-27.83-16.31-39.06-29.14-11.07-12.67-23.2-32.1-15.8-52.06-13-41,31.53-73.54,69.07-80.93,26.86-5.29,42.92,23.52,31.25,43,10.07,11.26,9.73,26.15,9,30-2.15,11.71-1.85,13.19,1.9,22,3,6.92,10.32,23.65-3,13.05-8.62-6.84-14.65,8.28-11.73,18.74a47.81,47.81,0,0,1,1.87,20.22C1362.13,1412.07,1326.88,1411.44,1321.12,1405.3Z" transform="translate(-131.49 -254.59)"/><path class="cls-64" d="M1278.71,1305.53c-8.9-39.72,43.33-59.83,63.76-60.3,20.67-.48,36.87,33.54,12.36,45C1338.12,1298,1305,1282.76,1278.71,1305.53Z" transform="translate(-131.49 -254.59)"/><path class="cls-65" d="M1692.79,1361.78c-1.23,3-1.27,4.79-1.69,8a64.21,64.21,0,0,0-3.88,12.18c-1.27,6.43-.8,11.5-1,20-.11,5,.69,7.51,1.75,12.33-5,9.81-12.91,15.84-20.28,23.93l23.88,18.22c10.07-6.65,17.94-13.63,26.61-19.4,7-2.78,9.52-4.36,11.63-6.56,5.52-5.76,21.81-22.9,22.74-29.63,1-7.47-1-24.75-2.65-34.25-4.31-24.19-13.53-49.62-15.11-38.39-2.3,2.68-.42,24.55-1.88,27.79-5.65,6.51-8.34,9.19-15.43,16.94-4.39,2.5-7.28,5.11-9.4,5.69-2.44.66-3.79-1-3.87-3.19-.1-2.4,1.44-6.65,2.7-12.9,0-10.37-2.57-16.24-8.12-15.7-2.85.28-4.49,1.8-5.2,4.85C1693,1354.19,1693.18,1357.54,1692.79,1361.78Z" transform="translate(-131.49 -254.59)"/><path class="cls-66" d="M1452.13,1463.32c32.87,5.07,96.3,41.23,140.07,60.84,24.41-34.79,56.44-76.47,76.2-90.51,2.27-1.61,8-4.88,9.83-7.05,2.86-3.51,5.66-7.12,8.36-10.84,12.35,1.72,30.23,17.13,30,24.41-2,3.64-4,7.45-6.07,11.37-1.41,2.69-.89,8.58-1.73,11.6-6.7,24.36-43.65,80.62-60.88,105.72-10,14.5-13.45,23-20.19,27.35-10.82,7-25.33,3.15-53.29-3.88-23.53-5.91-99.51-19.73-134.46-38.18-24.65-13-43.56-36.43-33.77-63.41C1412.48,1473.45,1431,1460.06,1452.13,1463.32Z" transform="translate(-131.49 -254.59)"/><path class="cls-67" d="M2356.69,459.16c-21.46-11.9-44.24,4.15-44,35.21.11,16.09,6.93,32.64,17.69,43a42.11,42.11,0,0,0,8.7,6.52c21.43,11.88,44.1-4.17,43.93-35.08,0-16.12-6.83-32.74-17.54-43.08a42.21,42.21,0,0,0-8.77-6.58ZM2336,558.49a56.46,56.46,0,0,1-11.67-8.74c-14.51-13.92-23.59-36.21-23.8-57.85-.26-41.66,30.31-63.32,59.17-47.33a56.88,56.88,0,0,1,11.84,8.9c14.45,13.88,23.53,36.18,23.62,57.83.18,41.55-30.34,63.16-59.16,47.19Zm98.3-35.41c5,2.79,8,10.1,6.66,16.4l-5.25,24.41c-1.34,6.22-6.5,9-11.53,6.22l-2.57-1.42a7.19,7.19,0,0,0-10.16,2.8,76.91,76.91,0,0,1-4.67,6.93c-2.62,3.43-3.05,8.92-1.05,13.82l1.35,3.31c2.59,6.31,1,13.5-3.42,15.91L2386,621a7.3,7.3,0,0,1-7.16-.26,13.66,13.66,0,0,1-5.74-6.9l-1.36-3.23a13.57,13.57,0,0,0-5.69-6.81,8.23,8.23,0,0,0-4.24-1.09c-2.5,0-5-.08-7.55-.31-4-.39-7.41,2.47-8.44,7.24l-.68,3.19c-1.34,6.21-6.5,9-11.53,6.23l-19.7-10.93c-5-2.79-8-10.1-6.69-16.33l.69-3.17a16.62,16.62,0,0,0-3.85-14.06c-2.12-2.33-4.1-4.75-6.07-7.23a12.32,12.32,0,0,0-3.75-3.35,7.25,7.25,0,0,0-7.09-.27l-2.31,1.19a7.31,7.31,0,0,1-7.18-.24,13.78,13.78,0,0,1-5.73-6.9l-10.24-25c-2.57-6.3-1-13.5,3.43-15.9l2.33-1.27c3.46-1.87,5.24-6.61,4.5-11.9-.47-3.35-.8-6.71-1-10.08-.31-5.21-3.07-10.14-6.92-12.27l-2.57-1.43c-5-2.78-8-10.09-6.68-16.32l5.26-24.41c1.35-6.29,6.51-9.08,11.54-6.29l2.57,1.42a7.19,7.19,0,0,0,10.16-2.8,72.34,72.34,0,0,1,4.68-6.93c2.6-3.37,3-8.85,1-13.76l-1.36-3.3c-2.55-6.38-1-13.5,3.44-16l17.68-9.55a7.29,7.29,0,0,1,7.16.25,13.75,13.75,0,0,1,5.74,6.9l1.35,3.3a13.52,13.52,0,0,0,5.68,6.81,8.16,8.16,0,0,0,4.25,1.1,63.66,63.66,0,0,1,7.56.24c4,.46,7.39-2.4,8.42-7.17l.68-3.19c1.36-6.29,6.52-9.08,11.55-6.29l19.71,10.93c5,2.78,8,10.09,6.65,16.38l-.68,3.18a16.42,16.42,0,0,0,3.82,14q3.18,3.5,6.1,7.33a12.29,12.29,0,0,0,3.76,3.34,7.2,7.2,0,0,0,7.08.27l2.34-1.26a7.27,7.27,0,0,1,7.16.26,13.59,13.59,0,0,1,5.74,6.89l10.23,25c2.57,6.37,1,13.5-3.43,16l-2.33,1.26c-3.47,1.87-5.24,6.62-4.49,11.84.47,3.35.81,6.72,1,10.08.32,5.21,3.07,10.14,6.93,12.27Z" transform="translate(-131.49 -254.59)"/><path class="cls-68" d="M340,401.58c-2.22,15.13-14.05,22-26.56,15-12.73-7.06-20.93-25-18.72-40.13s14-21.58,26.73-14.52c12.5,6.92,20.75,24.6,18.55,39.62ZM271.35,535.93c2.21-15.11,14-21.67,26.74-14.61,12.51,6.92,20.76,24.6,18.55,39.71s-14.06,22-26.57,15c-12.73-7.06-20.93-25-18.72-40.14ZM193.22,406.62c-2.2,15-14.23,21.46-26.73,14.53s-20.75-24.59-18.55-39.62,14.13-21.92,26.55-15,20.94,25,18.73,40.11Zm131-63.91c-21.28-11.8-41.71-.78-45.48,25l0,1.91-74.19,11.68c-5.27-14.5-15-26.92-27.31-33.71-21.28-11.8-41.41-.52-45.17,25.2-3.73,25.46,10.28,55.87,31.57,67.66,12.27,6.81,24,6,32.38-.93l59.83,86.27-.45,1.38c-3.77,25.71,10.6,56,31.88,67.82,21,11.66,41.39.61,45.17-25.12,3.72-25.45-10.51-56.08-31.57-67.76-15.13-8.39-29.63-5.15-38.21,6.35L206,425.81a33.75,33.75,0,0,0,2.88-10.48,45.29,45.29,0,0,0,.44-12.24L279.9,391c4.15,18.64,15.61,36.17,30.76,44.56,21,11.66,41.41.51,45.18-25.22S345.31,354.38,324.27,342.71Z" transform="translate(-131.49 -254.59)"/><polygon class="cls-69" points="79.27 1834.7 189.68 1652.32 245.44 1854.83 302.1 1785.87 372.68 2002.99 79.27 1834.7"/><path class="cls-70" d="M411.59,1920c15.17,3.76,28.74,21.48,30.31,39.58s-9.45,29.73-24.62,26S388.55,1964.11,387,1946,396.43,1916.27,411.59,1920Z" transform="translate(-131.49 -254.59)"/></g></g></svg>