<svg id="Layer_1" data-name="Layer 1" xmlns="http://www.w3.org/2000/svg" viewBox="0 0 177.31 175.41"><defs><style>.cls-1{fill:#2589ca;}.cls-2{fill:#0f71b3;}.cls-3{fill:#0877b9;}.cls-4{fill:#3c99d4;}</style></defs><title>vscode</title><path class="cls-1" d="M3,63.46s-4.32-3.11.87-7.27L16,45.4s3.46-3.64,7.11-.47l111.42,84.35v40.45s-.05,6.36-8.21,5.65Z" transform="translate(-1.35 -2.3)"/><path class="cls-2" d="M31.76,89.54,3,115.65s-3,2.19,0,6.11l13.34,12.13s3.15,3.4,7.83-.47l30.45-23.08Z" transform="translate(-1.35 -2.3)"/><path class="cls-3" d="M82.17,89.75l52.67-40.21L134.49,9.3s-2.25-8.78-9.75-4.21L54.65,68.88Z" transform="translate(-1.35 -2.3)"/><path class="cls-4" d="M126.3,175.44a7.21,7.21,0,0,0,6.75,2.1l41-20.22c5.25-3.58,4.52-8,4.52-8V28.52c0-5.31-5.44-7.14-5.44-7.14L137.61,4.23c-7.78-4.81-12.87.86-12.87.86S131.3.38,134.49,9.3V169a7.42,7.42,0,0,1-.69,3.15c-.94,1.89-3,3.65-7.86,2.91Z" transform="translate(-1.35 -2.3)"/></svg>