<?xml version="1.0" encoding="utf-8"?>
<!-- Generator: Adobe Illustrator 24.0.2, SVG Export Plug-In . SVG Version: 6.00 Build 0)  -->
<svg version="1.1" id="Layer_1" xmlns="http://www.w3.org/2000/svg" xmlns:xlink="http://www.w3.org/1999/xlink" x="0px" y="0px"
	 viewBox="0 0 2000 2000" style="enable-background:new 0 0 2000 2000;" xml:space="preserve">
<style type="text/css">
	.st0{fill:url(#SVGID_1_);}
</style>
<g>
	<g>
		<linearGradient id="SVGID_1_" gradientUnits="userSpaceOnUse" x1="77.136" y1="1821.8862" x2="1821.8862" y2="77.136">
			<stop  offset="0" style="stop-color:#005FBC"/>
			<stop  offset="0.1782" style="stop-color:#0076CC"/>
			<stop  offset="0.5112" style="stop-color:#00AAF2"/>
			<stop  offset="0.6185" style="stop-color:#17B3EE"/>
			<stop  offset="0.874" style="stop-color:#49C6E5"/>
			<stop  offset="1" style="stop-color:#5DCEE2"/>
		</linearGradient>
		<path class="st0" d="M1274.59,1943.03c-0.51-6.4-4.04-12.17-9.49-15.56c-13.91-8.65-27.54-18.04-40.8-28.22
			c-13.27-10.18-25.87-20.91-37.82-32.11c-4.69-4.39-11.17-6.31-17.49-5.14l-130.82,24.07c-7.6,1.4-15.35-1.64-19.94-7.86
			c-28.44-38.53-52.1-79.77-70.86-122.82c-3.06-7.03-1.74-15.21,3.23-21.04l86.23-101.24c4.16-4.88,5.75-11.45,4.29-17.7
			c-7.51-32.19-11.85-65.07-12.93-98.11c-0.21-6.48-3.39-12.49-8.73-16.17l-109.5-75.47c-6.36-4.38-9.69-12-8.54-19.64
			c6.97-46.33,19.12-92.17,36.56-136.64c2.85-7.26,9.52-12.32,17.29-12.94l132.6-10.61c6.46-0.52,12.22-4.13,15.64-9.63
			c8.63-13.86,17.99-27.44,28.14-40.66c3.79-4.94,7.66-9.78,11.6-14.54c9.12-10.99,26.38-9.57,33.52,2.8l53.81,93.2
			c3.88,6.72,3.65,15.1-0.7,21.53c-106.49,157.38-73.12,372.48,79.63,489.68c152.52,117.03,368.52,93.84,493.07-49.2
			c151.67-174.19,113.75-424.44-82.66-545.96c-66.32-41.03-141.82-58.21-215.49-53c-7.75,0.55-15.12-3.43-19-10.16l-53.81-93.2
			c-7.13-12.35,0.25-28.03,14.31-30.42c22.37-3.8,44.99-6.09,67.69-6.84c6.48-0.21,12.49-3.39,16.17-8.73l75.47-109.5
			c4.38-6.36,12-9.69,19.64-8.55c46.32,6.97,92.16,19.12,136.64,36.56c7.26,2.85,12.32,9.52,12.94,17.29l10.61,132.6
			c0.51,6.4,4.04,12.17,9.49,15.56c13.91,8.65,27.53,18.04,40.8,28.22c13.22,10.15,25.78,20.84,37.7,31.99
			c4.73,4.43,11.23,6.43,17.6,5.26l85.6-15.75c13.74-2.53,23.72-14.51,23.72-28.49V434.47C2000,195.51,1804.49,0,1565.53,0H434.47
			C195.51,0,0,195.51,0,434.47v1131.06C0,1804.49,195.51,2000,434.47,2000h813.3c16.91,0,30.22-14.42,28.87-31.28L1274.59,1943.03z
			 M466.32,1375.09c-74.73,43.14-170.5,26.48-224.4-40.91c-56.7-70.88-49.18-166.89,6.42-228.1c2.99-3.29,3.17-8.24,0.35-11.68
			c-18.21-22.19-33.54-47.65-44.73-76.53c-49.65-128.1-0.28-272.43,117.65-342.91c39.68-23.71,82.76-36.47,125.81-39.26
			c5.08-0.33,8.86-4.78,8.34-9.84c-13.59-133.06,50.03-267.95,173.37-339.15c126.44-73,279.44-58.16,388.5,25.5
			c4.47,3.43,10.95,2,13.46-3.04c23.72-47.5,64.14-87.45,118.76-110.03c87.88-36.33,188.32-14.24,253.65,54.87
			c22.62,23.93,38.48,50.61,48.74,78.4c2.1,5.68,9.02,7.67,13.82,3.99c16.88-12.95,36.26-23.6,58.22-31.01
			c86.64-29.23,182.98,4.44,232.5,81.3c60.57,94.01,32.6,217.42-58.92,277.01l0.18,0.25l-283.54,163.7
			c-15.78,9.11-35.96,3.7-45.08-12.08l-74.24-128.59c-4.56-7.89-1.85-17.98,6.04-22.54l17.29-9.99c11.18-6.45,10.95-22.66-0.4-28.8
			l-171.99-92.96c-10.81-5.85-23.99,1.76-24.34,14.05l-5.48,195.43c-0.36,12.9,13.56,21.2,24.74,14.75l17.29-9.99
			c7.89-4.56,17.98-1.85,22.54,6.04l49.5,85.73l41.25,71.44l281.68,487.89c4.56,7.89,14.65,10.6,22.54,6.04l17.3-9.99
			c11.18-6.45,25.1,1.85,24.74,14.75l-5.48,195.43c-0.34,12.29-13.52,19.9-24.34,14.05l-171.99-92.96
			c-11.35-6.14-11.58-22.35-0.4-28.8l17.3-9.99c7.89-4.56,10.59-14.65,6.04-22.54l-265.19-459.31
			c-9.11-15.78-29.29-21.19-45.08-12.08l-637.86,368.27L466.32,1375.09z"/>
	</g>
</g>
</svg>
