<?xml version="1.0" encoding="utf-8"?>
<!-- Generator: Adobe Illustrator 24.0.2, SVG Export Plug-In . SVG Version: 6.00 Build 0)  -->
<svg version="1.1" id="Capa_1" xmlns="http://www.w3.org/2000/svg" xmlns:xlink="http://www.w3.org/1999/xlink" x="0px" y="0px"
	 viewBox="0 0 512 512" style="enable-background:new 0 0 512 512;" xml:space="preserve">
<style type="text/css">
	.st0{fill:#282623;}
	.st1{fill:#423E39;}
	.st2{fill:#D4D4D5;}
	.st3{fill:#B9BBBC;}
	.st4{fill:#CE857A;}
	.st5{fill:#D6948C;}
	.st6{fill:#E8B5B1;}
	.st7{fill:#FFCBBE;}
	.st8{fill:#FFDDCF;}
	.st9{fill:#FF8E9E;}
	.st10{fill:#313D40;}
</style>
<path class="st0" d="M210,1.2C106.7,24.2,29,123.1,29,241.6c0,74.5,25.3,142,66.3,190.9c6.8,8.1,16.9,12.7,27.5,12.7H256V241.6v-227
	C244,2.6,226.6-2.5,210,1.2z"/>
<path class="st1" d="M302,1.2c-16.6-3.7-33.9,1.4-46,13.4v227v203.6h133.3c10.6,0,20.7-4.6,27.5-12.7
	c40.9-48.9,66.3-116.4,66.3-190.9C483,123.1,405.3,24.2,302,1.2L302,1.2z"/>
<g>
	<path class="st2" d="M356.9,472.8c-3.6-15.5-10.6-29.8-20.2-41.8c-14.9-18.7-36-32.1-60.2-37.1c-6.6-1.4-13.5-2.1-20.5-2.1
		c0,0,0,0,0,0c-32.6,0-61.7,15.3-80.7,39.1c-14.2,17.9-22.8,40.6-22.8,65.3V512H256h0h103.5v-15.8
		C359.5,488.2,358.6,480.3,356.9,472.8L356.9,472.8z"/>
	<path class="st3" d="M247.5,503.3c-8-26.4-12.1-53.9-12.1-81.5v-27.9c-24.2,4.9-45.3,18.3-60.2,37c-3.4,4.3-6.5,8.8-9.2,13.6
		c-8.6,15.2-13.6,32.9-13.6,51.7V512h24.6h73L247.5,503.3z"/>
</g>
<g>
	<path class="st4" d="M175.3,430.9c-14.2,17.9-22.8,40.6-22.8,65.3V512h66.3c-8.9-29.2-13.4-59.6-13.4-90.2v-16.6
		C193.8,411.7,183.6,420.5,175.3,430.9z"/>
	<path class="st5" d="M205.4,421.8v-16.6c-11.6,6.6-21.8,15.4-30.1,25.8c-1.3,1.6-2.5,3.2-3.6,4.8c-3.9,5.6-3.5,13.1,1,18.3
		l15.7,18.4l-4.3,11.2c-3.1,8,1.1,17,9.3,19.7l25.5,8.6C209.9,482.8,205.4,452.4,205.4,421.8z"/>
	<path class="st5" d="M336.7,430.9c14.2,17.9,22.8,40.6,22.8,65.3V512h-66.3c8.9-29.2,13.4-59.6,13.4-90.2v-16.6
		C318.2,411.7,328.4,420.5,336.7,430.9L336.7,430.9z"/>
	<path class="st6" d="M306.6,421.8v-16.6c11.6,6.6,21.8,15.4,30.1,25.8c1.3,1.6,2.5,3.2,3.6,4.8c3.9,5.6,3.5,13.1-1,18.3l-15.7,18.4
		l4.3,11.2c3.1,8-1.1,17-9.3,19.7l-25.5,8.6C302.1,482.8,306.6,452.4,306.6,421.8z"/>
</g>
<g>
	<path class="st7" d="M449.6,171.5H62.4c-25.8,0-46.7,20.9-46.7,46.7S36.6,265,62.4,265h387.2c25.8,0,46.7-20.9,46.7-46.7
		S475.4,171.5,449.6,171.5z"/>
	<path class="st8" d="M288.2,27.3c-10.5-1.8-21.3-2.7-32.2-2.7c-11,0-21.8,0.9-32.2,2.7c-91.6,15.4-161.4,95-161.4,190.9
		s69.8,175.6,161.4,190.9c10.5,1.8,21.3,2.7,32.2,2.7c11,0,21.8-0.9,32.2-2.7c91.6-15.4,161.4-95,161.4-190.9S379.8,42.6,288.2,27.3
		L288.2,27.3z"/>
	<path class="st7" d="M126.6,218.5c0-96.1,69.9-175.9,161.6-191.2c-10.5-1.8-21.3-2.7-32.2-2.7c-11,0-21.8,0.9-32.2,2.7
		c-91.6,15.4-161.4,95-161.4,190.9s69.8,175.6,161.4,190.9c10.5,1.8,21.3,2.7,32.2,2.7s21.8-0.9,32.2-2.7
		C196.5,393.9,126.6,314.6,126.6,218.5L126.6,218.5z"/>
</g>
<g>
	<path class="st9" d="M150.5,251.1c-21.4,0-38.7,13.8-38.7,30.7c0,17,17.3,30.7,38.7,30.7s38.7-13.8,38.7-30.7
		C189.2,264.9,171.9,251.1,150.5,251.1L150.5,251.1z"/>
	<path class="st9" d="M361.5,251.1c-21.4,0-38.7,13.8-38.7,30.7c0,17,17.3,30.7,38.7,30.7c21.4,0,38.7-13.8,38.7-30.7
		C400.2,264.9,382.9,251.1,361.5,251.1L361.5,251.1z"/>
</g>
<g>
	<path class="st10" d="M172.6,228.5c-4.3,0-7.7,3.5-7.7,7.7v16c0,4.3,3.5,7.7,7.7,7.7c4.3,0,7.7-3.5,7.7-7.7v-16
		C180.3,232,176.9,228.5,172.6,228.5z"/>
	<path class="st10" d="M339.4,228.5c-4.3,0-7.7,3.5-7.7,7.7v16c0,4.3,3.5,7.7,7.7,7.7c4.3,0,7.7-3.5,7.7-7.7v-16
		C347.1,232,343.7,228.5,339.4,228.5z"/>
	<path class="st10" d="M283.1,246c-3.2-2.8-8.1-2.5-10.9,0.7c-4.1,4.7-10,7.4-16.2,7.4c-6.2,0-12.1-2.7-16.2-7.4
		c-2.8-3.2-7.7-3.6-10.9-0.7c-3.2,2.8-3.6,7.7-0.7,10.9c7,8,17.2,12.7,27.8,12.7c10.7,0,20.8-4.6,27.8-12.7
		C286.6,253.7,286.3,248.8,283.1,246z"/>
</g>
<path class="st1" d="M453.7,169.1C434.1,90.4,369.9,30.8,289.9,17.4c-11.2-1.9-22.5-2.8-33.9-2.8c-11.4,0-22.7,0.9-33.9,2.8
	c-80,13.4-144.2,72.9-163.8,151.7l9.7,2.4c-3.7,15-5.7,30.6-5.7,46.7c32.1,0,63.5-6.6,92.5-19.3c12.3-5.4,24.2-11.8,35.5-19.4
	c26.4-17.5,48.7-39.9,65.6-65.9c16.9,25.9,39.1,48.4,65.6,65.9c38.1,25.3,82.4,38.6,128,38.7c0-16.1-2-31.8-5.7-46.7L453.7,169.1z"
	/>
<path class="st0" d="M222.1,17.4c-80,13.4-144.2,72.9-163.8,151.7l9.7,2.4c-3.7,15-5.7,30.6-5.7,46.7c32.1,0,63.5-6.6,92.5-19.3
	C169.8,131.4,203.5,67.1,256,14.6C244.6,14.6,233.3,15.5,222.1,17.4L222.1,17.4z"/>
</svg>
